<svg width="137" height="16" viewBox="0 0 137 16" fill="none" xmlns="http://www.w3.org/2000/svg">
<g clip-path="url(#clip0_0_3036)">
<path d="M11.4973 4.95837V1.39433H5.50073V14.3263H8.19927V15.4804H0V14.3263H2.69854V1.39433H0V0.240234H13.4892V4.95837H11.4973Z" fill="white"/>
<path d="M25.5687 9.41545C25.1057 8.22797 23.9689 6.7766 21.9804 6.7766C19.5324 6.7766 17.3331 8.25976 17.3331 10.967C17.3331 13.2084 19.4616 14.5946 21.5209 14.5946C22.3859 14.5781 23.2274 14.3329 23.9451 13.8884C24.6629 13.4439 25.2265 12.8188 25.5687 12.0877V9.41545ZM30.9623 14.4626V15.6152H25.5687V14.2321C24.3594 15.3862 22.2672 15.9808 20.4912 15.9808C16.5177 15.9808 14.4567 13.3101 14.4567 10.9352C14.4567 8.16279 16.763 5.392 20.7383 5.392C22.6922 5.392 24.4665 5.98495 25.5756 7.27258V4.89762C25.5756 1.89474 23.5508 1.13646 21.8474 1.13646C19.3976 1.13646 17.5543 2.55445 17.2329 2.81833L16.2378 1.5307C17.9067 0.408394 19.5048 0.0141602 21.7766 0.0141602C28.1308 0.0141602 28.2016 3.51143 28.2016 7.27099V14.4626H30.9623Z" fill="white"/>
<path d="M32.3616 4.95022V0.365626H33.6038V1.51813L33.533 1.98231H33.7472L33.92 1.51813C34.7717 0.723301 36.0501 0 38.429 0C42.5753 0 44.0714 2.278 44.0714 3.92807C44.0714 4.91843 43.8572 7.0613 40.2707 7.52072V7.72101C42.8293 7.75281 45.1356 9.23756 45.1356 11.6141C45.1356 14.0209 42.6116 16 37.5756 16C34.8114 16 32.3565 15.3085 30.8379 12.7682L32.3634 11.5807C33.0026 13.7252 35.169 14.946 37.9367 14.946C40.6732 14.946 42.019 13.164 42.019 11.6793C42.019 8.44749 38.9646 8.31555 37.2957 8.31555H36.1244V7.25842H37.2232C39.3896 7.25842 41.3055 6.36662 41.3055 4.09339C41.3055 2.47511 40.1705 1.22087 38.3582 1.22087C35.3072 1.22087 33.533 2.70562 33.6038 4.95022H32.3616Z" fill="white"/>
<path d="M59.6132 7.2711C59.6132 3.34304 57.521 1.03802 54.8225 1.03802C52.0203 1.03802 50.0318 3.80881 50.1735 7.2711H59.6132ZM50.1735 8.333C50.1735 10.0498 50.671 14.733 55.8522 14.733C58.124 14.733 59.9345 14.0065 61.8142 12.2595L62.7385 13.1497C61.0696 14.9651 58.1603 15.9857 55.6379 15.9857C51.4917 15.9857 47.0137 13.6107 47.0137 7.93876C47.0137 2.53389 51.16 0.019043 54.9313 0.019043C58.9757 0.019043 63.0218 2.52754 62.7385 8.333H50.1735Z" fill="white"/>
<path d="M68.087 14.4756H70.7821V1.54203H66.2039V4.97571H64.2172V0.391113H80.1544V4.97571H78.1642V1.54203H73.586V14.4756H76.2846V15.6297H68.087V14.4756Z" fill="white"/>
<path d="M92.4602 9.41545C91.9972 8.22797 90.8639 6.7766 88.8737 6.7766C86.4257 6.7766 84.2264 8.25976 84.2264 10.967C84.2264 13.2084 86.3549 14.5946 88.4124 14.5946C89.2776 14.5789 90.1195 14.334 90.8374 13.8894C91.5553 13.4448 92.1187 12.8193 92.4602 12.0877V9.41545ZM97.8539 14.4626V15.6152H92.4602V14.2321C91.2509 15.3862 89.1605 15.9808 87.3862 15.9808C83.4127 15.9808 81.3517 13.3101 81.3517 10.9352C81.3517 8.16279 83.6563 5.392 87.6298 5.392C89.5855 5.392 91.3615 5.98495 92.4672 7.27258V4.89762C92.4672 1.89474 90.4424 1.13646 88.7407 1.13646C86.2892 1.13646 84.4441 2.55445 84.1262 2.81833L83.1311 1.5307C84.8017 0.408394 86.3963 0.0141602 88.6681 0.0141602C95.0223 0.0141602 95.0931 3.51143 95.0931 7.27099V14.4626H97.8539Z" fill="white"/>
<path d="M101.266 11.9224C102.401 11.9224 103.006 12.846 103.006 13.9683C103.006 15.0572 102.401 15.9792 101.266 15.9792C100.202 15.9792 99.5262 15.1558 99.5262 13.9683C99.5262 12.9779 100.026 11.9224 101.266 11.9224Z" fill="white"/>
<path d="M110.303 0.427747V2.8361H110.476C111.295 1.0207 112.468 0.0668945 114.311 0.0668945C114.774 0.0668945 116.156 0.167041 116.977 1.1574L115.555 3.26849C114.845 2.27971 114 2.04762 113.283 2.04762C111.651 2.04762 110.303 4.1269 110.303 6.4351V14.517H113.003V15.6727H104.801V14.517H107.499V1.58185H104.801V0.427747H110.303Z" fill="white"/>
<path d="M123.616 0.310059V10.5364C123.616 11.3312 123.616 14.5614 127.244 14.5614C129.516 14.5614 131.501 13.2754 131.501 10.1724V1.46416H128.808V0.310059H134.305V14.3961H137V15.5502H131.494V14.3309L131.667 13.5711H131.472L131.043 14.2991C129.488 15.8157 127.531 15.9794 126.206 15.9794C120.812 15.9794 120.812 11.6237 120.812 10.4044V1.46416H118.117V0.310059H123.616Z" fill="white"/>
</g>
<defs>
<clipPath id="clip0_0_3036">
<rect width="137" height="16" fill="white"/>
</clipPath>
</defs>
</svg>
