<svg xmlns="http://www.w3.org/2000/svg" version="1.1" xmlns:xlink="http://www.w3.org/1999/xlink" xmlns:svgjs="http://svgjs.dev/svgjs" width="250" height="250"><svg width="250" height="250" viewBox="0 0 250 250" fill="none" xmlns="http://www.w3.org/2000/svg">
<rect width="250" height="250" fill="#FF715E"></rect>
<path d="M192.263 76.2291C194.167 77.0401 195.891 78.2274 197.33 79.7209C198.79 81.1495 199.955 82.8545 200.756 84.7376C201.558 86.6208 201.98 88.6446 201.999 90.6927C202.018 92.7407 201.634 94.7725 200.867 96.6705C200.101 98.5684 198.969 100.295 197.536 101.751L137.896 164.481L130.904 171.305C129.466 172.791 127.746 173.972 125.846 174.778C123.946 175.584 121.904 176 119.842 176C117.779 176 115.738 175.584 113.838 174.778C111.938 173.972 110.218 172.791 108.779 171.305L52.5932 114.886C49.6525 111.93 48 107.922 48 103.742C48 99.562 49.6525 95.5532 52.5932 92.5975C55.5339 89.6419 59.5226 87.9814 63.6814 87.9814C67.8403 87.9814 71.8283 89.6419 74.7691 92.5975L118.555 136.606L175.154 79.7209C176.593 78.2274 178.316 77.0401 180.221 76.2291C182.126 75.4181 184.173 75 186.242 75C188.311 75 190.358 75.4181 192.263 76.2291Z" fill="white"></path>
</svg><style>@media (prefers-color-scheme: light) { :root { filter: none; } }
@media (prefers-color-scheme: dark) { :root { filter: none; } }
</style></svg>