<svg width="23" height="19" viewBox="0 0 23 19" fill="none" xmlns="http://www.w3.org/2000/svg">
<path d="M22.7769 2.82967C21.9671 3.18847 21.0983 3.4318 20.1855 3.54043C21.1175 2.98227 21.831 2.09695 22.1692 1.04526C21.2949 1.56215 20.3298 1.93748 19.3015 2.14095C18.478 1.26249 17.3067 0.715332 16.0076 0.715332C13.5152 0.715332 11.4943 2.73621 11.4943 5.22724C11.4943 5.58054 11.5342 5.9256 11.6112 6.25557C7.86087 6.0672 4.53537 4.27042 2.30967 1.54015C1.92061 2.20555 1.69928 2.98087 1.69928 3.80849C1.69928 5.37434 2.49663 6.75596 3.70642 7.56428C2.96679 7.53955 2.27117 7.33608 1.66218 6.99789V7.05425C1.66218 9.24009 3.21839 11.0644 5.28187 11.4796C4.9038 11.5813 4.50514 11.6377 4.09271 11.6377C3.80129 11.6377 3.51945 11.6088 3.24312 11.5538C3.81775 13.3478 5.48396 14.6525 7.45811 14.6882C5.91426 15.898 3.96762 16.617 1.85328 16.617C1.48898 16.617 1.13015 16.595 0.776855 16.5551C2.77437 17.8378 5.1458 18.5857 7.69457 18.5857C15.9966 18.5857 20.5347 11.7092 20.5347 5.74554L20.5196 5.16128C21.4062 4.52885 22.1733 3.73426 22.7769 2.82967Z" fill="white"/>
</svg>
