<svg width="25" height="15" viewBox="0 0 25 15" fill="none" xmlns="http://www.w3.org/2000/svg">
<path d="M20.1872 8.66379C19.8048 8.18078 19.9142 7.96588 20.1872 7.53413C20.1922 7.5292 23.3495 3.1663 23.6748 1.6867L23.6768 1.68571C23.8384 1.14651 23.6768 0.750244 22.8951 0.750244H20.3085C19.65 0.750244 19.3464 1.09033 19.1837 1.47082C19.1837 1.47082 17.8668 4.62323 16.0037 6.66667C15.4024 7.25713 15.1245 7.4464 14.7962 7.4464C14.6345 7.4464 14.3832 7.25713 14.3832 6.71793V1.68571C14.3832 1.03907 14.1988 0.750244 13.6537 0.750244H9.58655C9.17352 0.750244 8.92807 1.05188 8.92807 1.33282C8.92807 1.94595 9.8596 2.08691 9.9562 3.81196V7.55483C9.9562 8.37497 9.80735 8.52579 9.47713 8.52579C8.59785 8.52579 6.46371 5.36057 5.199 1.73796C4.9437 1.03512 4.6943 0.75123 4.0309 0.75123H1.44332C0.705 0.75123 0.556152 1.09131 0.556152 1.47181C0.556152 2.14408 1.43543 5.48674 4.64501 9.90287C6.78408 12.9173 9.79651 14.5506 12.5369 14.5506C14.1841 14.5506 14.3851 14.1879 14.3851 13.5639C14.3851 10.6836 14.2363 10.4115 15.0614 10.4115C15.4438 10.4115 16.1023 10.6008 17.6401 12.0547C19.3976 13.7788 19.6865 14.5506 20.6702 14.5506H23.2568C23.9942 14.5506 24.3678 14.1879 24.1529 13.4722C23.661 11.967 20.3371 8.8708 20.1872 8.66379Z" fill="white"/>
</svg>
