<svg width="271" height="211" viewBox="0 0 271 211" fill="none" xmlns="http://www.w3.org/2000/svg">
<path d="M0.386626 190.787C-0.402733 178.22 0.194481 31.8154 0.604207 23.3635C1.00236 15.1919 2.87508 13.6326 11.3914 13.3662C21.4748 13.0534 247.775 12.6387 253.224 13.0187C258.086 13.3593 263.995 14.0983 264.454 23.4608C265.266 40.0495 265.088 177.764 264.454 191.968C264.208 197.468 261.762 201.368 256.201 201.801C249.636 202.311 15.227 202.193 9.74085 201.801C3.18756 201.354 0.847278 198.11 0.386626 190.787Z" fill="#ECF1FF"/>
<path d="M0.314575 47.2827C0.314575 34.3083 0.511336 25.2911 0.60393 23.3727C1.00208 15.2012 2.8748 13.6419 11.3911 13.3755C21.4745 13.0627 247.775 12.648 253.224 13.028C258.085 13.3685 263.995 14.1076 264.453 23.47C264.629 27.0426 264.847 36.2336 264.847 48.601C188.823 48.9277 64.91 48.089 0.314575 47.2827Z" fill="#376EFF"/>
<path d="M55.5332 76.8971C55.4035 74.8281 55.5007 63.165 55.5679 61.7726C55.635 60.4288 55.9429 60.1717 57.3434 60.1276C59.0031 60.0767 71.0518 60.0072 71.9499 60.0697C72.7509 60.1253 73.7231 60.2481 73.8018 61.7888C73.9361 64.5204 73.906 74.7516 73.8018 77.0801C73.7624 77.986 73.3597 78.6278 72.443 78.7019C71.3643 78.7853 57.9799 78.7668 57.0771 78.7019C55.9938 78.6347 55.6095 78.0972 55.5332 76.8971Z" fill="white"/>
<path d="M106.045 78.5602C103.98 78.6922 92.325 78.5926 90.9338 78.5254C89.5912 78.4605 89.3343 78.1524 89.2903 76.7484C89.2394 75.0872 89.1722 63.0279 89.2347 62.1313C89.2902 61.3297 89.4107 60.3566 90.95 60.2778C93.6792 60.1435 103.913 60.1736 106.24 60.2778C107.145 60.3195 107.786 60.7203 107.86 61.6378C107.943 62.7198 107.925 76.1136 107.86 77.0171C107.786 78.0968 107.256 78.4837 106.045 78.5602Z" fill="white"/>
<path d="M124.754 60.2572C126.819 60.1275 138.474 60.2248 139.865 60.292C141.208 60.3592 141.464 60.6673 141.508 62.069C141.559 63.7302 141.626 75.7894 141.564 76.6884C141.508 77.49 141.388 78.4631 139.849 78.5419C137.12 78.6762 126.886 78.6461 124.559 78.5419C123.654 78.5025 123.013 78.0993 122.939 77.1819C122.855 76.0999 122.874 62.7061 122.939 61.8025C123.018 60.7206 123.548 60.329 124.754 60.2572Z" fill="white"/>
<path d="M156.971 76.8971C156.839 74.8281 156.939 63.165 157.006 61.7726C157.071 60.4288 157.379 60.1717 158.781 60.1276C160.441 60.0767 172.49 60.0072 173.386 60.0697C174.187 60.1253 175.159 60.2481 175.238 61.7888C175.372 64.5204 175.342 74.7516 175.238 77.0801C175.196 77.986 174.793 78.6278 173.879 78.7019C172.798 78.7853 159.416 78.7668 158.513 78.7019C157.434 78.6347 157.055 78.0972 156.971 76.8971Z" fill="white"/>
<path d="M207.282 78.5602C205.215 78.6922 193.56 78.5926 192.171 78.5254C190.826 78.4605 190.569 78.1524 190.527 76.7484C190.474 75.0872 190.407 63.0279 190.469 62.1313C190.525 61.3297 190.647 60.3566 192.187 60.2778C194.914 60.1435 205.138 60.1736 207.476 60.2778C208.381 60.3195 209.023 60.7203 209.097 61.6378C209.182 62.7198 209.162 76.1136 209.097 77.0171C209.018 78.0968 208.488 78.4837 207.282 78.5602Z" fill="white"/>
<path d="M226.199 60.2572C228.266 60.1275 239.921 60.2248 241.31 60.292C242.655 60.3592 242.912 60.6673 242.954 62.069C243.007 63.7302 243.074 75.7894 243.011 76.6884C242.956 77.49 242.833 78.4631 241.294 78.5419C238.567 78.6762 228.331 78.6461 226.004 78.5419C225.099 78.5025 224.458 78.0993 224.384 77.1819C224.298 76.0999 224.319 62.7061 224.384 61.8025C224.463 60.7206 224.995 60.329 226.199 60.2572Z" fill="white"/>
<path d="M23.5208 93.4901C25.588 93.3604 37.2432 93.4577 38.6321 93.5249C39.977 93.5921 40.2339 93.9002 40.2756 95.3019C40.3288 96.9631 40.396 109.022 40.3335 109.921C40.2779 110.723 40.1552 111.696 38.6159 111.775C35.889 111.909 25.6644 111.879 23.3264 111.775C22.4213 111.735 21.7801 111.332 21.706 110.415C21.6203 109.335 21.6412 95.939 21.706 95.0355C21.7847 93.9512 22.3148 93.5666 23.5208 93.4901Z" fill="white"/>
<path d="M55.5332 110.134C55.4035 108.065 55.5007 96.4023 55.5679 95.0099C55.635 93.6661 55.9429 93.409 57.3434 93.3649C59.0031 93.314 71.0518 93.2445 71.9499 93.307C72.7509 93.3626 73.7231 93.4854 73.8018 95.0261C73.9361 97.7577 73.906 107.989 73.8018 110.317C73.7624 111.223 73.3597 111.865 72.443 111.939C71.3643 112.023 57.9799 112.004 57.0771 111.939C55.9938 111.872 55.6095 111.341 55.5332 110.134Z" fill="white"/>
<path d="M106.045 111.795C103.98 111.928 92.325 111.828 90.9338 111.761C89.5912 111.696 89.3343 111.388 89.2903 109.984C89.2394 108.323 89.1722 96.2633 89.2347 95.3667C89.2902 94.565 89.4107 93.592 90.95 93.5132C93.6792 93.3788 103.913 93.4089 106.24 93.5132C107.145 93.5549 107.786 93.958 107.86 94.8732C107.943 95.9551 107.925 109.349 107.86 110.252C107.786 111.334 107.256 111.721 106.045 111.795Z" fill="white"/>
<path d="M124.754 93.4901C126.819 93.3604 138.474 93.4577 139.865 93.5249C141.208 93.5921 141.464 93.9002 141.508 95.3019C141.559 96.9631 141.626 109.022 141.564 109.921C141.508 110.723 141.388 111.696 139.849 111.775C137.12 111.909 126.886 111.879 124.559 111.775C123.654 111.735 123.013 111.332 122.939 110.415C122.855 109.335 122.874 95.939 122.939 95.0355C123.018 93.9512 123.548 93.5666 124.754 93.4901Z" fill="white"/>
<path d="M156.971 110.134C156.839 108.065 156.939 96.4023 157.006 95.0099C157.071 93.6661 157.379 93.409 158.781 93.3649C160.441 93.314 172.49 93.2445 173.386 93.307C174.187 93.3626 175.159 93.4854 175.238 95.0261C175.372 97.7577 175.342 107.989 175.238 110.317C175.196 111.223 174.793 111.865 173.879 111.939C172.798 112.023 159.416 112.004 158.513 111.939C157.434 111.872 157.055 111.341 156.971 110.134Z" fill="white"/>
<path d="M207.282 111.795C205.215 111.928 193.56 111.828 192.171 111.761C190.826 111.696 190.569 111.388 190.527 109.984C190.474 108.323 190.407 96.2633 190.469 95.3667C190.525 94.565 190.647 93.592 192.187 93.5132C194.914 93.3788 205.138 93.4089 207.476 93.5132C208.381 93.5549 209.023 93.958 209.097 94.8732C209.182 95.9551 209.162 109.349 209.097 110.252C209.018 111.334 208.488 111.721 207.282 111.795Z" fill="white"/>
<path d="M226.199 93.4901C228.266 93.3604 239.921 93.4577 241.31 93.5249C242.655 93.5921 242.912 93.9002 242.954 95.3019C243.007 96.9631 243.074 109.022 243.011 109.921C242.956 110.723 242.833 111.696 241.294 111.775C238.567 111.909 228.331 111.879 226.004 111.775C225.099 111.735 224.458 111.332 224.384 110.415C224.298 109.335 224.319 95.939 224.384 95.0355C224.463 93.9512 224.995 93.5666 226.199 93.4901Z" fill="white"/>
<path d="M23.5208 126.943C25.588 126.813 37.2432 126.913 38.6321 126.98C39.977 127.045 40.2339 127.353 40.2756 128.757C40.3288 130.418 40.396 142.478 40.3335 143.374C40.2779 144.176 40.1552 145.149 38.6159 145.228C35.889 145.36 25.6644 145.332 23.3264 145.228C22.4213 145.186 21.7801 144.783 21.706 143.868C21.6203 142.786 21.6412 129.392 21.706 128.486C21.7847 127.404 22.3148 127.02 23.5208 126.943Z" fill="white"/>
<path d="M55.5332 143.588C55.4035 141.521 55.5007 129.856 55.5679 128.463C55.635 127.119 55.9429 126.862 57.3434 126.818C59.0031 126.767 71.0518 126.7 71.9499 126.763C72.7509 126.818 73.7231 126.939 73.8018 128.482C73.9361 131.211 73.906 141.442 73.8018 143.773C73.7624 144.679 73.3597 145.321 72.443 145.395C71.3643 145.478 57.9799 145.46 57.0771 145.395C55.9938 145.325 55.6095 144.795 55.5332 143.588Z" fill="white"/>
<path d="M106.045 145.251C103.98 145.381 92.325 145.281 90.9338 145.214C89.5912 145.149 89.3343 144.841 89.2903 143.437C89.2394 141.776 89.1722 129.716 89.2347 128.82C89.2902 128.018 89.4107 127.045 90.95 126.966C93.6792 126.834 103.913 126.862 106.24 126.966C107.145 127.008 107.786 127.411 107.86 128.326C107.943 129.408 107.925 142.802 107.86 143.708C107.786 144.79 107.256 145.175 106.045 145.251Z" fill="white"/>
<path d="M124.754 126.943C126.819 126.813 138.474 126.913 139.865 126.98C141.208 127.045 141.464 127.353 141.508 128.757C141.559 130.418 141.626 142.478 141.564 143.374C141.508 144.176 141.388 145.149 139.849 145.228C137.12 145.36 126.886 145.332 124.559 145.228C123.654 145.186 123.013 144.783 122.939 143.868C122.855 142.786 122.874 129.392 122.939 128.486C123.018 127.404 123.548 127.02 124.754 126.943Z" fill="white"/>
<path d="M152.532 147.225C152.336 144.156 152.483 126.827 152.583 124.759C152.679 122.763 153.137 122.381 155.22 122.315C157.686 122.24 175.584 122.14 176.914 122.233C178.104 122.315 179.548 122.494 179.665 124.786C179.865 128.841 179.82 144.038 179.665 147.501C179.603 148.846 179.005 149.8 177.647 149.91C176.041 150.034 156.163 150.006 154.822 149.91C153.219 149.807 152.655 149.018 152.532 147.225Z" fill="white"/>
<path d="M187.63 147.225C187.434 144.156 187.582 126.827 187.682 124.759C187.778 122.763 188.235 122.381 190.319 122.315C192.785 122.24 210.682 122.14 212.013 122.233C213.203 122.315 214.647 122.494 214.764 124.786C214.963 128.841 214.919 144.038 214.764 147.501C214.702 148.846 214.104 149.8 212.745 149.91C211.14 150.034 191.261 150.006 189.92 149.91C188.318 149.807 187.754 149.018 187.63 147.225Z" fill="white"/>
<path d="M222.224 147.225C222.028 144.156 222.176 126.827 222.275 124.759C222.372 122.763 222.829 122.381 224.913 122.315C227.378 122.24 245.276 122.14 246.607 122.233C247.796 122.315 249.24 122.494 249.357 124.786C249.557 128.841 249.512 144.038 249.357 147.501C249.295 148.846 248.697 149.8 247.339 149.91C245.733 150.034 225.855 150.006 224.514 149.91C222.911 149.807 222.348 149.018 222.224 147.225Z" fill="white"/>
<path d="M23.5208 160.614C25.588 160.482 37.2432 160.582 38.6321 160.649C39.977 160.714 40.2339 161.024 40.2756 162.426C40.3288 164.087 40.396 176.146 40.3335 177.045C40.2779 177.845 40.1552 178.818 38.6159 178.899C35.889 179.033 25.6644 179.003 23.3264 178.899C22.4213 178.859 21.7801 178.456 21.706 177.539C21.6203 176.457 21.6412 163.063 21.706 162.16C21.7847 161.075 22.3148 160.688 23.5208 160.614Z" fill="white"/>
<path d="M55.5332 177.258C55.4035 175.189 55.5007 163.524 55.5679 162.134C55.635 160.788 55.9429 160.531 57.3434 160.489C59.0031 160.436 71.0518 160.368 71.9499 160.431C72.7509 160.487 73.7231 160.609 73.8018 162.15C73.9361 164.879 73.906 175.124 73.8018 177.441C73.7624 178.347 73.3597 178.989 72.443 179.063C71.3643 179.149 57.9799 179.128 57.0771 179.063C55.9938 178.996 55.6095 178.465 55.5332 177.258Z" fill="white"/>
<path d="M106.045 178.92C103.98 179.05 92.325 178.952 90.9338 178.885C89.5912 178.818 89.3343 178.51 89.2903 177.108C89.2394 175.447 89.1722 163.388 89.2347 162.489C89.2902 161.687 89.4107 160.714 90.95 160.635C93.6792 160.501 103.913 160.531 106.24 160.635C107.145 160.675 107.786 161.078 107.86 161.995C107.943 163.077 107.925 176.471 107.86 177.375C107.786 178.459 107.256 178.843 106.045 178.92Z" fill="white"/>
<path d="M124.754 160.614C126.819 160.482 138.474 160.582 139.865 160.649C141.208 160.714 141.464 161.024 141.508 162.426C141.559 164.087 141.626 176.146 141.564 177.045C141.508 177.845 141.388 178.818 139.849 178.899C137.12 179.033 126.886 179.003 124.559 178.899C123.654 178.859 123.013 178.456 122.939 177.539C122.855 176.457 122.874 163.063 122.939 162.16C123.018 161.075 123.548 160.688 124.754 160.614Z" fill="white"/>
<path d="M156.971 177.258C156.839 175.189 156.939 163.524 157.006 162.134C157.071 160.788 157.379 160.531 158.781 160.489C160.441 160.436 172.49 160.368 173.386 160.431C174.187 160.487 175.159 160.609 175.238 162.15C175.372 164.879 175.342 175.124 175.238 177.441C175.196 178.347 174.793 178.989 173.879 179.063C172.798 179.149 159.416 179.128 158.513 179.063C157.434 178.996 157.055 178.465 156.971 177.258Z" fill="white"/>
<path d="M29.0422 23.4469C31.0162 23.4469 32.6163 21.8454 32.6163 19.8697C32.6163 17.8941 31.0162 16.2925 29.0422 16.2925C27.0683 16.2925 25.4681 17.8941 25.4681 19.8697C25.4681 21.8454 27.0683 23.4469 29.0422 23.4469Z" fill="white"/>
<path d="M29.6672 20.4997C29.5263 20.6461 29.355 20.7599 29.1655 20.8329C28.9759 20.9059 28.7727 20.9364 28.57 20.9223C28.3674 20.9081 28.1704 20.8497 27.9927 20.7511C27.8151 20.6524 27.6614 20.516 27.5422 20.3514C24.8847 16.7557 24.7944 11.6655 26.012 7.87977C27.3824 3.6237 30.3107 0.773966 33.8501 0.252672C35.2674 0.0342963 36.7154 0.133187 38.09 0.542223C39.4645 0.95126 40.7313 1.66026 41.7992 2.61818C44.6696 5.10185 46.5215 9.17026 46.5192 13.1483H43.7414C43.7414 9.99506 42.2344 6.66111 39.9821 4.71263C38.3038 3.25996 36.3756 2.68306 34.2552 2.99352C31.7853 3.35727 29.6949 5.49804 28.6579 8.72311C27.5005 12.3073 27.982 16.2181 29.7852 18.6856C29.982 18.9505 30.0782 19.2769 30.0566 19.6063C30.035 19.9357 29.8969 20.2466 29.6672 20.4835V20.4997Z" fill="#2D3750"/>
<path d="M54.9197 23.4469C56.8936 23.4469 58.4938 21.8454 58.4938 19.8697C58.4938 17.8941 56.8936 16.2925 54.9197 16.2925C52.9458 16.2925 51.3456 17.8941 51.3456 19.8697C51.3456 21.8454 52.9458 23.4469 54.9197 23.4469Z" fill="white"/>
<path d="M55.5447 20.4997C55.4039 20.6461 55.2326 20.7599 55.0431 20.8329C54.8535 20.9059 54.6502 20.9364 54.4476 20.9223C54.245 20.9081 54.0479 20.8497 53.8703 20.7511C53.6927 20.6524 53.5389 20.516 53.4197 20.3514C50.7623 16.7557 50.672 11.6655 51.8896 7.87977C53.2577 3.6237 56.1882 0.773966 59.7276 0.252672C61.1449 0.0342963 62.593 0.133187 63.9676 0.542223C65.3421 0.95126 66.6089 1.66026 67.6768 2.61818C70.5472 5.10185 72.399 9.08917 72.3944 13.0672H69.6166C69.6166 9.91166 68.1096 6.66111 65.8596 4.71495C64.179 3.26227 62.2531 2.68305 60.1304 2.99583C57.6628 3.35957 55.5702 5.50036 54.5331 8.72543C53.3757 12.3096 53.8595 16.2205 55.6628 18.6879C55.8596 18.9528 55.9558 19.2792 55.9342 19.6086C55.9126 19.938 55.7745 20.249 55.5447 20.4858V20.4997Z" fill="#2D3750"/>
<path d="M80.7973 23.4469C82.7712 23.4469 84.3714 21.8454 84.3714 19.8697C84.3714 17.8941 82.7712 16.2925 80.7973 16.2925C78.8233 16.2925 77.2231 17.8941 77.2231 19.8697C77.2231 21.8454 78.8233 23.4469 80.7973 23.4469Z" fill="white"/>
<path d="M81.4219 20.4997C81.2811 20.6466 81.1097 20.7607 80.9199 20.8339C80.7301 20.9072 80.5266 20.9378 80.3236 20.9237C80.1207 20.9095 79.9234 20.851 79.7456 20.7521C79.5677 20.6532 79.4138 20.5164 79.2946 20.3515C76.6372 16.7557 76.5493 11.6656 77.7669 7.87981C79.1349 3.62374 82.0655 0.774006 85.6049 0.252712C87.0207 0.0354289 88.4671 0.134872 89.84 0.543889C91.2129 0.952907 92.4781 1.66132 93.5448 2.61822C95.0157 3.91893 96.1967 5.51487 97.0111 7.3023C97.8255 9.08974 98.2549 11.0287 98.2716 12.9931H95.4938C95.4765 11.427 95.1338 9.88159 94.4874 8.45522C93.841 7.02885 92.9051 5.75273 91.7392 4.70803C90.0586 3.25536 88.1327 2.67846 86.01 2.98892C83.5423 3.35267 81.4498 5.49344 80.4127 8.71851C79.2553 12.3027 79.7391 16.2135 81.5423 18.681C81.7391 18.9459 81.8354 19.2723 81.8138 19.6017C81.7921 19.9311 81.654 20.242 81.4243 20.4789L81.4219 20.4997Z" fill="#2D3750"/>
<path d="M106.675 23.4469C108.649 23.4469 110.249 21.8454 110.249 19.8697C110.249 17.8941 108.649 16.2925 106.675 16.2925C104.701 16.2925 103.101 17.8941 103.101 19.8697C103.101 21.8454 104.701 23.4469 106.675 23.4469Z" fill="white"/>
<path d="M107.299 20.4997C107.159 20.6466 106.987 20.7606 106.797 20.8339C106.608 20.9072 106.404 20.9378 106.201 20.9237C105.998 20.9095 105.801 20.8509 105.623 20.7521C105.445 20.6532 105.291 20.5164 105.172 20.3514C102.515 16.7557 102.427 11.6655 103.644 7.87977C105.012 3.6237 107.943 0.773966 111.48 0.252672C112.897 0.0342963 114.345 0.133187 115.72 0.542223C117.094 0.95126 118.361 1.66026 119.429 2.61818C120.898 3.91067 122.077 5.49905 122.89 7.27934C123.703 9.05963 124.131 10.9917 124.147 12.9491H121.369C121.352 11.3917 121.01 9.85507 120.364 8.43811C119.718 7.02115 118.783 5.75525 117.619 4.72189C115.941 3.26922 114.015 2.69232 111.892 3.00278C109.424 3.36653 107.332 5.5073 106.295 8.73237C105.137 12.3166 105.619 16.2274 107.422 18.6949C107.619 18.9595 107.716 19.2857 107.695 19.6151C107.673 19.9445 107.536 20.2556 107.306 20.4928L107.299 20.4997Z" fill="#2D3750"/>
<path d="M132.552 23.4469C134.526 23.4469 136.126 21.8454 136.126 19.8697C136.126 17.8941 134.526 16.2925 132.552 16.2925C130.578 16.2925 128.978 17.8941 128.978 19.8697C128.978 21.8454 130.578 23.4469 132.552 23.4469Z" fill="white"/>
<path d="M133.177 20.4998C133.036 20.6467 132.865 20.7608 132.675 20.834C132.485 20.9073 132.282 20.9379 132.079 20.9238C131.876 20.9096 131.678 20.8511 131.501 20.7522C131.323 20.6533 131.169 20.5165 131.05 20.3516C128.392 16.7558 128.302 11.6657 129.519 7.87991C130.89 3.62384 133.818 0.774107 137.358 0.252813C138.775 0.034273 140.223 0.13308 141.597 0.542124C142.972 0.951168 144.239 1.66026 145.307 2.61832C146.776 3.90202 147.956 5.48312 148.77 7.25717C149.584 9.03122 150.012 10.9578 150.027 12.9098H147.249C147.232 11.3575 146.888 9.82615 146.242 8.41517C145.595 7.0042 144.659 5.74514 143.494 4.71971C141.816 3.26704 139.89 2.68783 137.767 3.0006C135.3 3.36435 133.207 5.50512 132.17 8.73019C131.013 12.3144 131.494 16.2252 133.297 18.6927C133.494 18.9573 133.591 19.2835 133.57 19.6129C133.549 19.9423 133.411 20.2534 133.182 20.4906L133.177 20.4998Z" fill="#2D3750"/>
<path d="M158.427 23.4469C160.401 23.4469 162.001 21.8454 162.001 19.8697C162.001 17.8941 160.401 16.2925 158.427 16.2925C156.453 16.2925 154.853 17.8941 154.853 19.8697C154.853 21.8454 156.453 23.4469 158.427 23.4469Z" fill="white"/>
<path d="M159.055 20.4997C158.914 20.6461 158.743 20.7599 158.553 20.8329C158.363 20.9059 158.16 20.9364 157.958 20.9223C157.755 20.9081 157.558 20.8497 157.38 20.7511C157.203 20.6524 157.049 20.516 156.93 20.3514C154.272 16.7557 154.182 11.6655 155.4 7.87977C156.768 3.6237 159.698 0.773966 163.238 0.252672C164.655 0.0342963 166.103 0.133187 167.478 0.542223C168.852 0.95126 170.119 1.66026 171.187 2.61818C172.654 3.89684 173.833 5.47284 174.646 7.24184C175.459 9.01084 175.887 10.9325 175.902 12.8796H173.124C173.107 11.3319 172.764 9.8053 172.117 8.39931C171.471 6.99332 170.535 5.73948 169.372 4.71957C167.694 3.2669 165.765 2.68769 163.643 3.00046C161.175 3.36421 159.083 5.505 158.048 8.72775C156.89 12.3142 157.372 16.2251 159.175 18.6902C159.372 18.9551 159.468 19.2815 159.447 19.6109C159.425 19.9403 159.287 20.2513 159.057 20.4881L159.055 20.4997Z" fill="#2D3750"/>
<path d="M184.305 23.4469C186.279 23.4469 187.879 21.8454 187.879 19.8697C187.879 17.8941 186.279 16.2925 184.305 16.2925C182.331 16.2925 180.731 17.8941 180.731 19.8697C180.731 21.8454 182.331 23.4469 184.305 23.4469Z" fill="white"/>
<path d="M184.929 20.4997C184.789 20.6465 184.617 20.7606 184.428 20.8339C184.238 20.9071 184.034 20.9378 183.831 20.9236C183.628 20.9095 183.431 20.8509 183.253 20.752C183.075 20.6531 182.921 20.5164 182.802 20.3514C180.145 16.7556 180.057 11.6655 181.274 7.87974C182.643 3.62367 185.573 0.77394 189.112 0.252646C190.529 0.0342972 191.977 0.133211 193.351 0.542254C194.725 0.951297 195.992 1.66028 197.059 2.61815C198.528 3.89364 199.708 5.46724 200.522 7.23443C201.337 9.00163 201.766 10.922 201.782 12.8679H199.004C198.987 11.3223 198.645 9.79764 197.998 8.3938C197.352 6.98995 196.417 5.73864 195.254 4.72186C193.573 3.26919 191.647 2.68998 189.524 3.00276C187.057 3.3665 184.964 5.50728 183.927 8.73235C182.77 12.3165 183.254 16.2274 185.057 18.6948C185.254 18.9597 185.35 19.2861 185.328 19.6155C185.307 19.9449 185.169 20.2559 184.939 20.4927L184.929 20.4997Z" fill="#2D3750"/>
<path d="M210.182 23.4469C212.156 23.4469 213.756 21.8454 213.756 19.8697C213.756 17.8941 212.156 16.2925 210.182 16.2925C208.208 16.2925 206.608 17.8941 206.608 19.8697C206.608 21.8454 208.208 23.4469 210.182 23.4469Z" fill="white"/>
<path d="M210.807 20.4998C210.667 20.6466 210.495 20.7607 210.305 20.834C210.116 20.9072 209.912 20.9379 209.709 20.9237C209.506 20.9096 209.309 20.851 209.131 20.7521C208.953 20.6533 208.799 20.5165 208.68 20.3515C206.023 16.7557 205.935 11.6656 207.152 7.87985C208.52 3.62378 211.451 0.774044 214.988 0.252751C216.407 0.0331434 217.856 0.131421 219.232 0.540492C220.608 0.949562 221.876 1.65921 222.944 2.61826C224.412 3.89654 225.591 5.47247 226.404 7.24155C227.217 9.01064 227.645 10.9325 227.66 12.8796H224.882C224.865 11.3324 224.523 9.80612 223.876 8.4007C223.229 6.99528 222.293 5.74245 221.129 4.72429C219.451 3.27162 217.523 2.6924 215.402 3.00518C212.935 3.36893 210.842 5.5097 209.805 8.73477C208.648 12.319 209.129 16.2298 210.932 18.6973C211.13 18.9619 211.226 19.2881 211.205 19.6175C211.184 19.9469 211.046 20.258 210.817 20.4951L210.807 20.4998Z" fill="#2D3750"/>
<path d="M236.06 23.4469C238.034 23.4469 239.634 21.8454 239.634 19.8697C239.634 17.8941 238.034 16.2925 236.06 16.2925C234.086 16.2925 232.486 17.8941 232.486 19.8697C232.486 21.8454 234.086 23.4469 236.06 23.4469Z" fill="white"/>
<path d="M236.685 20.4997C236.544 20.6466 236.373 20.7606 236.183 20.8339C235.993 20.9072 235.79 20.9378 235.587 20.9237C235.384 20.9095 235.186 20.8509 235.009 20.7521C234.831 20.6532 234.677 20.5164 234.558 20.3514C231.9 16.7557 231.812 11.6655 233.03 7.87977C234.398 3.6237 237.326 0.773966 240.866 0.252672C242.283 0.0342963 243.731 0.133187 245.105 0.542223C246.48 0.95126 247.747 1.66026 248.815 2.61818C250.286 3.92869 251.467 5.53383 252.28 7.32975C253.093 9.12568 253.521 11.0724 253.535 13.044L250.757 12.9699C250.741 11.4093 250.398 9.86943 249.752 8.4493C249.105 7.02916 248.168 5.76025 247.002 4.72421C245.324 3.27154 243.398 2.69233 241.275 3.0051C238.808 3.36885 236.715 5.50962 235.678 8.73237C234.521 12.3189 235.002 16.2297 236.805 18.6949C237.002 18.9595 237.099 19.2857 237.078 19.6151C237.057 19.9445 236.919 20.2556 236.69 20.4928L236.685 20.4997Z" fill="#2D3750"/>
<path d="M164.718 141.048V143.932H155.144V141.048H158.431V130.035C158.304 130.226 158.089 130.44 157.788 130.679C157.502 130.901 157.169 131.124 156.788 131.346C156.422 131.553 156.041 131.727 155.644 131.87C155.263 132.013 154.914 132.085 154.596 132.085V129.129C155.025 129.129 155.462 129.018 155.906 128.795C156.351 128.573 156.764 128.319 157.145 128.033C157.526 127.747 157.827 127.484 158.05 127.246C158.288 126.992 158.415 126.857 158.431 126.841H161.694V141.048H164.718Z" fill="#FF715E"/>
<path d="M173.726 129.916H166.058V127.008H178.775L170.368 143.932H166.748L173.726 129.916Z" fill="#FF715E"/>
<path d="M199.336 140.822V143.717H189.728V140.822H193.026V129.77C192.899 129.961 192.684 130.177 192.381 130.416C192.094 130.639 191.76 130.862 191.377 131.086C191.011 131.293 190.628 131.469 190.23 131.612C189.847 131.756 189.497 131.827 189.178 131.827V128.861C189.608 128.861 190.047 128.749 190.493 128.526C190.939 128.303 191.353 128.048 191.736 127.761C192.118 127.474 192.421 127.21 192.644 126.971C192.883 126.716 193.01 126.58 193.026 126.564H196.301V140.822H199.336Z" fill="#FF715E"/>
<path d="M213.253 138.693C213.253 139.746 212.966 140.663 212.392 141.444C211.834 142.226 211.085 142.84 210.145 143.286C209.205 143.717 208.177 143.932 207.062 143.932C205.931 143.932 204.895 143.701 203.955 143.238C203.031 142.776 202.29 142.146 201.732 141.348C201.19 140.535 200.919 139.61 200.919 138.573C200.919 137.936 201.055 137.361 201.326 136.851C201.597 136.325 201.931 135.878 202.33 135.511C202.744 135.129 203.158 134.834 203.572 134.626C203.19 134.435 202.832 134.18 202.497 133.861C202.178 133.542 201.923 133.175 201.732 132.76C201.541 132.346 201.445 131.907 201.445 131.445C201.445 130.695 201.613 130.025 201.947 129.435C202.282 128.845 202.728 128.351 203.286 127.952C203.843 127.537 204.449 127.234 205.102 127.043C205.771 126.836 206.433 126.732 207.086 126.732C207.723 126.732 208.377 126.836 209.046 127.043C209.715 127.234 210.329 127.529 210.886 127.928C211.444 128.327 211.89 128.821 212.225 129.411C212.575 129.985 212.751 130.655 212.751 131.421C212.751 131.867 212.647 132.306 212.44 132.736C212.249 133.151 211.986 133.526 211.651 133.861C211.332 134.18 210.966 134.435 210.552 134.626C211.014 134.865 211.452 135.176 211.866 135.559C212.281 135.942 212.615 136.397 212.87 136.923C213.125 137.449 213.253 138.039 213.253 138.693ZM210.002 138.502C210.002 138.087 209.922 137.728 209.763 137.425C209.604 137.106 209.38 136.843 209.094 136.636C208.807 136.412 208.488 136.245 208.138 136.133C207.787 136.022 207.429 135.966 207.062 135.966C206.552 135.966 206.074 136.07 205.628 136.277C205.198 136.484 204.847 136.779 204.576 137.162C204.305 137.545 204.17 137.991 204.17 138.502C204.17 138.884 204.25 139.235 204.409 139.554C204.584 139.857 204.807 140.12 205.078 140.344C205.365 140.567 205.676 140.742 206.01 140.87C206.361 140.982 206.719 141.037 207.086 141.037C207.596 141.037 208.074 140.926 208.52 140.703C208.966 140.479 209.325 140.176 209.596 139.793C209.866 139.411 210.002 138.98 210.002 138.502ZM204.696 131.54C204.696 131.971 204.815 132.338 205.054 132.641C205.293 132.944 205.596 133.175 205.963 133.334C206.345 133.478 206.719 133.55 207.086 133.55C207.468 133.55 207.835 133.47 208.185 133.311C208.552 133.151 208.855 132.928 209.094 132.641C209.349 132.338 209.476 131.963 209.476 131.516C209.476 131.118 209.365 130.775 209.141 130.488C208.918 130.201 208.624 129.977 208.257 129.818C207.907 129.658 207.508 129.579 207.062 129.579C206.648 129.579 206.257 129.658 205.891 129.818C205.524 129.977 205.23 130.209 205.007 130.512C204.799 130.799 204.696 131.142 204.696 131.54Z" fill="#FF715E"/>
<path d="M233.92 140.808V143.7H224.321V140.808H227.617V129.767C227.489 129.958 227.274 130.173 226.972 130.412C226.685 130.635 226.351 130.858 225.969 131.081C225.603 131.288 225.221 131.464 224.823 131.607C224.441 131.75 224.091 131.822 223.772 131.822V128.859C224.202 128.859 224.64 128.747 225.085 128.524C225.531 128.301 225.945 128.046 226.327 127.759C226.709 127.473 227.012 127.21 227.234 126.971C227.473 126.716 227.601 126.58 227.617 126.564H230.888V140.808H233.92Z" fill="#FF715E"/>
<path d="M235.406 132.515C235.406 133.567 235.661 134.523 236.17 135.383C236.696 136.227 237.404 136.905 238.295 137.414C239.203 137.908 240.214 138.155 241.328 138.155C241.869 138.155 242.363 138.084 242.808 137.94C243.27 137.797 243.676 137.582 244.026 137.295C244.376 137.008 244.663 136.674 244.886 136.291C244.87 137.311 244.711 138.187 244.408 138.92C244.122 139.637 243.716 140.187 243.19 140.569C242.665 140.951 242.044 141.143 241.328 141.143C240.627 141.143 239.975 140.975 239.37 140.641C238.765 140.29 238.272 139.82 237.89 139.231L236.051 141.238C236.672 142.099 237.436 142.768 238.343 143.246C239.251 143.708 240.23 143.939 241.28 143.939C242.617 143.939 243.779 143.572 244.766 142.839C245.753 142.106 246.509 141.031 247.035 139.613C247.576 138.179 247.847 136.435 247.847 134.379C247.847 132.738 247.592 131.344 247.082 130.197C246.573 129.034 245.849 128.15 244.91 127.544C243.986 126.923 242.888 126.612 241.614 126.612C240.452 126.612 239.402 126.875 238.463 127.401C237.523 127.911 236.775 128.612 236.218 129.504C235.677 130.396 235.406 131.4 235.406 132.515ZM241.591 129.289C242.164 129.289 242.681 129.44 243.143 129.743C243.62 130.046 244.002 130.436 244.289 130.914C244.591 131.392 244.742 131.926 244.742 132.515C244.742 133.073 244.599 133.591 244.313 134.069C244.026 134.531 243.644 134.905 243.166 135.192C242.705 135.463 242.188 135.598 241.614 135.598C241.041 135.598 240.516 135.463 240.039 135.192C239.561 134.905 239.179 134.531 238.892 134.069C238.622 133.591 238.486 133.065 238.486 132.491C238.486 131.918 238.63 131.392 238.916 130.914C239.203 130.42 239.577 130.03 240.039 129.743C240.516 129.44 241.033 129.289 241.591 129.289Z" fill="#FF715E"/>
<circle cx="199.539" cy="140.173" r="68.2722" stroke="#FF715E" stroke-width="5"/>
</svg>
