<svg width="296" height="235" viewBox="0 0 296 235" fill="none" xmlns="http://www.w3.org/2000/svg">
<g clip-path="url(#clip0_0_1835)">
<path d="M278.724 234.461H48.5646C43.9824 234.46 39.5881 232.642 36.3483 229.405C33.1086 226.168 31.2886 221.779 31.2886 217.203V59.3755H296V217.203C296.001 219.469 295.554 221.713 294.686 223.807C293.818 225.901 292.546 227.804 290.941 229.406C289.337 231.009 287.432 232.28 285.336 233.148C283.24 234.015 280.993 234.461 278.724 234.461Z" fill="#ECF1FF"/>
<path d="M104.158 213.968L228.146 213.968C229.566 213.968 230.717 212.818 230.717 211.4V187.907C230.717 186.489 229.566 185.339 228.146 185.339H104.158C102.738 185.339 101.587 186.489 101.587 187.907V211.4C101.587 212.818 102.738 213.968 104.158 213.968Z" fill="white"/>
<path d="M104.158 179.117L228.146 179.117C229.566 179.117 230.717 177.967 230.717 176.549V153.056C230.717 151.637 229.566 150.488 228.146 150.488H104.158C102.738 150.488 101.587 151.637 101.587 153.056V176.549C101.587 177.967 102.738 179.117 104.158 179.117Z" fill="white"/>
<path d="M172.488 203.672C174.709 203.672 176.51 201.874 176.51 199.655C176.51 197.437 174.709 195.639 172.488 195.639C170.267 195.639 168.467 197.437 168.467 199.655C168.467 201.874 170.267 203.672 172.488 203.672Z" fill="#376EFF"/>
<path d="M158.516 203.672C160.738 203.672 162.538 201.874 162.538 199.655C162.538 197.437 160.738 195.639 158.516 195.639C156.295 195.639 154.495 197.437 154.495 199.655C154.495 201.874 156.295 203.672 158.516 203.672Z" fill="#376EFF"/>
<path d="M144.545 203.672C146.766 203.672 148.566 201.874 148.566 199.655C148.566 197.437 146.766 195.639 144.545 195.639C142.324 195.639 140.523 197.437 140.523 199.655C140.523 201.874 142.324 203.672 144.545 203.672Z" fill="#376EFF"/>
<path d="M130.573 203.672C132.794 203.672 134.595 201.874 134.595 199.655C134.595 197.437 132.794 195.639 130.573 195.639C128.352 195.639 126.552 197.437 126.552 199.655C126.552 201.874 128.352 203.672 130.573 203.672Z" fill="#376EFF"/>
<path d="M116.602 203.672C118.823 203.672 120.623 201.874 120.623 199.655C120.623 197.437 118.823 195.639 116.602 195.639C114.381 195.639 112.58 197.437 112.58 199.655C112.58 201.874 114.381 203.672 116.602 203.672Z" fill="#376EFF"/>
<path d="M204.07 160.783H113.965C113.2 160.783 112.58 161.403 112.58 162.167V167.433C112.58 168.197 113.2 168.816 113.965 168.816H204.07C204.835 168.816 205.455 168.197 205.455 167.433V162.167C205.455 161.403 204.835 160.783 204.07 160.783Z" fill="#376EFF"/>
<path d="M283.752 39.6221H43.5367C40.2883 39.6221 37.1729 40.9109 34.8759 43.205C32.579 45.4991 31.2886 48.6106 31.2886 51.855V59.4446H296V51.855C296 48.6106 294.71 45.4991 292.413 43.205C290.116 40.9109 287 39.6221 283.752 39.6221Z" fill="#376EFF"/>
<path d="M281.442 52.9782C283.348 52.9782 284.893 51.435 284.893 49.5313C284.893 47.6277 283.348 46.0845 281.442 46.0845C279.536 46.0845 277.991 47.6277 277.991 49.5313C277.991 51.435 279.536 52.9782 281.442 52.9782Z" fill="#EFEEFE"/>
<path d="M267.03 52.9782C268.936 52.9782 270.481 51.435 270.481 49.5313C270.481 47.6277 268.936 46.0845 267.03 46.0845C265.124 46.0845 263.579 47.6277 263.579 49.5313C263.579 51.435 265.124 52.9782 267.03 52.9782Z" fill="#EFEEFE"/>
<path d="M252.618 52.9782C254.524 52.9782 256.069 51.435 256.069 49.5313C256.069 47.6277 254.524 46.0845 252.618 46.0845C250.712 46.0845 249.167 47.6277 249.167 49.5313C249.167 51.435 250.712 52.9782 252.618 52.9782Z" fill="#EFEEFE"/>
<path d="M162.485 136.651C180.789 136.651 195.628 121.831 195.628 103.55C195.628 85.2687 180.789 70.4487 162.485 70.4487C144.181 70.4487 129.343 85.2687 129.343 103.55C129.343 121.831 144.181 136.651 162.485 136.651Z" fill="#EFEEFE"/>
<path d="M162.485 136.651C180.789 136.651 195.628 121.831 195.628 103.55C195.628 85.2687 180.789 70.4487 162.485 70.4487C144.181 70.4487 129.343 85.2687 129.343 103.55C129.343 121.831 144.181 136.651 162.485 136.651Z" fill="white"/>
<path d="M162.481 136.651C167.966 136.654 173.366 135.297 178.196 132.7C183.026 130.103 187.134 126.348 190.151 121.773C187.461 116.784 183.467 112.615 178.595 109.711C173.724 106.806 168.155 105.273 162.481 105.275C156.808 105.274 151.24 106.806 146.368 109.711C141.497 112.616 137.505 116.784 134.815 121.773C137.831 126.348 141.939 130.102 146.768 132.699C151.597 135.296 156.996 136.654 162.481 136.651Z" fill="#FF806E"/>
<path d="M171.514 98.2995C176.501 93.3188 176.501 85.2436 171.514 80.2629C166.527 75.2823 158.442 75.2823 153.455 80.2629C148.468 85.2436 148.468 93.3189 153.455 98.2995C158.442 103.28 166.527 103.28 171.514 98.2995Z" fill="#FF806E"/>
<path d="M97.2057 10.8551C87.6657 10.4773 78.1888 9.13431 68.9201 6.84666C62.2424 5.19819 55.6946 3.06273 49.3297 0.45752C42.8626 2.79527 36.2334 4.65865 29.4948 6.03276C20.1394 7.93929 10.6147 8.89372 1.06659 8.8814C0.0194269 15.2949 -3.884 43.7162 14.5574 69.6878C25.7706 85.4815 40.0927 93.1118 47.4187 96.3755C54.8751 93.4129 69.5028 86.3808 81.3557 71.0673C100.856 45.8731 98.1265 17.3134 97.3483 10.8632" fill="#FF715E"/>
<path d="M88.6613 10.2528C82.0084 9.58659 75.4113 8.44833 68.9201 6.84666C62.2424 5.19819 55.6946 3.06273 49.3297 0.45752C42.8626 2.79527 36.2334 4.65865 29.4948 6.03276C20.1394 7.93929 10.6147 8.89372 1.06659 8.8814C0.0194269 15.2949 -3.884 43.7162 14.5574 69.6878C20.9003 78.5749 29.0141 86.0565 38.3895 91.663C45.8581 88.6923 60.4491 81.6602 72.2816 66.3712C88.9751 44.8028 89.3784 20.7765 88.6613 10.2528Z" fill="#FF715E"/>
<path d="M30.7303 38.1045L48.471 56.5678L67.2017 38.6172" stroke="white" stroke-width="8.58" stroke-linecap="round" stroke-linejoin="round"/>
</g>
<defs>
<clipPath id="clip0_0_1835">
<rect width="296" height="234" fill="white" transform="translate(0 0.45752)"/>
</clipPath>
</defs>
</svg>
