<svg width="411" height="268" viewBox="0 0 411 268" fill="none" xmlns="http://www.w3.org/2000/svg">
<g clip-path="url(#clip0_0_1931)">
<path d="M406.11 104.754C402.056 74.7396 391.703 42.8061 368.745 21.7535C340.495 -4.15288 301.626 -2.99412 266.545 5.26207C227.336 14.4901 191.003 28.3759 149.968 26.6866C114.856 25.2416 78.4745 19.477 46.6997 38.2732C-16.6129 75.7269 -9.11857 166.787 30.9877 218.366C54.2378 248.265 95.7335 258.63 131.672 263.075C172.054 268.072 214.069 267.618 254.658 265.567C295.109 263.523 356.917 263.732 386.579 232.753C418.479 199.444 412.081 148.93 406.11 104.754Z" fill="#ECF1FF"/>
<path d="M333.19 201.454C329.191 203.043 319.798 209.004 315.741 210.448C311.878 211.824 310.639 215.28 308.218 211.907C305.707 208.4 310.092 207.056 311.862 206.796C318.777 205.782 324.919 202.712 331.541 200.282C332.149 200.06 333.351 199.553 334.724 199.049C335.682 197.672 336.627 196.231 337.559 194.726C337.958 194.082 341.952 185.57 342.312 184.917C339.785 187.05 332.359 193.384 329.831 194.913C323.762 198.587 315.698 203.1 309.222 201.534C308.108 201.26 306.793 199.658 307.281 198.155C307.754 196.697 310.378 195.92 311.666 195.511C317.679 193.586 322.333 193.667 328.308 191.443C333.891 189.365 338.617 185.882 342.999 182.01C343.849 178.819 344.488 173.664 344.754 170.507C340.077 173.671 334.046 177.243 329.276 180.268C325.232 182.833 321.988 185.538 317.197 185.282C314.249 185.123 313.595 183.454 315.631 180.547C318.384 176.618 321.386 178.283 325.626 176.723C331.741 174.471 338.958 170.137 344.859 167.407C344.868 165.183 344.768 163.002 344.578 160.884C342.181 162.542 339.673 163.989 336.822 164.728C333.558 165.572 328.848 166.659 325.875 165.484C322.044 163.972 328.035 161.108 329.855 160.533C331.674 159.958 333.535 159.558 335.321 158.818C337.496 157.916 339.512 156.648 341.583 155.522C342.181 155.197 342.926 154.765 343.725 154.35C341.691 142.527 337.631 134.019 337.631 134.019C337.631 134.019 328.849 135.821 317.714 140.252C317.958 142.027 318.383 143.765 318.674 145.524C319.012 147.568 319.3 149.678 319.121 151.814C319.002 153.219 319.038 154.564 318.256 155.917C317.217 155.225 316.051 154.752 315.227 153.801C314.201 152.616 313.356 150.884 312.99 149.37C312.553 147.561 312.235 145.78 311.593 144.05C311.458 143.719 311.306 143.395 311.137 143.08C308.482 144.309 305.772 145.676 303.076 147.197C302.126 150.534 301.788 153.839 302.325 157.325C302.914 161.154 304.216 164.747 305.22 168.437C305.807 170.591 307.224 174.41 305.535 176.755C302.411 181.094 298.814 174.175 298.487 171.509C298.234 169.452 298.056 164.808 297.934 162.78C297.628 157.725 297.479 157.024 297.473 154.774C297.482 153.433 297.404 152.093 297.239 150.762C293.803 153.042 290.487 155.583 287.451 158.42C287.729 158.976 287.101 160.846 286.991 161.41C285.646 168.252 286.182 169.442 287.768 175.95C288.1 177.318 296.655 190.993 292.898 191.313C291.081 191.465 289.455 189.25 288.599 188.176C286.681 185.768 285.256 182.997 283.991 180.204C282.181 176.205 281.976 167.018 283.809 161.635C283.48 162.124 278.66 168.837 278.35 169.341C276.141 172.914 274.342 176.325 272.914 179.569C274.736 182.776 276.444 186.084 278.634 189.04C280.774 191.929 284.125 193.892 285.117 197.519C285.445 198.714 285.875 201.068 284.48 202.14C283.034 203.252 281.122 201.776 280.181 201.061C276.015 197.897 274.131 187.259 271.494 182.868C262.565 201.036 272.222 215.067 283.914 220.261L280.204 231.671L281.256 234.285C281.256 234.285 286.8 224.796 288.303 221.862C300.83 225.633 316.169 222.715 333.19 201.454Z" fill="#FFA296"/>
<path d="M114.806 218.855C120.65 224.304 118.808 228.124 114.812 230.036C111.582 231.586 107.801 231.449 104.632 229.781C93.3216 223.826 78.3394 210.694 76.6986 208.986C76.5091 208.791 76.3226 208.595 76.1392 208.397C72.5861 204.591 69.7618 200.506 67.6546 196.988C67.5279 196.777 67.404 196.566 67.281 196.358L67.2719 196.343L67.2373 196.284C65.7431 193.745 64.4085 191.117 63.2414 188.412C63.0802 188.032 63 187.826 63 187.826C63 187.826 63.3344 187.861 63.9384 187.931C66.6652 188.243 74.8965 189.24 82.8764 190.741C83.1364 190.789 83.3948 190.838 83.6517 190.888C88.5987 191.84 93.3763 192.985 96.6033 194.279C96.6104 194.293 96.6183 194.307 96.6269 194.321C96.6853 194.43 96.7436 194.54 96.8028 194.648L97.0068 195.022L97.2009 195.368L97.2255 195.414C97.2865 195.521 97.3467 195.63 97.4077 195.737C97.5608 196.01 97.7175 196.279 97.8751 196.55C97.9234 196.636 97.9735 196.721 98.0236 196.806L98.275 197.231C98.4645 197.55 98.6559 197.869 98.8508 198.184L98.91 198.284C103.442 205.66 109.339 212.858 114.806 218.855Z" fill="#FFA296"/>
<path d="M130.493 222.476C124.946 221.108 119.701 219.897 114.806 218.855C109.34 212.858 103.442 205.661 98.911 198.284L98.8518 198.185C98.6568 197.867 98.4655 197.547 98.276 197.231L98.0245 196.806C97.9744 196.722 97.9243 196.636 97.876 196.55C97.7184 196.277 97.5617 196.01 97.4087 195.737C97.3476 195.63 97.2875 195.522 97.2265 195.414L97.2019 195.369L97.0078 195.022L96.8037 194.648C96.7445 194.54 96.6862 194.431 96.6279 194.321C96.6193 194.308 96.6114 194.294 96.6042 194.279C96.3783 193.86 96.1581 193.44 95.9437 193.02C93.0958 187.443 91.6098 181.406 90.953 175.577C90.9174 175.259 90.8837 174.939 90.8527 174.625C90.256 168.517 90.5457 162.682 91.1051 157.895C91.1379 157.605 91.1734 157.321 91.2081 157.039V157.012L91.2172 156.937C91.8549 151.952 92.7487 148.232 93.1413 146.739C93.2634 146.269 93.3381 146.019 93.3381 146.019C93.3381 146.019 93.626 146.293 94.1453 146.796C96.4885 149.06 103.523 155.94 109.957 163.109C110.166 163.34 110.375 163.574 110.582 163.806C115.137 168.925 119.298 174.116 121.15 177.816C121.598 178.731 121.995 179.67 122.34 180.629C122.46 180.958 122.578 181.298 122.698 181.648C125.444 189.733 127.799 203.338 129.181 212.417C129.239 212.806 129.297 213.187 129.352 213.559C130.081 218.406 130.491 221.704 130.491 221.704L130.493 222.476Z" fill="#FFA296"/>
<path d="M288.794 236.751C282.803 221.151 274.082 205.876 262.864 193.087C265.628 187.267 266.607 180.597 265.233 174.296C263.488 166.316 258.533 159.449 255.597 151.828C255.261 150.957 254.959 150.082 254.673 149.202L251.811 130.89C251.3 116.182 253.716 100.88 250.855 86.3729C249.521 79.6019 247.053 73.1152 244.591 66.6669C242.64 61.5615 240.639 56.3704 237.32 52.0253C232.429 45.6235 225.133 41.612 218.056 37.783L218.147 38.2799C214.428 36.7622 210.503 35.8096 206.502 35.4536C199.07 31.2599 189.757 29.6517 178.897 35.0844C171.123 38.1841 163.698 42.3396 157.605 48.0695C151.127 54.1623 146.217 62.145 144.769 70.9226C143.245 80.148 145.555 89.6185 144.638 98.9231C143.858 106.682 140.871 114.054 136.03 120.165C132.568 124.521 128.117 128.314 126.201 133.541C123.206 141.705 124.262 151.518 128.349 159.193C133.254 168.401 139.297 170.287 134.096 187.532C120.977 201.26 111.789 219.491 105.794 237.05C104.163 241.828 107.716 246.792 112.76 246.792H281.935C287.113 246.787 290.65 241.588 288.794 236.751Z" fill="#2D3750"/>
<path d="M207.131 97.6123C206.898 90.5012 202.225 85.7732 194.459 86.0285C188.379 86.229 183.484 89.4655 179.244 94.3083L169.262 85.7723C175.725 77.9619 184.784 72.1764 196.101 71.8044C211.812 71.2875 223.291 79.5327 223.826 95.8564C224.456 115.012 201.263 122.589 204.007 141.916L188.782 142.416C184.926 120.533 207.579 111.226 207.131 97.6123ZM186.086 165.057C185.863 158.25 190.574 153.091 196.895 152.883C203.216 152.675 208.255 157.514 208.478 164.32C208.698 171.007 203.986 176.167 197.666 176.374C191.345 176.582 186.307 171.743 186.087 165.054L186.086 165.057Z" fill="#FF715E"/>
</g>
<defs>
<clipPath id="clip0_0_1931">
<rect width="411" height="267" fill="white" transform="translate(0 0.0195312)"/>
</clipPath>
</defs>
</svg>
