<svg width="655" height="767" viewBox="0 0 655 767" fill="none" xmlns="http://www.w3.org/2000/svg">
<path d="M391.001 475.424H390.301V546.009H391.001V475.424Z" fill="white" stroke="white"/>
<path d="M299.42 318.33C302.839 314.912 302.839 309.37 299.42 305.951C296.001 302.533 290.457 302.533 287.038 305.951C283.618 309.37 283.618 314.912 287.038 318.33C290.457 321.748 296.001 321.748 299.42 318.33Z" fill="white" stroke="white"/>
<path d="M396.84 481.614C400.259 478.196 400.259 472.654 396.84 469.236C393.421 465.817 387.877 465.817 384.458 469.236C381.038 472.654 381.038 478.196 384.458 481.614C387.877 485.032 393.421 485.032 396.84 481.614Z" fill="white" stroke="white"/>
<path d="M187.503 422.552C190.018 422.552 192.056 420.514 192.056 418.001C192.056 415.487 190.018 413.449 187.503 413.449C184.989 413.449 182.951 415.487 182.951 418.001C182.951 420.514 184.989 422.552 187.503 422.552Z" fill="white" stroke="white"/>
<path d="M212.723 422.552C215.237 422.552 217.275 420.514 217.275 418.001C217.275 415.487 215.237 413.449 212.723 413.449C210.208 413.449 208.17 415.487 208.17 418.001C208.17 420.514 210.208 422.552 212.723 422.552Z" fill="white" stroke="white"/>
<path d="M260.93 212.845C263.253 211.883 264.356 209.221 263.394 206.898C262.432 204.576 259.769 203.473 257.446 204.435C255.123 205.397 254.02 208.059 254.982 210.382C255.944 212.704 258.607 213.807 260.93 212.845Z" fill="white" stroke="white"/>
<path d="M87.3309 314.009C89.8454 314.009 91.8838 311.972 91.8838 309.458C91.8838 306.944 89.8454 304.907 87.3309 304.907C84.8165 304.907 82.7781 306.944 82.7781 309.458C82.7781 311.972 84.8165 314.009 87.3309 314.009Z" fill="white" stroke="white"/>
<path d="M41.103 368.349C43.6175 368.349 45.6559 366.312 45.6559 363.798C45.6559 361.284 43.6175 359.247 41.103 359.247C38.5886 359.247 36.5502 361.284 36.5502 363.798C36.5502 366.312 38.5886 368.349 41.103 368.349Z" fill="white" stroke="white"/>
<path d="M390.651 550.705C393.165 550.705 395.203 548.667 395.203 546.153C395.203 543.64 393.165 541.602 390.651 541.602C388.136 541.602 386.098 543.64 386.098 546.153C386.098 548.667 388.136 550.705 390.651 550.705Z" fill="white" stroke="white"/>
<path d="M346.347 20.5911C346.752 18.1103 345.069 15.771 342.587 15.3661C340.106 14.9611 337.766 16.644 337.361 19.1248C336.956 21.6056 338.639 23.9449 341.121 24.3499C343.602 24.7548 345.942 23.0719 346.347 20.5911Z" fill="white" stroke="white"/>
<path d="M58.9166 6.92119C59.3217 4.44038 57.6383 2.10104 55.1567 1.69613C52.6751 1.29121 50.335 2.97406 49.9299 5.45487C49.5249 7.93568 51.2083 10.275 53.6899 10.6799C56.1715 11.0849 58.5116 9.402 58.9166 6.92119Z" fill="white" stroke="white"/>
<path d="M12.6597 256.307C13.0648 253.827 11.3814 251.487 8.89975 251.082C6.41813 250.677 4.07802 252.36 3.67298 254.841C3.26793 257.322 4.95132 259.661 7.43294 260.066C9.91456 260.471 12.2547 258.788 12.6597 256.307Z" fill="white" stroke="white"/>
<path d="M59.1023 42.9022C59.5074 40.4213 57.824 38.082 55.3424 37.6771C52.8608 37.2722 50.5207 38.955 50.1156 41.4358C49.7106 43.9166 51.394 46.256 53.8756 46.6609C56.3572 47.0658 58.6973 45.383 59.1023 42.9022Z" fill="white" stroke="white"/>
<path d="M198.885 539.745C203.576 538.488 206.359 533.668 205.102 528.979C203.845 524.29 199.023 521.508 194.332 522.765C189.642 524.022 186.859 528.842 188.116 533.531C189.373 538.22 194.195 541.002 198.885 539.745Z" fill="white" stroke="white"/>
<path d="M328.097 581.7C329.903 581.216 330.975 579.36 330.491 577.554C330.006 575.748 328.15 574.677 326.343 575.161C324.536 575.645 323.465 577.501 323.949 579.307C324.433 581.113 326.29 582.184 328.097 581.7Z" fill="white" stroke="white"/>
<path d="M291.789 643.015C293.595 642.531 294.667 640.674 294.183 638.869C293.699 637.063 291.842 635.991 290.035 636.475C288.229 636.959 287.157 638.816 287.641 640.621C288.125 642.427 289.982 643.499 291.789 643.015Z" fill="white" stroke="white"/>
<path d="M37.4238 656.573C39.2303 656.089 40.3022 654.233 39.818 652.427C39.3338 650.621 37.4768 649.549 35.6703 650.033C33.8638 650.517 32.7918 652.374 33.276 654.18C33.7603 655.985 35.6173 657.057 37.4238 656.573Z" fill="white" stroke="white"/>
<path d="M87.2183 371.671C90.6376 368.252 90.6376 362.71 87.2183 359.292C83.799 355.874 78.2553 355.874 74.836 359.292C71.4168 362.71 71.4167 368.252 74.836 371.671C78.2553 375.089 83.799 375.089 87.2183 371.671Z" fill="white" stroke="white"/>
<path d="M280.387 271.504C279.211 271.489 278.036 271.416 276.861 271.288L276.936 270.59C278.078 270.716 279.243 270.789 280.395 270.802L280.387 271.504ZM283.918 271.376L283.858 270.677C285.01 270.579 286.157 270.424 287.293 270.212L287.421 270.901C286.269 271.115 285.091 271.275 283.918 271.376ZM273.371 270.724C272.222 270.478 271.072 270.175 269.954 269.817L270.166 269.149C271.263 269.499 272.389 269.799 273.515 270.039L273.371 270.724ZM290.872 270.081L290.676 269.41C291.786 269.088 292.879 268.708 293.951 268.274L294.212 268.924C293.115 269.368 291.996 269.754 290.859 270.081H290.872ZM266.658 268.575C265.575 268.106 264.517 267.583 263.487 267.008L263.829 266.397C264.838 266.96 265.875 267.473 266.935 267.932L266.658 268.575ZM297.42 267.441L297.096 266.822C298.115 266.287 299.118 265.697 300.082 265.062L300.468 265.647C299.47 266.295 298.447 266.898 297.407 267.441H297.42ZM260.488 265.138C259.524 264.467 258.581 263.741 257.688 262.979L258.143 262.456C259.02 263.206 259.942 263.916 260.888 264.574L260.488 265.138ZM303.326 263.571L302.884 263.028C303.78 262.305 304.648 261.527 305.468 260.717L305.959 261.216C305.105 262.031 304.219 262.825 303.308 263.561L303.326 263.571ZM255.12 260.569C254.305 259.723 253.524 258.827 252.796 257.905L253.347 257.472C254.06 258.375 254.825 259.255 255.625 260.083L255.12 260.569ZM308.351 258.613L307.811 258.166C308.547 257.278 309.247 256.338 309.9 255.393L310.48 255.787C309.799 256.748 309.083 257.699 308.333 258.602L308.351 258.613ZM250.745 255.025C250.113 254.038 249.523 253.004 248.99 251.959L249.614 251.641C250.137 252.667 250.714 253.68 251.336 254.649L250.745 255.025ZM312.288 252.764L311.671 252.432C312.22 251.419 312.716 250.367 313.168 249.299L313.813 249.56C313.359 250.653 312.85 251.722 312.288 252.764ZM247.53 248.732C247.104 247.64 246.731 246.512 246.414 245.379L247.091 245.191C247.399 246.305 247.764 247.402 248.183 248.479L247.53 248.732ZM315.015 246.251L314.344 246.048C314.681 244.946 314.965 243.815 315.19 242.69L315.877 242.825C315.647 243.964 315.357 245.118 315.015 246.236V246.251ZM245.641 241.932C245.44 240.778 245.297 239.598 245.21 238.426L245.91 238.373C245.994 239.525 246.135 240.682 246.331 241.812L245.641 241.932ZM316.397 239.321L315.699 239.251C315.809 238.107 315.866 236.945 315.866 235.791H316.566C316.566 236.966 316.509 238.154 316.397 239.321ZM245.827 234.9L245.127 234.882C245.155 233.704 245.244 232.532 245.388 231.36L246.083 231.446C245.942 232.584 245.855 233.746 245.827 234.9ZM315.83 234.117C315.775 232.966 315.663 231.806 315.495 230.67L316.19 230.568C316.36 231.728 316.475 232.919 316.53 234.086L315.83 234.117ZM246.681 228.041L245.999 227.887C246.259 226.74 246.577 225.607 246.95 224.492L247.613 224.714C247.248 225.785 246.934 226.913 246.678 228.033L246.681 228.041ZM314.824 227.27C314.545 226.155 314.205 225.04 313.816 223.957L314.474 223.722C314.871 224.826 315.219 225.965 315.503 227.101L314.824 227.27ZM248.872 221.476L248.235 221.189C248.716 220.118 249.256 219.061 249.841 218.04L250.447 218.39C249.873 219.379 249.343 220.419 248.87 221.468L248.872 221.476ZM312.484 220.761C311.987 219.716 311.439 218.695 310.841 217.711L311.439 217.348C312.048 218.353 312.612 219.4 313.116 220.458L312.484 220.761ZM252.32 215.473L251.751 215.068C252.433 214.113 253.169 213.18 253.945 212.295L254.467 212.757C253.71 213.616 252.986 214.53 252.318 215.465L252.32 215.473ZM308.903 214.839C308.213 213.917 307.469 213.011 306.69 212.17L307.213 211.697C307.996 212.564 308.764 213.478 309.469 214.418L308.903 214.839ZM256.876 210.256L256.398 209.734C257.256 208.925 258.155 208.161 259.091 207.444L259.517 208C258.608 208.713 257.717 209.467 256.876 210.256ZM304.224 209.734C303.368 208.963 302.461 208.23 301.534 207.548L301.949 206.984C302.895 207.679 303.817 208.428 304.695 209.211L304.224 209.734ZM262.366 206.049L261.995 205.456C262.993 204.835 264.035 204.258 265.088 203.738L265.396 204.368C264.372 204.864 263.346 205.43 262.366 206.039V206.049ZM298.642 205.642C297.65 205.054 296.618 204.511 295.576 204.028L295.871 203.391C296.934 203.884 297.987 204.435 299.006 205.039L298.642 205.642ZM268.578 202.994L268.332 202.339C269.436 201.925 270.559 201.568 271.699 201.268L271.879 201.944C270.767 202.226 269.657 202.582 268.578 202.984V202.994ZM292.363 202.733C291.274 202.354 290.156 202.025 289.038 201.756L289.203 201.077C290.35 201.351 291.484 201.682 292.598 202.07L292.363 202.733ZM275.27 201.234L275.16 200.542C276.317 200.357 277.511 200.229 278.673 200.158L278.715 200.858C277.561 200.921 276.412 201.041 275.27 201.218V201.234ZM285.632 201.119C284.487 200.962 283.336 200.861 282.181 200.819L282.207 200.119C283.38 200.164 284.558 200.265 285.728 200.425L285.632 201.119Z" fill="white" stroke="white"/>
<path d="M36.0902 582.214C34.9122 582.199 33.7263 582.126 32.564 581.998L32.6502 581.313C33.7916 581.439 34.954 581.509 36.1085 581.525L36.0902 582.214ZM39.6217 582.086L39.5616 581.389C40.7137 581.292 41.8601 581.137 42.9965 580.924L43.1245 581.614C41.9726 581.836 40.7945 581.987 39.6217 582.097V582.086ZM29.0742 581.436C27.9209 581.19 26.7807 580.887 25.6577 580.527L25.8693 579.862C26.9698 580.214 28.0875 580.51 29.2179 580.749L29.0742 581.436ZM46.575 580.794L46.3765 580.123C47.484 579.799 48.5863 579.418 49.652 578.987L49.9132 579.637C48.8162 580.076 47.6904 580.465 46.5646 580.791L46.575 580.794ZM22.3587 579.287C21.2799 578.82 20.2141 578.292 19.1876 577.72L19.5298 577.109C20.5388 577.673 21.5753 578.185 22.6355 578.645L22.3587 579.287ZM53.1208 578.154L52.7969 577.532C53.8156 577.01 54.8213 576.407 55.7825 575.775L56.1587 576.352C55.1765 577.005 54.1526 577.608 53.1104 578.154H53.1208ZM16.189 575.848C15.2251 575.18 14.2848 574.454 13.3889 573.691L13.8433 573.169C14.721 573.919 15.6457 574.629 16.5886 575.284L16.189 575.848ZM59.0267 574.281L58.5853 573.736C59.4786 573.012 60.3484 572.237 61.1686 571.427L61.644 571.913C60.8081 572.743 59.9226 573.535 59.011 574.263L59.0267 574.281ZM10.8212 571.276C10.0062 570.433 9.22523 569.537 8.49647 568.615L9.04761 568.182C9.7607 569.085 10.5286 569.963 11.3253 570.793L10.8212 571.276ZM64.034 569.302L63.4959 568.855C64.2389 567.968 64.9363 567.043 65.5856 566.085L66.1654 566.477C65.5031 567.454 64.7917 568.397 64.034 569.302ZM6.43033 565.717C5.79821 564.727 5.20788 563.696 4.67503 562.649L5.29931 562.333C5.82172 563.359 6.4016 564.369 7.02066 565.341L6.43033 565.717ZM67.9913 563.455L67.3748 563.121C67.9256 562.103 68.4243 561.057 68.8689 559.988L69.5167 560.249C69.0648 561.359 68.5503 562.432 67.9913 563.466V563.455ZM3.23317 559.424C2.80741 558.33 2.43388 557.202 2.11782 556.071L2.79435 555.883C3.1028 556.996 3.46721 558.094 3.88619 559.17L3.23317 559.424ZM70.7156 556.943L70.047 556.737C70.3851 555.632 70.6675 554.512 70.8933 553.379L71.5802 553.517C71.3504 554.679 71.0604 555.831 70.7156 556.953V556.943ZM1.34205 552.622C1.14353 551.467 0.999864 550.287 0.913666 549.115L1.6137 549.065C1.69623 550.218 1.83659 551.365 2.03424 552.504L1.34205 552.622ZM72.1 550.01L71.4026 549.942C71.5123 548.799 71.5698 547.634 71.5698 546.483H72.2698C72.2698 547.678 72.2124 548.867 72.0922 550.031L72.1 550.01ZM1.53011 545.59L0.830078 545.574C0.858811 544.399 0.947621 543.224 1.09128 542.049L1.78609 542.135C1.64504 543.297 1.56668 544.459 1.53011 545.61V545.59ZM71.5332 544.806C71.4784 543.655 71.3661 542.495 71.1989 541.357L71.8937 541.258C72.0635 542.414 72.1784 543.608 72.2332 544.772L71.5332 544.806ZM2.38164 538.751L1.6999 538.597C1.95951 537.45 2.27684 536.317 2.65068 535.202L3.31415 535.424C2.95107 536.497 2.63762 537.62 2.38164 538.751ZM70.525 537.967C70.2455 536.852 69.9059 535.737 69.5167 534.654L70.1749 534.416C70.572 535.521 70.9194 536.659 71.2041 537.811L70.525 537.967ZM4.57316 532.173L3.93582 531.886C4.41644 530.815 4.95713 529.758 5.54223 528.737L6.14823 529.087C5.57619 530.095 5.04594 531.131 4.57316 532.181V532.173ZM68.1741 531.463C67.6778 530.418 67.1293 529.4 66.5285 528.413L67.1293 528.045C67.7404 529.053 68.3001 530.091 68.8062 531.155L68.1741 531.463ZM8.01063 526.178L7.44119 525.77C8.12294 524.817 8.86216 523.883 9.63533 523L10.1577 523.462C9.40021 524.331 8.68708 525.237 8.02107 526.178H8.01063ZM64.593 525.541C63.9008 524.619 63.1564 523.713 62.3806 522.875L62.903 522.399C63.6866 523.264 64.4545 524.18 65.1598 525.12L64.593 525.541ZM12.5791 520.968L12.1011 520.446C12.9579 519.642 13.8616 518.879 14.7941 518.156L15.2199 518.712C14.3083 519.428 13.4202 520.18 12.5791 520.968ZM59.9279 520.446C59.0711 519.676 58.1647 518.94 57.2374 518.261L57.6528 517.697C58.5983 518.389 59.5204 519.138 60.3954 519.924L59.9279 520.446ZM18.0697 516.762L17.6987 516.166C18.6992 515.545 19.7388 514.968 20.7888 514.451L21.0996 515.08C20.0705 515.576 19.0492 516.14 18.0697 516.751V516.762ZM54.3459 516.352C53.3507 515.764 52.3189 515.224 51.2793 514.738L51.5719 514.104C52.635 514.597 53.6877 515.148 54.7064 515.749L54.3459 516.352ZM24.2916 513.696L24.046 513.038C25.1431 512.631 26.2767 512.271 27.413 511.968L27.5932 512.647C26.4756 512.94 25.3736 513.291 24.2916 513.696ZM48.077 513.435C46.993 513.059 45.875 512.73 44.7518 512.461L44.9138 511.78C46.0605 512.041 47.2019 512.391 48.3094 512.774L48.077 513.435ZM30.9837 511.939L30.8713 511.247C32.0285 511.062 33.2222 510.931 34.3846 510.86L34.4263 511.56C33.2666 511.623 32.1068 511.748 30.9732 511.931L30.9837 511.939ZM41.3457 511.821C40.2094 511.667 39.0471 511.56 37.8952 511.521L37.9213 510.821C39.0967 510.866 40.2721 510.97 41.4423 511.129L41.3457 511.821Z" fill="white" stroke="white"/>
<path d="M390.546 582.214C389.371 582.199 388.182 582.126 387.02 581.998L387.096 581.303C388.237 581.428 389.402 581.499 390.554 581.515L390.546 582.214ZM394.078 582.086L394.02 581.389C395.171 581.292 396.317 581.137 397.452 580.924L397.58 581.614C396.429 581.836 395.25 581.987 394.078 582.097V582.086ZM383.53 581.436C382.377 581.191 381.237 580.887 380.114 580.527L380.325 579.859C381.426 580.213 382.545 580.51 383.676 580.749L383.53 581.436ZM401.031 580.794L400.835 580.123C401.94 579.799 403.042 579.418 404.108 578.987L404.369 579.637C403.272 580.076 402.149 580.465 401.021 580.791L401.031 580.794ZM376.815 579.285C375.732 578.816 374.674 578.293 373.644 577.718L373.986 577.107C374.995 577.669 376.031 578.181 377.092 578.64L376.815 579.285ZM407.579 578.154L407.253 577.532C408.274 577.01 409.277 576.407 410.238 575.775L410.615 576.352C409.632 577.005 408.609 577.608 407.569 578.154H407.579ZM370.645 575.848C369.681 575.18 368.738 574.454 367.845 573.691L368.299 573.169C369.177 573.916 370.099 574.629 371.045 575.284L370.645 575.848ZM413.483 574.281L413.041 573.736C413.935 573.012 414.804 572.234 415.625 571.427L416.1 571.913C415.267 572.743 414.381 573.535 413.47 574.263L413.483 574.281ZM365.275 571.276C364.456 570.428 363.68 569.539 362.95 568.613L363.501 568.179C364.214 569.085 364.982 569.963 365.779 570.79L365.275 571.276ZM418.506 569.32L417.968 568.874C418.704 567.988 419.404 567.046 420.057 566.103L420.637 566.495C419.958 567.458 419.234 568.409 418.493 569.302L418.506 569.32ZM360.899 565.735C360.267 564.745 359.677 563.714 359.144 562.667L359.771 562.351C360.293 563.377 360.871 564.388 361.49 565.356L360.899 565.735ZM422.463 563.474L421.846 563.139C422.397 562.121 422.895 561.075 423.34 560.006L423.988 560.267C423.521 561.361 423.009 562.434 422.45 563.466L422.463 563.474ZM357.702 559.442C357.276 558.343 356.904 557.223 356.59 556.087L357.263 555.899C357.572 557.008 357.94 558.115 358.355 559.186L357.702 559.442ZM425.187 556.961L424.516 556.755C424.855 555.651 425.137 554.53 425.362 553.397L426.049 553.535C425.806 554.679 425.516 555.831 425.174 556.953L425.187 556.961ZM355.814 552.64C355.612 551.479 355.469 550.308 355.385 549.133L356.083 549.083C356.166 550.232 356.307 551.389 356.503 552.52L355.814 552.64ZM426.569 550.029L425.872 549.961C425.984 548.822 426.041 547.658 426.041 546.501H426.741C426.728 547.681 426.671 548.869 426.548 550.031L426.569 550.029ZM356.002 545.608L355.302 545.59C355.33 544.412 355.417 543.236 355.563 542.067L356.258 542.153C356.104 543.294 356.023 544.456 355.989 545.61L356.002 545.608ZM426.005 544.824C425.95 543.673 425.838 542.511 425.67 541.378L426.365 541.276C426.532 542.433 426.647 543.626 426.702 544.793L426.005 544.824ZM356.84 538.751L356.156 538.597C356.417 537.453 356.736 536.307 357.107 535.202L357.773 535.424C357.407 536.5 357.094 537.623 356.84 538.751ZM424.981 537.967C424.699 536.847 424.362 535.732 423.973 534.651L424.631 534.416C425.028 535.518 425.373 536.654 425.66 537.811L424.981 537.967ZM359.029 532.168L358.392 531.881C358.874 530.81 359.41 529.764 359.998 528.747L360.604 529.095C360.032 530.092 359.505 531.129 359.032 532.178L359.029 532.168ZM422.64 531.455C422.142 530.411 421.596 529.387 420.995 528.405L421.596 528.042C422.202 529.045 422.766 530.092 423.273 531.155L422.64 531.455ZM362.477 526.167L361.908 525.76C362.589 524.804 363.329 523.872 364.102 522.99L364.624 523.449C363.872 524.326 363.148 525.24 362.48 526.178L362.477 526.167ZM419.059 525.53C418.37 524.611 417.625 523.702 416.847 522.864L417.369 522.392C418.153 523.258 418.937 524.175 419.624 525.112L419.059 525.53ZM367.035 520.958L366.557 520.436C367.411 519.634 368.318 518.869 369.25 518.148L369.676 518.702C368.767 519.428 367.879 520.18 367.038 520.968L367.035 520.958ZM414.384 520.436C413.53 519.668 412.623 518.932 411.693 518.25L412.109 517.686C413.057 518.381 413.979 519.13 414.851 519.914L414.384 520.436ZM372.526 516.751L372.155 516.156C373.155 515.535 374.195 514.957 375.245 514.44L375.556 515.07C374.518 515.578 373.508 516.139 372.528 516.751H372.526ZM408.802 516.341C407.807 515.754 406.775 515.213 405.735 514.728L406.028 514.093C407.091 514.587 408.144 515.138 409.162 515.738L408.802 516.341ZM378.748 513.696L378.502 513.038C379.596 512.631 380.73 512.271 381.869 511.968L382.049 512.644C380.923 512.939 379.813 513.294 378.748 513.696ZM402.533 513.435C401.449 513.059 400.331 512.73 399.208 512.461L399.37 511.78C400.516 512.041 401.658 512.391 402.765 512.774L402.533 513.435ZM385.44 511.939L385.327 511.247C386.484 511.062 387.678 510.931 388.841 510.86L388.882 511.56C387.725 511.623 386.565 511.748 385.432 511.931L385.44 511.939ZM395.802 511.821C394.663 511.667 393.503 511.56 392.351 511.521L392.377 510.821C393.553 510.866 394.728 510.97 395.898 511.129L395.802 511.821Z" fill="white" stroke="white"/>
<path d="M327.22 581.656C327.22 504.246 327.22 503.405 327.22 445.911C327.22 429.343 313.788 415.882 297.22 415.882L66.547 415.882C49.9785 415.882 36.547 429.313 36.547 445.882L36.547 653.303" stroke="white" stroke-width="1.5"/>
<path d="M196.639 531.407L196.639 609.745C196.639 626.314 210.07 639.745 226.639 639.745L290.912 639.745" stroke="white" stroke-width="1.5"/>
<path d="M36.5469 476.497L108.512 476.497C125.081 476.497 138.512 463.066 138.512 446.497L138.512 72.1692C138.512 55.6007 125.08 42.1693 108.512 42.1693L53.8952 42.1693" stroke="white" stroke-width="1.5" stroke-dasharray="5 3"/>
<path d="M8.57768 256.378L24.6089 256.378C41.1774 256.378 54.6089 242.947 54.6089 226.378L54.6089 3.94858" stroke="white" stroke-width="1.5" stroke-dasharray="5 3"/>
<path d="M83.2599 363.46L43.1236 363.46" stroke="white" stroke-width="1.5"/>
<path d="M85.0157 312.141L311.502 312.141C328.071 312.141 341.502 298.709 341.502 282.141L341.502 22.5474" stroke="white" stroke-width="1.5"/>
<path d="M574.266 571.619L583.353 574.008L580.504 581.989L580.482 582.05L580.477 582.115L579.972 588.211L566.936 582.49L574.266 571.619Z" fill="#376EFF" stroke="white"/>
<mask id="path-29-inside-1_0_2558" fill="white">
<path fill-rule="evenodd" clip-rule="evenodd" d="M589.624 565.458C605.38 598.771 597.019 631.688 597.019 631.688L570.647 623.927L575.888 593.479L573.152 591.985L578.637 577.508L580.247 568.157L589.624 565.458Z"/>
</mask>
<path fill-rule="evenodd" clip-rule="evenodd" d="M589.624 565.458C605.38 598.771 597.019 631.688 597.019 631.688L570.647 623.927L575.888 593.479L573.152 591.985L578.637 577.508L580.247 568.157L589.624 565.458Z" fill="#376EFF"/>
<path d="M597.019 631.688L596.736 632.647L597.732 632.94L597.988 631.934L597.019 631.688ZM589.624 565.458L590.528 565.03L590.165 564.262L589.348 564.497L589.624 565.458ZM570.647 623.927L569.661 623.757L569.51 624.635L570.364 624.886L570.647 623.927ZM575.888 593.479L576.874 593.648L576.995 592.943L576.367 592.601L575.888 593.479ZM573.152 591.985L572.217 591.631L571.908 592.446L572.673 592.863L573.152 591.985ZM578.637 577.508L579.572 577.862L579.606 577.772L579.623 577.677L578.637 577.508ZM580.247 568.157L579.97 567.196L579.368 567.369L579.261 567.987L580.247 568.157ZM597.019 631.688C597.988 631.934 597.988 631.933 597.988 631.933C597.988 631.932 597.988 631.932 597.989 631.931C597.989 631.93 597.989 631.928 597.99 631.925C597.991 631.92 597.993 631.913 597.995 631.905C598 631.887 598.006 631.861 598.014 631.828C598.03 631.761 598.054 631.663 598.083 631.534C598.142 631.278 598.226 630.9 598.327 630.409C598.528 629.428 598.796 627.994 599.068 626.171C599.611 622.527 600.169 617.325 600.23 611.075C600.352 598.58 598.489 581.862 590.528 565.03L588.72 565.886C596.515 582.367 598.35 598.764 598.23 611.056C598.17 617.199 597.622 622.308 597.09 625.876C596.824 627.66 596.562 629.059 596.368 630.007C596.27 630.482 596.19 630.844 596.134 631.085C596.106 631.206 596.085 631.297 596.07 631.357C596.063 631.387 596.058 631.409 596.054 631.423C596.052 631.43 596.051 631.435 596.05 631.438C596.05 631.44 596.05 631.441 596.05 631.441C596.049 631.442 596.049 631.442 596.049 631.442C596.049 631.442 596.049 631.441 597.019 631.688ZM570.364 624.886L596.736 632.647L597.301 630.728L570.929 622.968L570.364 624.886ZM574.903 593.309L569.661 623.757L571.632 624.097L576.874 593.648L574.903 593.309ZM576.367 592.601L573.631 591.108L572.673 592.863L575.409 594.356L576.367 592.601ZM574.087 592.34L579.572 577.862L577.702 577.153L572.217 591.631L574.087 592.34ZM579.261 567.987L577.652 577.338L579.623 577.677L581.232 568.327L579.261 567.987ZM589.348 564.497L579.97 567.196L580.523 569.118L589.901 566.419L589.348 564.497Z" fill="white" mask="url(#path-29-inside-1_0_2558)"/>
<path d="M384.577 586.159H140.567V764.139H384.577V586.159Z" fill="#FF715E"/>
<path d="M286.977 663.758H236.148V714.701H286.977V663.758Z" fill="white"/>
<path d="M384.921 585.814H140.223V617.424H384.921V585.814Z" fill="#FFA296"/>
<path d="M306.508 606.232H183.229C182.714 606.252 182.203 606.133 181.723 605.882C181.244 605.632 180.807 605.256 180.438 604.775C180.069 604.295 179.776 603.72 179.576 603.085C179.376 602.451 179.272 601.768 179.272 601.079C179.272 600.39 179.376 599.708 179.576 599.073C179.776 598.438 180.069 597.864 180.438 597.383C180.807 596.903 181.244 596.527 181.723 596.276C182.203 596.026 182.714 595.907 183.229 595.926H306.508C307.51 595.964 308.461 596.523 309.16 597.486C309.858 598.448 310.249 599.737 310.249 601.079C310.249 602.422 309.858 603.711 309.16 604.673C308.461 605.635 307.51 606.195 306.508 606.232Z" fill="#2D3750"/>
<path d="M645.392 766.004H65.9882C65.6061 766.004 65.2396 765.893 64.9694 765.695C64.6992 765.497 64.5474 765.228 64.5474 764.948C64.5474 764.669 64.6992 764.4 64.9694 764.202C65.2396 764.004 65.6061 763.893 65.9882 763.893H645.392C645.581 763.893 645.768 763.92 645.943 763.973C646.118 764.026 646.277 764.104 646.411 764.202C646.545 764.3 646.651 764.417 646.723 764.545C646.795 764.673 646.833 764.81 646.833 764.948C646.833 765.087 646.795 765.224 646.723 765.352C646.651 765.48 646.545 765.597 646.411 765.695C646.277 765.793 646.118 765.87 645.943 765.924C645.768 765.977 645.581 766.004 645.392 766.004Z" fill="white"/>
<path d="M70.6952 758.004L51.1671 743.389L51.1145 742.337C51.0174 740.448 54.8056 737.247 56.4731 736.357C59.1483 734.932 59.7109 736.47 62.2971 738.404L69.2989 743.64C70.3229 744.404 71.1862 745.361 71.8395 746.459C72.4927 747.556 72.923 748.772 73.1057 750.036C73.2885 751.3 73.22 752.588 72.9043 753.825C72.5885 755.063 72.0317 756.226 71.2658 757.248L70.6952 758.004Z" fill="#D7DFF4"/>
<path d="M72.0194 756.821L51.1082 741.199C51.0169 741.131 50.8875 741.149 50.8193 741.241L49.5256 742.971C49.4573 743.063 49.4761 743.192 49.5674 743.26L70.4786 758.883C70.5699 758.951 70.6993 758.932 70.7675 758.841L72.0612 757.11C72.1295 757.019 72.1107 756.89 72.0194 756.821Z" fill="#2D3750"/>
<path d="M62.9249 731.767L68.7142 736.437L64.3275 741.872C64.1165 742.133 63.8103 742.3 63.4762 742.336C63.1422 742.372 62.8076 742.273 62.5461 742.062L58.7286 738.983C58.4671 738.772 58.3002 738.466 58.2645 738.132C58.2288 737.798 58.3272 737.463 58.5382 737.202L62.9249 731.767Z" fill="white"/>
<path d="M68.4566 743.246L65.1669 745.108L65.454 745.615L68.7437 743.754L68.4566 743.246Z" fill="white"/>
<path d="M69.8793 744.307L66.5896 746.168L66.8767 746.676L70.1664 744.814L69.8793 744.307Z" fill="white"/>
<path d="M123.496 500.474L122.634 504.205C122.609 504.289 122.558 504.363 122.488 504.415C122.418 504.468 122.333 504.496 122.245 504.496C122.158 504.496 122.072 504.468 122.002 504.415C121.932 504.363 121.881 504.289 121.857 504.205L121.61 503.21C121.508 502.805 121.323 502.425 121.067 502.096C120.81 501.766 120.488 501.494 120.12 501.296C119.932 501.195 119.72 501.147 119.507 501.156C119.294 501.165 119.087 501.231 118.908 501.348C118.729 501.465 118.585 501.627 118.491 501.819C118.396 502.011 118.355 502.224 118.372 502.437L119.044 510.833L125.924 513.418L131.59 504.99C131.742 504.764 131.84 504.507 131.877 504.238C131.914 503.969 131.89 503.694 131.805 503.436L130.639 499.916C130.291 498.872 123.354 497.925 123.484 500.47" fill="white"/>
<path d="M127.304 576.597L105.546 571.321L99.1272 583.039L112.374 589.307L124.783 591.208L127.304 576.597Z" fill="#376EFF"/>
<path d="M128.741 538.493L126.426 506.341L118.959 506.131L115.021 536.952L121.229 543.867L128.741 538.493Z" fill="white"/>
<path d="M46.639 484.467L150.579 602.959L234.472 529.405L130.532 410.913L46.639 484.467Z" fill="white"/>
<path d="M79.3928 503.861H79.3118C78.9839 503.844 78.6758 503.698 78.4538 503.456L63.6044 486.498C63.4957 486.375 63.4125 486.231 63.3596 486.076C63.3067 485.92 63.2851 485.756 63.296 485.592C63.3069 485.428 63.3501 485.268 63.4231 485.12C63.4962 484.973 63.5977 484.842 63.7217 484.734L80.6475 469.909C80.8977 469.69 81.2238 469.58 81.555 469.601C81.8863 469.622 82.1958 469.774 82.4161 470.022L97.2614 486.947C97.3701 487.071 97.4534 487.214 97.5063 487.37C97.5592 487.525 97.5808 487.69 97.5699 487.854C97.559 488.018 97.5157 488.178 97.4427 488.325C97.3696 488.473 97.2682 488.604 97.1442 488.712L80.2184 503.557C79.9885 503.754 79.6955 503.862 79.3928 503.861ZM66.312 485.802L79.498 500.846L94.5457 487.652L81.3476 472.607L66.312 485.802Z" fill="#D7DFF4"/>
<path d="M90.2758 473.024C90.0231 473.021 89.7774 472.941 89.5709 472.795C89.3644 472.65 89.207 472.445 89.1193 472.208C89.0317 471.971 89.0179 471.713 89.0799 471.468C89.1419 471.223 89.2766 471.002 89.4664 470.835L133.857 431.91C134.106 431.691 134.433 431.58 134.764 431.602C135.095 431.623 135.405 431.776 135.624 432.025C135.843 432.275 135.953 432.601 135.932 432.932C135.91 433.263 135.758 433.573 135.508 433.791L91.1177 472.717C90.8845 472.919 90.5847 473.029 90.2758 473.024Z" fill="#D7DFF4"/>
<path d="M96.0918 479.255C95.8382 479.253 95.5913 479.173 95.3839 479.027C95.1764 478.881 95.0182 478.676 94.9304 478.438C94.8426 478.2 94.8293 477.941 94.8922 477.695C94.955 477.45 95.0911 477.229 95.2824 477.062L139.673 438.137C139.796 438.026 139.94 437.942 140.096 437.887C140.253 437.833 140.418 437.81 140.583 437.82C140.748 437.83 140.91 437.873 141.058 437.946C141.207 438.019 141.339 438.12 141.448 438.245C141.557 438.369 141.64 438.514 141.693 438.671C141.746 438.828 141.767 438.993 141.755 439.158C141.743 439.323 141.698 439.484 141.624 439.632C141.549 439.78 141.446 439.911 141.32 440.018L96.9013 478.944C96.6766 479.14 96.3899 479.25 96.0918 479.255Z" fill="#D7DFF4"/>
<path d="M99.192 526.427C99.0151 526.43 98.8395 526.396 98.6769 526.326C98.5143 526.257 98.3685 526.153 98.2491 526.023L83.4036 509.097C83.294 508.974 83.2101 508.831 83.1566 508.675C83.1031 508.519 83.081 508.355 83.0919 508.191C83.1094 507.863 83.2547 507.555 83.4967 507.333L100.426 492.491C100.676 492.272 101.001 492.161 101.332 492.182C101.663 492.204 101.972 492.355 102.191 492.604L117.036 509.53C117.146 509.653 117.229 509.796 117.282 509.952C117.335 510.108 117.356 510.272 117.344 510.436C117.326 510.764 117.181 511.072 116.939 511.294L100.01 526.136C99.7823 526.33 99.4911 526.434 99.192 526.427ZM86.1072 508.369L99.3054 523.413L114.353 510.218L101.155 495.174L86.1072 508.369Z" fill="#D7DFF4"/>
<path d="M110.075 495.59C109.822 495.587 109.577 495.507 109.37 495.361C109.164 495.215 109.006 495.01 108.919 494.773C108.831 494.536 108.817 494.278 108.879 494.033C108.941 493.788 109.076 493.568 109.266 493.401L153.656 454.476C153.779 454.365 153.923 454.281 154.08 454.226C154.236 454.172 154.401 454.149 154.566 454.159C154.732 454.169 154.893 454.212 155.042 454.285C155.19 454.358 155.323 454.459 155.432 454.584C155.541 454.708 155.624 454.853 155.676 455.01C155.729 455.167 155.75 455.332 155.738 455.497C155.726 455.662 155.682 455.823 155.607 455.971C155.532 456.118 155.429 456.25 155.304 456.357L110.897 495.278C110.671 495.481 110.378 495.592 110.075 495.59Z" fill="#D7DFF4"/>
<path d="M115.871 501.817C115.693 501.818 115.517 501.781 115.355 501.707C115.193 501.634 115.049 501.527 114.932 501.393C114.713 501.144 114.602 500.818 114.623 500.487C114.644 500.156 114.796 499.847 115.045 499.628L159.436 460.703C159.686 460.489 160.01 460.382 160.339 460.406C160.667 460.43 160.973 460.582 161.19 460.83C161.406 461.077 161.517 461.4 161.497 461.729C161.477 462.058 161.328 462.365 161.083 462.585L116.696 501.51C116.467 501.708 116.174 501.817 115.871 501.817Z" fill="#D7DFF4"/>
<path d="M118.987 548.993C118.811 548.996 118.636 548.961 118.475 548.891C118.313 548.822 118.167 548.718 118.048 548.589L103.199 531.663C102.98 531.414 102.869 531.088 102.89 530.758C102.911 530.427 103.063 530.118 103.312 529.899L120.242 515.053C120.491 514.835 120.818 514.724 121.149 514.746C121.479 514.768 121.788 514.921 122.006 515.17L136.856 532.092C137.075 532.342 137.185 532.669 137.163 533C137.141 533.332 136.988 533.641 136.739 533.86L119.813 548.702C119.582 548.896 119.289 548.999 118.987 548.993ZM105.902 530.935L119.101 545.979L134.136 532.784L120.938 517.74L105.902 530.935Z" fill="#D7DFF4"/>
<path d="M129.87 518.156C129.618 518.152 129.372 518.071 129.166 517.925C128.96 517.779 128.803 517.574 128.716 517.337C128.628 517.099 128.614 516.842 128.676 516.597C128.738 516.352 128.872 516.131 129.061 515.963L173.451 477.042C173.574 476.93 173.718 476.843 173.875 476.787C174.031 476.731 174.197 476.706 174.364 476.715C174.53 476.724 174.693 476.766 174.842 476.839C174.992 476.911 175.126 477.013 175.236 477.138C175.346 477.263 175.429 477.409 175.482 477.566C175.535 477.724 175.556 477.891 175.544 478.057C175.531 478.223 175.486 478.384 175.41 478.533C175.334 478.681 175.23 478.812 175.103 478.92L130.712 517.845C130.48 518.05 130.18 518.161 129.87 518.156Z" fill="#D7DFF4"/>
<path d="M135.67 524.384C135.417 524.38 135.172 524.3 134.965 524.155C134.759 524.009 134.601 523.804 134.514 523.567C134.426 523.33 134.412 523.072 134.474 522.827C134.536 522.582 134.671 522.361 134.861 522.194L179.231 483.261C179.355 483.153 179.498 483.07 179.654 483.017C179.81 482.964 179.974 482.942 180.138 482.953C180.302 482.964 180.463 483.006 180.61 483.079C180.757 483.152 180.889 483.253 180.998 483.376C181.106 483.5 181.189 483.644 181.242 483.799C181.295 483.955 181.317 484.119 181.306 484.283C181.295 484.447 181.252 484.608 181.179 484.755C181.107 484.902 181.006 485.034 180.882 485.143L136.492 524.064C136.268 524.27 135.974 524.384 135.67 524.384Z" fill="#D7DFF4"/>
<path d="M138.783 571.559H138.702C138.539 571.552 138.379 571.512 138.232 571.443C138.085 571.373 137.953 571.275 137.844 571.155L122.994 554.233C122.777 553.983 122.667 553.658 122.689 553.327C122.711 552.996 122.863 552.688 123.111 552.469L140.037 537.623C140.287 537.405 140.614 537.294 140.946 537.316C141.277 537.338 141.587 537.491 141.806 537.741L156.651 554.662C156.87 554.911 156.981 555.237 156.96 555.568C156.939 555.899 156.787 556.207 156.538 556.426L139.608 571.272C139.377 571.465 139.083 571.567 138.783 571.559ZM125.702 553.497L138.9 568.541L153.948 555.35L140.75 540.314L125.702 553.497Z" fill="#D7DFF4"/>
<path d="M149.67 540.719C149.416 540.716 149.169 540.637 148.962 540.491C148.754 540.345 148.596 540.139 148.508 539.901C148.42 539.663 148.407 539.404 148.47 539.159C148.533 538.913 148.669 538.692 148.86 538.526L193.226 499.604C193.476 499.385 193.802 499.274 194.134 499.296C194.465 499.318 194.774 499.47 194.993 499.72C195.212 499.969 195.323 500.295 195.301 500.627C195.28 500.958 195.127 501.267 194.878 501.486L150.487 540.411C150.261 540.609 149.97 540.718 149.67 540.719Z" fill="#D7DFF4"/>
<path d="M155.465 546.95C155.213 546.947 154.967 546.867 154.76 546.721C154.554 546.575 154.396 546.37 154.309 546.133C154.221 545.896 154.207 545.638 154.269 545.393C154.331 545.148 154.466 544.928 154.656 544.761L199.046 505.836C199.17 505.725 199.314 505.64 199.47 505.586C199.626 505.532 199.792 505.509 199.957 505.519C200.122 505.529 200.283 505.572 200.432 505.645C200.58 505.717 200.713 505.819 200.822 505.943C200.931 506.068 201.014 506.213 201.067 506.37C201.119 506.526 201.14 506.692 201.128 506.857C201.116 507.022 201.072 507.183 200.997 507.331C200.922 507.478 200.819 507.61 200.694 507.717L156.307 546.638C156.075 546.843 155.775 546.954 155.465 546.95Z" fill="#D7DFF4"/>
<path d="M82.1813 493.782C82.0146 493.781 81.8497 493.748 81.6957 493.685C76.809 491.625 71.427 491.037 66.2108 491.993C66.0489 492.022 65.883 492.019 65.7223 491.985C65.5616 491.95 65.4093 491.883 65.2742 491.79C65.139 491.696 65.0238 491.577 64.9348 491.438C64.8459 491.3 64.785 491.145 64.7558 490.984C64.7266 490.822 64.7295 490.656 64.7644 490.495C64.7993 490.335 64.8656 490.182 64.9593 490.047C65.0531 489.912 65.1726 489.797 65.3109 489.708C65.4492 489.619 65.6038 489.558 65.7656 489.529C70.5588 488.652 75.4943 488.966 80.1375 490.443C78.7333 485.833 78.296 480.983 78.8532 476.197C79.4103 471.41 80.9498 466.79 83.3753 462.625C83.458 462.483 83.5678 462.359 83.6985 462.259C83.8293 462.159 83.9785 462.086 84.1375 462.044C84.2964 462.002 84.4621 461.992 84.6251 462.014C84.7881 462.036 84.9451 462.089 85.0873 462.172C85.2295 462.255 85.354 462.364 85.4537 462.495C85.5534 462.626 85.6264 462.775 85.6685 462.934C85.7106 463.093 85.721 463.259 85.6991 463.422C85.6771 463.584 85.6232 463.741 85.5406 463.884C83.0771 468.115 81.6009 472.847 81.2218 477.729C80.8426 482.61 81.5705 487.513 83.351 492.074C83.4256 492.264 83.4526 492.469 83.4298 492.671C83.4069 492.874 83.3349 493.068 83.22 493.236C83.1051 493.404 82.9507 493.542 82.7704 493.637C82.5901 493.732 82.3892 493.782 82.1854 493.782H82.1813Z" fill="#2D3750"/>
<path d="M118.659 510.687C118.554 510.688 118.449 510.674 118.348 510.647C109.612 508.39 100.478 508.149 91.6357 509.943C91.3105 510.009 90.9723 509.943 90.6957 509.759C90.419 509.576 90.2265 509.291 90.1605 508.965C90.0945 508.64 90.1604 508.302 90.3437 508.026C90.527 507.749 90.8127 507.557 91.1379 507.491C100.346 505.626 109.858 505.877 118.955 508.223C119.253 508.296 119.513 508.476 119.686 508.729C119.86 508.982 119.935 509.29 119.896 509.594C119.858 509.898 119.709 510.177 119.478 510.379C119.247 510.58 118.95 510.69 118.643 510.687H118.659Z" fill="#2D3750"/>
<path d="M104.186 520.726C103.946 520.726 103.71 520.658 103.508 520.528C103.305 520.398 103.145 520.212 103.045 519.993C101.091 515.767 100.227 511.119 100.532 506.473C100.836 501.827 102.3 497.332 104.789 493.397C104.875 493.254 104.988 493.13 105.123 493.032C105.257 492.934 105.409 492.864 105.571 492.825C105.733 492.787 105.901 492.781 106.065 492.808C106.229 492.835 106.386 492.894 106.527 492.983C106.668 493.072 106.79 493.187 106.885 493.323C106.981 493.46 107.048 493.613 107.083 493.776C107.119 493.939 107.121 494.106 107.091 494.27C107.06 494.433 106.997 494.589 106.906 494.728C104.638 498.313 103.306 502.409 103.029 506.641C102.753 510.874 103.542 515.108 105.324 518.957C105.461 519.26 105.473 519.604 105.357 519.915C105.241 520.226 105.006 520.478 104.704 520.616C104.541 520.688 104.365 520.725 104.186 520.726Z" fill="#2D3750"/>
<path d="M137.75 533.205C137.644 533.205 137.538 533.192 137.435 533.164C128.699 530.908 119.565 530.667 110.723 532.46C110.397 532.526 110.059 532.46 109.783 532.277C109.506 532.094 109.313 531.808 109.247 531.483C109.181 531.158 109.247 530.82 109.431 530.543C109.614 530.267 109.9 530.074 110.225 530.008C119.433 528.142 128.945 528.394 138.042 530.745C138.336 530.821 138.592 531.002 138.762 531.254C138.932 531.505 139.005 531.81 138.967 532.112C138.929 532.413 138.782 532.69 138.555 532.891C138.327 533.092 138.034 533.204 137.73 533.205H137.75Z" fill="#2D3750"/>
<path d="M123.265 543.248C123.025 543.248 122.789 543.18 122.587 543.05C122.384 542.92 122.223 542.734 122.124 542.515C120.17 538.288 119.306 533.64 119.61 528.993C119.915 524.347 121.379 519.851 123.868 515.915C124.048 515.642 124.328 515.449 124.648 515.38C124.968 515.311 125.302 515.369 125.579 515.544C125.856 515.718 126.054 515.994 126.13 516.312C126.206 516.63 126.154 516.966 125.985 517.246C123.717 520.832 122.384 524.928 122.107 529.161C121.831 533.395 122.62 537.63 124.402 541.479C124.489 541.67 124.527 541.879 124.512 542.088C124.496 542.296 124.429 542.498 124.316 542.674C124.203 542.85 124.047 542.994 123.864 543.095C123.68 543.195 123.474 543.248 123.265 543.248Z" fill="#2D3750"/>
<path d="M104.534 567.691L105.923 557.725L114.074 560.116L115.511 570.896L104.534 567.691Z" fill="white"/>
<path d="M116.789 537.182L115.009 533.411C115.009 533.411 94.9828 529.951 90.7898 545.246L99.2689 555.071L103.604 551.947L116.789 537.182Z" fill="#FF715E"/>
<path d="M114.692 533.556C114.854 533.589 114.984 533.619 115.08 533.642C115.093 533.664 115.108 533.688 115.123 533.714C115.22 533.875 115.362 534.112 115.541 534.416C115.899 535.023 116.406 535.896 117.001 536.96C118.192 539.087 119.733 541.971 121.137 545C122.544 548.034 123.802 551.192 124.441 553.875C124.76 555.217 124.918 556.417 124.872 557.41C124.826 558.407 124.578 559.14 124.142 559.618C122.097 561.86 118.436 562.896 114.693 563.152C110.964 563.408 107.311 562.878 105.412 562.139C105.038 561.993 104.592 561.623 104.094 561.003C103.603 560.393 103.099 559.588 102.592 558.644C101.581 556.758 100.593 554.374 99.7227 552.021C98.8537 549.672 98.1077 547.368 97.5786 545.651C97.3142 544.793 97.1042 544.082 96.9605 543.586C96.8886 543.338 96.8333 543.144 96.796 543.012L96.784 542.969C99.3356 536.441 103.916 534.136 107.875 533.441C109.882 533.089 111.735 533.152 113.089 533.304C113.765 533.38 114.314 533.477 114.692 533.556Z" fill="white" stroke="#D7DFF4"/>
<path d="M92.3522 543.519C92.3522 543.519 113.313 546.816 118.048 536.255C122.784 525.695 110.719 511.852 92.3522 543.519Z" fill="#FF715E"/>
<path d="M96.6543 624.477C98.8245 644.137 96.6955 664.034 90.4144 682.791C84.1334 701.548 73.8505 718.716 60.2775 733.107L67.4168 739.488C94.9217 708.357 112.78 669.902 118.817 628.806L96.6543 624.477Z" fill="#2D3750"/>
<path d="M135.933 764.478L111.961 759.938L111.451 759.016C110.532 757.361 112.528 752.821 113.641 751.287C115.417 748.831 116.591 749.972 119.768 750.571L128.361 752.19C129.616 752.426 130.813 752.907 131.882 753.606C132.951 754.305 133.872 755.209 134.592 756.264C135.311 757.319 135.815 758.506 136.076 759.757C136.336 761.007 136.346 762.297 136.107 763.552L135.933 764.478Z" fill="#D7DFF4"/>
<path d="M136.496 762.985L110.848 758.126C110.736 758.105 110.628 758.179 110.606 758.291L110.204 760.414C110.183 760.526 110.256 760.634 110.368 760.655L136.017 765.514C136.129 765.535 136.237 765.462 136.258 765.35L136.66 763.227C136.682 763.115 136.608 763.007 136.496 762.985Z" fill="#2D3750"/>
<path d="M117.477 744.253L124.729 745.907L123.174 752.724C123.099 753.051 122.897 753.336 122.613 753.515C122.328 753.693 121.985 753.752 121.657 753.677L116.875 752.586C116.547 752.512 116.262 752.31 116.084 752.025C115.905 751.741 115.846 751.397 115.921 751.07L117.475 744.261L117.477 744.253Z" fill="white"/>
<path d="M127.383 752.089L125.247 755.206L125.727 755.535L127.864 752.418L127.383 752.089Z" fill="white"/>
<path d="M129.119 752.417L126.982 755.534L127.463 755.864L129.6 752.746L129.119 752.417Z" fill="white"/>
<path d="M100.604 633.095C111.194 649.807 118.023 668.62 120.619 688.232C123.214 707.843 121.514 727.785 115.636 746.675L124.856 749.272C135.895 709.229 135.051 666.841 122.427 627.269L100.604 633.095Z" fill="#2D3750"/>
<path d="M108.039 604.719C110.965 610.699 121.011 629.559 138.094 633.516C141.883 634.39 144.032 634.075 145.61 633.516C153.931 630.55 158.189 616.49 156.882 597.832L153.749 596.578C151.143 605.52 145.982 611.456 140.6 611.602C138.228 611.67 136.395 610.59 134.966 609.724C126.637 604.682 124.334 594.502 123.694 590.945L108.039 604.719Z" fill="white"/>
<path fill-rule="evenodd" clip-rule="evenodd" d="M104.453 567.703C85.8805 606.989 95.7357 645.797 95.7357 645.797L126.843 636.628L120.128 597.67L126.155 593.599L115.514 570.903L115.511 570.884L104.453 567.703Z" fill="#2D3750"/>
<path d="M155.886 598.241C156.191 598.282 156.5 598.211 156.756 598.043C159.483 596.274 161.463 593.565 162.321 590.432C163.103 587.258 162.67 583.907 161.107 581.036C160.994 580.82 160.823 580.641 160.612 580.518C160.402 580.395 160.162 580.333 159.918 580.34C159.675 580.348 159.438 580.423 159.235 580.558C159.033 580.693 158.872 580.883 158.772 581.105C158.335 582.103 157.96 583.127 157.651 584.172C156.437 588.303 156.692 591.362 155.773 591.528C154.68 591.726 153.51 587.53 152.434 587.745C151.58 587.915 151.479 590.715 151.519 591.969C151.58 593.725 151.645 595.672 153.138 597.031C153.909 597.706 154.868 598.128 155.886 598.241Z" fill="white"/>
<path d="M261.467 702.202C260.968 702.202 260.473 702.104 260.011 701.913C259.549 701.722 259.13 701.442 258.776 701.089L243.514 685.827C242.801 685.114 242.401 684.148 242.401 683.14C242.401 682.132 242.801 681.166 243.514 680.453C244.226 679.741 245.193 679.34 246.201 679.34C247.209 679.34 248.176 679.741 248.889 680.453L261.467 693.025L274.241 680.255C274.953 679.542 275.92 679.142 276.928 679.142C277.936 679.142 278.903 679.542 279.615 680.255C280.328 680.968 280.729 681.934 280.729 682.942C280.729 683.949 280.328 684.916 279.615 685.628L264.155 701.089C263.802 701.442 263.383 701.722 262.922 701.913C262.461 702.104 261.967 702.202 261.467 702.202Z" fill="#FF715E"/>
<path d="M498.452 327.321H313.171C303.061 327.321 294.866 335.515 294.866 345.623V744.891C294.866 754.998 303.061 763.192 313.171 763.192H498.452C508.562 763.192 516.757 754.998 516.757 744.891V345.623C516.757 335.515 508.562 327.321 498.452 327.321Z" fill="#2D3750"/>
<path d="M489.936 344.041H321.683C311.573 344.041 303.377 352.234 303.377 362.342V728.167C303.377 738.275 311.573 746.469 321.683 746.469H489.936C500.046 746.469 508.242 738.275 508.242 728.167V362.342C508.242 352.234 500.046 344.041 489.936 344.041Z" fill="#D7DFF4"/>
<path d="M423.872 338.707H401.114C400.344 338.679 399.615 338.353 399.08 337.798C398.544 337.243 398.245 336.502 398.245 335.731C398.245 334.961 398.544 334.22 399.08 333.665C399.615 333.11 400.344 332.784 401.114 332.755H423.872C424.643 332.784 425.372 333.11 425.907 333.665C426.442 334.22 426.741 334.961 426.741 335.731C426.741 336.502 426.442 337.243 425.907 337.798C425.372 338.353 424.643 338.679 423.872 338.707Z" fill="#D7DFF4"/>
<path d="M497.017 358.459C497.581 354.982 495.22 351.707 491.742 351.143C488.265 350.578 484.989 352.939 484.424 356.415C483.86 359.892 486.221 363.167 489.698 363.732C493.176 364.296 496.452 361.935 497.017 358.459Z" fill="white"/>
<path d="M480.147 358.459C480.712 354.983 478.351 351.707 474.873 351.143C471.396 350.579 468.12 352.939 467.555 356.416C466.991 359.892 469.352 363.168 472.829 363.732C476.307 364.297 479.583 361.936 480.147 358.459Z" fill="#376EFF"/>
<path d="M402.244 351.037H317.453V363.795H402.244V351.037Z" fill="white"/>
<path d="M332.104 733.549H322.168C322.007 733.536 321.857 733.463 321.747 733.344C321.637 733.225 321.576 733.069 321.576 732.907C321.576 732.746 321.637 732.59 321.747 732.471C321.857 732.352 322.007 732.279 322.168 732.266H332.104C332.266 732.279 332.416 732.352 332.526 732.471C332.636 732.59 332.697 732.746 332.697 732.907C332.697 733.069 332.636 733.225 332.526 733.344C332.416 733.463 332.266 733.536 332.104 733.549Z" fill="white"/>
<path d="M332.104 736.126H322.168C322.007 736.114 321.857 736.04 321.747 735.922C321.637 735.803 321.576 735.647 321.576 735.485C321.576 735.323 321.637 735.167 321.747 735.049C321.857 734.93 322.007 734.857 322.168 734.844H332.104C332.266 734.857 332.416 734.93 332.526 735.049C332.636 735.167 332.697 735.323 332.697 735.485C332.697 735.647 332.636 735.803 332.526 735.922C332.416 736.04 332.266 736.114 332.104 736.126Z" fill="white"/>
<path d="M485.095 737.676C485.009 737.676 484.924 737.659 484.844 737.625C484.765 737.591 484.693 737.541 484.634 737.478L481.748 734.5C481.631 734.375 481.567 734.209 481.57 734.038C481.572 733.953 481.591 733.869 481.626 733.791C481.66 733.713 481.71 733.643 481.773 733.585L484.658 730.89C484.784 730.783 484.947 730.728 485.112 730.737C485.277 730.747 485.433 730.819 485.546 730.94C485.659 731.061 485.721 731.221 485.719 731.386C485.718 731.552 485.652 731.711 485.537 731.829L483.128 734.075L485.557 736.587C485.644 736.678 485.702 736.793 485.725 736.916C485.748 737.04 485.734 737.168 485.685 737.284C485.636 737.399 485.554 737.498 485.449 737.568C485.344 737.638 485.221 737.675 485.095 737.676Z" fill="white"/>
<path d="M403.972 738.234C403.171 738.234 402.389 737.997 401.723 737.552C401.058 737.108 400.539 736.476 400.233 735.736C399.926 734.997 399.846 734.183 400.002 733.399C400.159 732.614 400.544 731.893 401.11 731.327C401.676 730.761 402.397 730.375 403.182 730.219C403.967 730.063 404.781 730.143 405.521 730.45C406.26 730.756 406.892 731.275 407.337 731.94C407.782 732.605 408.019 733.388 408.019 734.188C408.019 735.261 407.593 736.29 406.834 737.049C406.075 737.808 405.045 738.234 403.972 738.234ZM403.972 731.44C403.427 731.44 402.894 731.602 402.441 731.905C401.987 732.208 401.634 732.638 401.425 733.142C401.217 733.645 401.162 734.199 401.269 734.734C401.375 735.268 401.637 735.759 402.023 736.144C402.408 736.53 402.899 736.792 403.434 736.899C403.969 737.005 404.523 736.95 405.026 736.742C405.53 736.533 405.961 736.18 406.263 735.727C406.566 735.274 406.728 734.741 406.728 734.196C406.727 733.466 406.436 732.765 405.92 732.249C405.403 731.732 404.702 731.442 403.972 731.44Z" fill="white"/>
<path d="M303.316 597.002H508.141V730.971C508.141 732.997 507.741 735.003 506.966 736.875C506.19 738.747 505.054 740.448 503.621 741.881C502.188 743.313 500.486 744.45 498.614 745.225C496.742 746.001 494.735 746.4 492.708 746.4H318.748C314.656 746.4 310.73 744.774 307.836 741.881C304.942 738.987 303.316 735.063 303.316 730.971V597.002Z" fill="#376EFF"/>
<path d="M501.507 613.147H311.69C310.543 613.147 309.442 612.691 308.631 611.88C307.819 611.069 307.364 609.969 307.364 608.822C307.364 607.674 307.819 606.574 308.631 605.763C309.442 604.952 310.543 604.496 311.69 604.496H501.507C502.655 604.496 503.755 604.952 504.566 605.763C505.378 606.574 505.834 607.674 505.834 608.822C505.834 609.969 505.378 611.069 504.566 611.88C503.755 612.691 502.655 613.147 501.507 613.147Z" fill="#376EFF"/>
<path d="M317.449 389.075V609.983H494.578V389.075H317.449Z" fill="white"/>
<path d="M434.444 460.465H385.966C385.252 460.465 384.567 460.181 384.061 459.677C383.556 459.172 383.271 458.488 383.27 457.774V409.299C383.271 408.585 383.556 407.901 384.061 407.396C384.567 406.892 385.252 406.608 385.966 406.608H434.444C435.158 406.608 435.843 406.892 436.348 407.396C436.854 407.901 437.138 408.585 437.139 409.299V457.77C437.139 458.484 436.856 459.17 436.35 459.675C435.845 460.181 435.159 460.465 434.444 460.465ZM388.657 455.079H431.753V411.994H388.661L388.657 455.079Z" fill="#D7DFF4"/>
<path d="M374.483 409.299H326.001V457.769H374.483V409.299Z" fill="#D7DFF4"/>
<path d="M374.483 473.926H326.001V522.397H374.483V473.926Z" fill="#376EFF"/>
<path d="M374.483 538.558H326.001V587.029H374.483V538.558Z" fill="#2D3750"/>
<path d="M374.483 538.558H326.001V587.029H374.483V538.558Z" fill="#D7DFF4"/>
<path d="M486.48 424.861H443.983C443.57 424.861 443.174 424.697 442.882 424.405C442.589 424.113 442.425 423.717 442.425 423.303C442.425 422.89 442.589 422.494 442.882 422.202C443.174 421.91 443.57 421.746 443.983 421.746H486.48C486.893 421.746 487.289 421.91 487.582 422.202C487.874 422.494 488.038 422.89 488.038 423.303C488.038 423.717 487.874 424.113 487.582 424.405C487.289 424.697 486.893 424.861 486.48 424.861Z" fill="#D7DFF4"/>
<path d="M486.654 443.171H444.182C443.971 443.182 443.759 443.149 443.561 443.076C443.363 443.003 443.182 442.89 443.029 442.744C442.876 442.599 442.754 442.424 442.67 442.229C442.587 442.035 442.544 441.826 442.544 441.615C442.544 441.404 442.587 441.195 442.67 441.001C442.754 440.806 442.876 440.631 443.029 440.486C443.182 440.34 443.363 440.227 443.561 440.154C443.759 440.081 443.971 440.048 444.182 440.059H486.654C486.865 440.048 487.076 440.081 487.274 440.154C487.472 440.227 487.653 440.34 487.806 440.486C487.96 440.631 488.082 440.806 488.165 441.001C488.248 441.195 488.291 441.404 488.291 441.615C488.291 441.826 488.248 442.035 488.165 442.229C488.082 442.424 487.96 442.599 487.806 442.744C487.653 442.89 487.472 443.003 487.274 443.076C487.076 443.149 486.865 443.182 486.654 443.171Z" fill="#D7DFF4"/>
<path d="M434.444 525.096H385.966C385.251 525.096 384.565 524.812 384.06 524.307C383.554 523.801 383.27 523.116 383.27 522.401V473.931C383.27 473.216 383.554 472.53 384.06 472.025C384.565 471.52 385.251 471.236 385.966 471.236H434.444C435.159 471.236 435.845 471.52 436.35 472.025C436.856 472.53 437.139 473.216 437.139 473.931V522.401C437.139 523.116 436.856 523.801 436.35 524.307C435.845 524.812 435.159 525.096 434.444 525.096ZM388.657 519.711H431.753V476.621H388.661L388.657 519.711Z" fill="#D7DFF4"/>
<path d="M486.48 489.489H443.983C443.772 489.499 443.561 489.467 443.363 489.394C443.165 489.32 442.984 489.208 442.83 489.062C442.677 488.917 442.555 488.741 442.472 488.547C442.389 488.353 442.346 488.144 442.346 487.933C442.346 487.722 442.389 487.513 442.472 487.318C442.555 487.124 442.677 486.949 442.83 486.804C442.984 486.658 443.165 486.545 443.363 486.472C443.561 486.399 443.772 486.366 443.983 486.377H486.48C486.879 486.397 487.255 486.57 487.53 486.86C487.805 487.149 487.958 487.533 487.958 487.933C487.958 488.332 487.805 488.716 487.53 489.006C487.255 489.295 486.879 489.468 486.48 489.489Z" fill="#D7DFF4"/>
<path d="M486.654 507.802H444.182C443.768 507.802 443.372 507.638 443.08 507.346C442.787 507.054 442.623 506.658 442.623 506.244C442.623 505.831 442.787 505.435 443.08 505.143C443.372 504.851 443.768 504.687 444.182 504.687H486.654C487.067 504.687 487.463 504.851 487.755 505.143C488.048 505.435 488.212 505.831 488.212 506.244C488.212 506.658 488.048 507.054 487.755 507.346C487.463 507.638 487.067 507.802 486.654 507.802Z" fill="#D7DFF4"/>
<path d="M434.444 589.723H385.966C385.252 589.723 384.567 589.44 384.061 588.935C383.556 588.431 383.271 587.747 383.27 587.033V538.558C383.271 537.844 383.556 537.16 384.061 536.655C384.567 536.151 385.252 535.867 385.966 535.867H434.444C435.158 535.867 435.843 536.151 436.348 536.655C436.854 537.16 437.138 537.844 437.139 538.558V587.033C437.138 587.747 436.854 588.431 436.348 588.935C435.843 589.44 435.158 589.723 434.444 589.723ZM388.657 584.338H431.753V541.253H388.661L388.657 584.338Z" fill="#D7DFF4"/>
<path d="M486.48 554.12H443.983C443.57 554.12 443.174 553.956 442.882 553.664C442.589 553.372 442.425 552.975 442.425 552.562C442.425 552.149 442.589 551.753 442.882 551.461C443.174 551.168 443.57 551.004 443.983 551.004H486.48C486.893 551.004 487.289 551.168 487.582 551.461C487.874 551.753 488.038 552.149 488.038 552.562C488.038 552.975 487.874 553.372 487.582 553.664C487.289 553.956 486.893 554.12 486.48 554.12Z" fill="#D7DFF4"/>
<path d="M486.654 572.43H444.182C443.971 572.44 443.759 572.408 443.561 572.335C443.363 572.261 443.182 572.148 443.029 572.003C442.876 571.857 442.754 571.682 442.67 571.488C442.587 571.294 442.544 571.085 442.544 570.874C442.544 570.662 442.587 570.453 442.67 570.259C442.754 570.065 442.876 569.89 443.029 569.744C443.182 569.599 443.363 569.486 443.561 569.413C443.759 569.339 443.971 569.307 444.182 569.318H486.654C486.865 569.307 487.076 569.339 487.274 569.413C487.472 569.486 487.653 569.599 487.806 569.744C487.96 569.89 488.082 570.065 488.165 570.259C488.248 570.453 488.291 570.662 488.291 570.874C488.291 571.085 488.248 571.294 488.165 571.488C488.082 571.682 487.96 571.857 487.806 572.003C487.653 572.148 487.472 572.261 487.274 572.335C487.076 572.408 486.865 572.44 486.654 572.43Z" fill="#D7DFF4"/>
<path d="M408.812 515.822C408.306 515.823 407.809 515.682 407.379 515.413C406.95 515.145 406.605 514.76 406.384 514.304C401.395 504.036 393.519 495.445 383.719 489.586C383.404 489.409 383.128 489.172 382.906 488.887C382.685 488.601 382.523 488.275 382.43 487.926C382.337 487.577 382.316 487.213 382.366 486.855C382.417 486.498 382.539 486.154 382.725 485.845C382.911 485.536 383.157 485.267 383.449 485.054C383.741 484.842 384.073 484.69 384.425 484.609C384.777 484.527 385.141 484.517 385.497 484.579C385.853 484.64 386.192 484.773 386.496 484.969C392.926 488.822 398.633 493.768 403.361 499.584C405.229 501.89 406.932 504.324 408.46 506.867C412.733 497.411 418.912 488.938 426.611 481.98C434.31 475.022 443.363 469.727 453.203 466.429C453.544 466.291 453.908 466.225 454.276 466.234C454.643 466.242 455.004 466.326 455.338 466.479C455.671 466.633 455.97 466.853 456.216 467.126C456.461 467.398 456.648 467.719 456.766 468.066C456.883 468.414 456.928 468.782 456.898 469.148C456.868 469.514 456.763 469.87 456.591 470.194C456.418 470.518 456.181 470.803 455.895 471.033C455.608 471.262 455.277 471.43 454.923 471.527C444.926 474.879 435.816 480.445 428.27 487.808C420.725 495.172 414.94 504.143 411.346 514.053C411.166 514.551 410.843 514.985 410.418 515.3C409.992 515.616 409.483 515.798 408.954 515.826L408.812 515.822Z" fill="#FF715E"/>
<path d="M462.844 668.578H345.315C335.413 668.578 327.385 676.603 327.385 686.503V686.507C327.385 696.407 335.413 704.432 345.315 704.432H462.844C472.746 704.432 480.773 696.407 480.773 686.507V686.503C480.773 676.603 472.746 668.578 462.844 668.578Z" fill="#FF715E"/>
<path d="M334.411 733.549H324.475C324.314 733.536 324.163 733.463 324.054 733.344C323.944 733.225 323.883 733.069 323.883 732.908C323.883 732.746 323.944 732.59 324.054 732.471C324.163 732.352 324.314 732.279 324.475 732.266H334.411C334.5 732.259 334.589 732.27 334.673 732.3C334.757 732.329 334.834 732.375 334.899 732.435C334.964 732.495 335.016 732.568 335.052 732.65C335.088 732.731 335.106 732.819 335.106 732.908C335.106 732.996 335.088 733.084 335.052 733.165C335.016 733.247 334.964 733.32 334.899 733.38C334.834 733.44 334.757 733.486 334.673 733.515C334.589 733.545 334.5 733.556 334.411 733.549Z" fill="white"/>
<path d="M334.411 736.126H324.475C324.314 736.113 324.163 736.04 324.054 735.921C323.944 735.802 323.883 735.646 323.883 735.485C323.883 735.323 323.944 735.167 324.054 735.048C324.163 734.929 324.314 734.856 324.475 734.843H334.411C334.5 734.836 334.589 734.848 334.673 734.877C334.757 734.906 334.834 734.952 334.899 735.012C334.964 735.072 335.016 735.145 335.052 735.227C335.088 735.308 335.106 735.396 335.106 735.485C335.106 735.573 335.088 735.661 335.052 735.743C335.016 735.824 334.964 735.897 334.899 735.957C334.834 736.017 334.757 736.064 334.673 736.093C334.589 736.122 334.5 736.133 334.411 736.126Z" fill="white"/>
<path d="M487.406 737.676C487.319 737.676 487.233 737.659 487.153 737.625C487.073 737.591 487.001 737.541 486.941 737.478L484.059 734.5C484 734.439 483.953 734.367 483.922 734.287C483.89 734.208 483.875 734.123 483.877 734.038C483.879 733.953 483.898 733.869 483.932 733.791C483.967 733.713 484.017 733.643 484.08 733.585L486.965 730.89C487.026 730.828 487.099 730.779 487.179 730.745C487.259 730.712 487.346 730.695 487.433 730.696C487.52 730.697 487.606 730.716 487.685 730.751C487.765 730.786 487.836 730.837 487.896 730.9C487.955 730.964 488.001 731.039 488.031 731.12C488.06 731.202 488.073 731.289 488.068 731.376C488.063 731.463 488.041 731.548 488.002 731.625C487.964 731.703 487.91 731.773 487.843 731.829L485.435 734.075L487.864 736.587C487.951 736.678 488.009 736.793 488.032 736.916C488.055 737.04 488.041 737.168 487.991 737.284C487.942 737.399 487.86 737.498 487.756 737.568C487.651 737.638 487.528 737.675 487.402 737.676H487.406Z" fill="white"/>
<path d="M406.283 738.234C405.482 738.234 404.7 737.997 404.034 737.552C403.369 737.108 402.85 736.476 402.544 735.736C402.237 734.997 402.157 734.183 402.313 733.399C402.47 732.614 402.855 731.893 403.421 731.327C403.987 730.761 404.708 730.375 405.493 730.219C406.278 730.063 407.092 730.143 407.832 730.45C408.571 730.756 409.203 731.275 409.648 731.94C410.093 732.605 410.33 733.388 410.33 734.188C410.33 735.261 409.904 736.29 409.145 737.049C408.386 737.808 407.356 738.234 406.283 738.234ZM406.283 731.44C405.738 731.44 405.204 731.601 404.75 731.903C404.297 732.205 403.943 732.635 403.733 733.139C403.524 733.642 403.469 734.196 403.575 734.731C403.681 735.266 403.943 735.757 404.329 736.143C404.714 736.529 405.205 736.792 405.74 736.898C406.274 737.005 406.829 736.951 407.333 736.742C407.836 736.534 408.267 736.181 408.57 735.727C408.873 735.274 409.035 734.741 409.035 734.196C409.034 733.466 408.744 732.767 408.228 732.25C407.712 731.734 407.013 731.443 406.283 731.44Z" fill="white"/>
<path d="M357.396 449.944C356.988 449.86 356.621 449.641 356.353 449.322C356.085 449.003 355.932 448.604 355.919 448.188C355.822 444.66 355.7 439.055 355.894 438.805C356.174 438.44 344.307 438.258 344.307 438.258C344.307 438.258 344.457 444.817 344.404 448.419C344.401 448.63 344.356 448.838 344.27 449.031C344.183 449.224 344.059 449.398 343.904 449.541C343.749 449.685 343.566 449.795 343.367 449.866C343.167 449.937 342.956 449.966 342.745 449.952C342.753 449.973 342.759 449.995 342.765 450.017C340.693 450.533 338.852 451.728 337.537 453.411C336.222 455.093 335.508 457.168 335.508 459.303C335.508 460.56 335.755 461.804 336.235 462.965C336.716 464.126 337.421 465.181 338.309 466.069C339.198 466.958 340.253 467.663 341.414 468.144C342.575 468.625 343.819 468.873 345.076 468.873H355.413C356.67 468.873 357.914 468.625 359.075 468.144C360.236 467.663 361.291 466.958 362.18 466.069C363.068 465.181 363.773 464.126 364.253 462.965C364.734 461.804 364.981 460.56 364.981 459.303C364.982 457.11 364.229 454.983 362.848 453.279C361.467 451.575 359.542 450.398 357.396 449.944Z" fill="white"/>
<path d="M350.512 444.461C347.692 444.461 344.987 443.341 342.993 441.348C340.999 439.354 339.879 436.651 339.879 433.831V424.007C339.879 421.188 340.999 418.484 342.993 416.491C344.987 414.497 347.692 413.377 350.512 413.377C353.331 413.377 356.036 414.497 358.03 416.491C360.024 418.484 361.144 421.188 361.144 424.007V433.831C361.144 435.227 360.869 436.61 360.334 437.899C359.8 439.189 359.017 440.361 358.03 441.348C357.042 442.335 355.87 443.118 354.58 443.652C353.29 444.186 351.908 444.461 350.512 444.461Z" fill="white"/>
<path d="M355.947 425.642C355.86 426.33 355.979 427.028 356.29 427.648C356.6 428.268 357.087 428.782 357.69 429.125C358.292 429.468 358.983 429.625 359.675 429.575C360.367 429.526 361.028 429.272 361.576 428.847C362.123 428.421 362.532 427.843 362.751 427.185C362.969 426.527 362.988 425.819 362.804 425.15C362.62 424.482 362.241 423.883 361.717 423.43C361.192 422.976 360.545 422.688 359.857 422.603C358.935 422.488 358.006 422.744 357.273 423.314C356.54 423.884 356.063 424.721 355.947 425.642Z" fill="white"/>
<path d="M338.406 425.642C338.319 426.33 338.438 427.028 338.749 427.648C339.059 428.269 339.546 428.783 340.149 429.126C340.752 429.469 341.443 429.626 342.135 429.576C342.827 429.526 343.489 429.272 344.036 428.846C344.583 428.42 344.992 427.841 345.21 427.183C345.429 426.525 345.446 425.817 345.262 425.148C345.077 424.48 344.698 423.881 344.173 423.428C343.648 422.975 343 422.688 342.312 422.603C341.391 422.488 340.462 422.744 339.73 423.314C338.997 423.884 338.521 424.721 338.406 425.642Z" fill="white"/>
<path d="M350.597 439.404C351.64 439.405 352.642 438.991 353.381 438.255C354.12 437.518 354.536 436.518 354.539 435.475H346.671C346.673 436.515 347.087 437.513 347.823 438.249C348.558 438.985 349.556 439.4 350.597 439.404Z" fill="white"/>
<path d="M364.981 459.303C364.982 457.11 364.229 454.983 362.848 453.279C361.467 451.575 359.542 450.398 357.396 449.944C357.127 449.885 356.875 449.769 356.655 449.604C350.904 453.331 345.687 450.87 343.744 449.669C343.454 449.876 343.101 449.976 342.745 449.952C342.753 449.973 342.759 449.995 342.765 450.017C340.693 450.533 338.852 451.728 337.537 453.411C336.222 455.093 335.508 457.168 335.508 459.303C335.508 460.559 335.755 461.804 336.235 462.965C336.716 464.126 337.421 465.181 338.309 466.069C339.198 466.958 340.253 467.663 341.414 468.144C342.575 468.625 343.819 468.872 345.076 468.872H355.413C356.67 468.872 357.914 468.625 359.075 468.144C360.236 467.663 361.291 466.958 362.18 466.069C363.068 465.181 363.773 464.126 364.253 462.965C364.734 461.804 364.981 460.559 364.981 459.303Z" fill="#2D3750"/>
<path d="M337.815 423.162C338.943 423.111 340.049 422.838 341.072 422.359C342.094 421.881 343.012 421.205 343.773 420.372C344.534 419.539 345.123 418.563 345.507 417.502C345.891 416.441 346.062 415.314 346.011 414.187L345.946 412.795C343.672 412.9 341.532 413.902 339.996 415.583C338.461 417.263 337.654 419.484 337.754 421.757L337.815 423.162Z" fill="#376EFF"/>
<path d="M348.516 411.625H356.995C358.379 411.625 359.706 412.175 360.684 413.153C361.662 414.131 362.212 415.458 362.212 416.841V423.141H349.394C347.751 423.141 346.175 422.489 345.013 421.327C343.851 420.165 343.198 418.589 343.198 416.946C343.197 416.248 343.335 415.556 343.602 414.91C343.869 414.265 344.26 413.678 344.754 413.184C345.248 412.69 345.835 412.298 346.48 412.031C347.125 411.763 347.817 411.625 348.516 411.625Z" fill="#376EFF"/>
<path d="M352.821 496.223C353.298 489.558 349.099 483.827 343.44 483.421C337.781 483.016 332.807 488.09 332.329 494.754C331.851 501.419 336.051 507.151 341.71 507.556C347.368 507.962 352.343 502.887 352.821 496.223Z" fill="#FF715E"/>
<path d="M362.692 506.003C363.183 499.153 358.994 493.271 353.335 492.866C347.677 492.46 342.691 497.684 342.2 504.534C341.709 511.384 345.898 517.265 351.557 517.671C357.215 518.076 362.201 512.852 362.692 506.003Z" fill="#FF715E"/>
<path d="M357.084 515.106C356.704 515.028 356.36 514.823 356.11 514.526C355.859 514.229 355.716 513.855 355.704 513.467C355.615 510.181 355.502 504.97 355.68 504.719C355.943 504.379 344.878 504.209 344.878 504.209C344.878 504.209 345.019 510.327 344.971 513.681C344.969 513.878 344.926 514.073 344.846 514.253C344.766 514.433 344.65 514.596 344.506 514.73C344.361 514.864 344.191 514.967 344.005 515.033C343.819 515.099 343.622 515.126 343.425 515.114C343.425 515.114 343.425 515.114 343.425 515.174C341.492 515.656 339.777 516.77 338.551 518.339C337.324 519.909 336.658 521.842 336.658 523.833C336.658 525.004 336.889 526.163 337.337 527.245C337.786 528.326 338.444 529.308 339.273 530.135C340.102 530.962 341.086 531.617 342.168 532.064C343.251 532.51 344.411 532.738 345.582 532.735H355.219C357.58 532.735 359.845 531.797 361.515 530.128C363.185 528.459 364.123 526.194 364.123 523.833C364.128 521.792 363.432 519.812 362.15 518.223C360.869 516.634 359.081 515.533 357.084 515.106Z" fill="white"/>
<path d="M363.951 488.5C364.429 481.834 360.23 476.1 354.571 475.695C348.913 475.289 343.938 480.365 343.46 487.032C342.982 493.699 347.182 499.432 352.84 499.838C358.499 500.243 363.473 495.167 363.951 488.5Z" fill="#FF715E"/>
<path d="M350.669 481.012H350.665C345.191 481.012 340.753 485.448 340.753 490.921V500.086C340.753 505.559 345.191 509.995 350.665 509.995H350.669C356.143 509.995 360.581 505.559 360.581 500.086V490.921C360.581 485.448 356.143 481.012 350.669 481.012Z" fill="white"/>
<path d="M362.33 493.281C362.548 491.493 361.273 489.867 359.482 489.649C357.692 489.431 356.064 490.704 355.846 492.492C355.628 494.28 356.903 495.906 358.694 496.124C360.485 496.341 362.113 495.069 362.33 493.281Z" fill="white"/>
<path d="M339.377 492.447C339.297 493.088 339.408 493.738 339.697 494.316C339.986 494.894 340.44 495.373 341.002 495.692C341.564 496.012 342.207 496.158 342.852 496.112C343.497 496.065 344.113 495.829 344.623 495.432C345.133 495.036 345.514 494.497 345.718 493.883C345.921 493.27 345.938 492.61 345.767 491.987C345.595 491.365 345.242 490.807 344.753 490.384C344.265 489.962 343.661 489.694 343.02 489.614C342.161 489.508 341.296 489.746 340.613 490.277C339.93 490.808 339.486 491.588 339.377 492.447Z" fill="white"/>
<path d="M334.12 489.108C334.12 489.108 346.796 491.026 353.041 480.68C353.26 480.313 353.387 479.899 353.413 479.473C353.44 479.046 353.364 478.62 353.192 478.229C353.02 477.838 352.757 477.494 352.426 477.224C352.094 476.955 351.703 476.769 351.285 476.682C346.161 475.593 336.528 475.488 334.12 489.108Z" fill="#FF715E"/>
<path d="M350.742 505.277C351.712 505.28 352.644 504.898 353.333 504.215C354.023 503.533 354.414 502.606 354.421 501.636H347.083C347.091 502.602 347.479 503.526 348.164 504.208C348.849 504.89 349.776 505.274 350.742 505.277Z" fill="white"/>
<path d="M364.155 523.834C364.159 521.788 363.458 519.804 362.17 518.214C360.882 516.625 359.087 515.527 357.084 515.106C356.834 515.052 356.597 514.944 356.392 514.79C351.03 518.266 346.165 515.972 344.356 514.851C344.084 515.04 343.756 515.133 343.425 515.114C343.425 515.114 343.425 515.114 343.425 515.174C341.492 515.656 339.777 516.771 338.551 518.34C337.324 519.909 336.658 521.842 336.658 523.834C336.658 525.004 336.889 526.163 337.337 527.245C337.786 528.326 338.444 529.308 339.273 530.135C340.102 530.962 341.086 531.617 342.168 532.064C343.251 532.51 344.411 532.738 345.582 532.735H355.219C357.58 532.735 359.845 531.797 361.515 530.128C363.184 528.459 364.123 526.194 364.123 523.834H364.155Z" fill="#2D3750"/>
<path d="M341.684 563.03C343.317 561.444 344.254 559.275 344.29 557C344.326 554.724 343.457 552.527 341.875 550.891L340.907 549.892C339.272 551.476 338.334 553.645 338.298 555.922C338.263 558.198 339.132 560.395 340.717 562.03L341.684 563.03Z" fill="#2D3750"/>
<path d="M359.763 560.906C361.398 559.321 362.337 557.152 362.373 554.875C362.408 552.599 361.538 550.402 359.954 548.767L358.986 547.767C357.353 549.353 356.416 551.522 356.381 553.797C356.345 556.073 357.214 558.27 358.796 559.906L359.763 560.906Z" fill="#2D3750"/>
<path d="M357.278 579.814C356.859 579.728 356.481 579.502 356.206 579.175C355.931 578.848 355.774 578.437 355.761 578.009C355.66 574.368 355.538 568.63 355.732 568.375C356.024 567.999 343.833 567.812 343.833 567.812C343.833 567.812 343.987 574.55 343.935 578.244C343.93 578.46 343.881 578.674 343.792 578.871C343.703 579.068 343.575 579.246 343.416 579.393C343.257 579.54 343.071 579.654 342.867 579.728C342.663 579.801 342.447 579.833 342.231 579.822L342.251 579.891C340.122 580.421 338.232 581.648 336.881 583.376C335.53 585.104 334.796 587.234 334.796 589.428C334.796 590.718 335.05 591.996 335.544 593.188C336.038 594.381 336.763 595.464 337.676 596.376C338.588 597.288 339.672 598.012 340.865 598.506C342.058 598.999 343.336 599.253 344.627 599.252H355.239C357.845 599.252 360.345 598.217 362.189 596.375C364.032 594.533 365.068 592.034 365.069 589.428C365.069 587.176 364.294 584.992 362.876 583.242C361.458 581.492 359.482 580.282 357.278 579.814Z" fill="white"/>
<path d="M350.2 574.845C347.38 574.845 344.676 573.725 342.682 571.732C340.688 569.739 339.568 567.035 339.568 564.216V554.391C339.568 551.572 340.688 548.869 342.682 546.875C344.676 544.882 347.38 543.762 350.2 543.762C353.02 543.762 355.724 544.882 357.718 546.875C359.712 548.869 360.832 551.572 360.832 554.391V564.216C360.832 567.035 359.712 569.739 357.718 571.732C355.724 573.725 353.02 574.845 350.2 574.845Z" fill="white"/>
<path d="M362.484 556.846C362.722 554.93 361.36 553.183 359.442 552.944C357.523 552.705 355.774 554.065 355.535 555.981C355.297 557.896 356.659 559.643 358.577 559.882C360.496 560.121 362.245 558.762 362.484 556.846Z" fill="white"/>
<path d="M338.094 556.026C338.009 556.713 338.13 557.41 338.441 558.028C338.752 558.647 339.239 559.159 339.841 559.501C340.443 559.842 341.133 559.998 341.824 559.947C342.515 559.897 343.175 559.643 343.721 559.217C344.267 558.792 344.675 558.214 344.892 557.557C345.11 556.9 345.128 556.193 344.944 555.526C344.759 554.858 344.381 554.261 343.857 553.808C343.334 553.356 342.687 553.069 342 552.983C341.544 552.927 341.081 552.96 340.638 553.083C340.194 553.205 339.78 553.413 339.417 553.696C339.054 553.978 338.751 554.33 338.524 554.729C338.297 555.129 338.151 555.57 338.094 556.026Z" fill="white"/>
<path d="M350.285 569.783C350.801 569.784 351.313 569.684 351.791 569.487C352.269 569.29 352.703 569.002 353.069 568.637C353.435 568.273 353.726 567.84 353.924 567.363C354.123 566.886 354.226 566.375 354.227 565.858H346.359C346.361 566.899 346.775 567.896 347.511 568.631C348.247 569.367 349.244 569.781 350.285 569.783Z" fill="white"/>
<path d="M365.069 589.428C365.069 587.176 364.294 584.992 362.876 583.242C361.458 581.492 359.482 580.282 357.278 579.814C357.001 579.754 356.74 579.635 356.513 579.466C350.609 583.294 345.25 580.765 343.259 579.531C342.959 579.741 342.596 579.844 342.231 579.822L342.251 579.891C340.122 580.421 338.232 581.648 336.881 583.376C335.53 585.104 334.796 587.234 334.796 589.428C334.796 590.718 335.05 591.996 335.544 593.188C336.038 594.381 336.763 595.464 337.676 596.376C338.588 597.288 339.672 598.012 340.865 598.506C342.058 598.999 343.336 599.253 344.627 599.252H355.239C357.845 599.252 360.345 598.217 362.189 596.375C364.032 594.533 365.068 592.034 365.069 589.428Z" fill="#376EFF"/>
<path d="M338.523 553.545C340.801 553.44 342.943 552.436 344.479 550.752C346.015 549.068 346.819 546.843 346.715 544.567L346.654 543.175C345.527 543.226 344.42 543.499 343.398 543.978C342.375 544.457 341.457 545.133 340.696 545.967C339.935 546.801 339.346 547.776 338.962 548.838C338.578 549.899 338.407 551.026 338.459 552.153L338.523 553.545Z" fill="#2D3750"/>
<path d="M344.335 548.811L352.632 551.603C353.909 552.033 355.258 552.207 356.602 552.115C357.945 552.023 359.258 551.668 360.464 551.069C361.671 550.47 362.748 549.639 363.633 548.624C364.518 547.609 365.195 546.43 365.624 545.153C365.679 544.996 365.701 544.83 365.691 544.664C365.68 544.498 365.637 544.335 365.563 544.186C365.489 544.037 365.386 543.904 365.261 543.795C365.135 543.686 364.989 543.603 364.831 543.551L354.555 540.091C353.694 539.802 352.785 539.684 351.879 539.746C350.973 539.808 350.089 540.047 349.275 540.45C348.462 540.854 347.736 541.414 347.139 542.098C346.542 542.782 346.086 543.577 345.796 544.437L344.335 548.811Z" fill="#2D3750"/>
<path d="M533.169 548.224C532.991 548.381 532.763 548.469 532.525 548.471C530.01 548.537 527.566 547.636 525.695 545.953C523.825 544.271 522.671 541.935 522.472 539.428C522.452 539.241 522.484 539.052 522.566 538.883C522.648 538.714 522.776 538.571 522.935 538.472C523.095 538.372 523.279 538.319 523.467 538.319C523.655 538.32 523.839 538.373 523.998 538.473C524.704 538.924 525.38 539.42 526.021 539.958C528.567 542.09 529.708 544.158 530.368 543.87C531.153 543.531 530.109 540.342 530.89 540.022C531.514 539.767 532.772 541.515 533.282 542.341C533.995 543.49 534.784 544.769 534.408 546.274C534.204 547.035 533.771 547.716 533.169 548.224Z" fill="white"/>
<path d="M606.489 759.219L620.323 739.295L620.044 738.287C619.542 736.474 614.96 734.645 613.107 734.33C610.132 733.828 610.091 735.455 608.25 738.093L605.846 743.62C604.109 746.482 603.38 749.842 603.774 753.165C604.037 755.121 604.698 757.002 605.716 758.693L606.489 759.219Z" fill="#2D3750"/>
<path d="M605.771 745.581L605.663 746.153L609.358 746.849L609.466 746.277L605.771 745.581Z" fill="white"/>
<path d="M604.688 746.99L604.58 747.562L608.275 748.258L608.383 747.685L604.688 746.99Z" fill="white"/>
<path d="M607.474 760.54L622.123 739.119C622.188 739.025 622.163 738.896 622.069 738.832L620.299 737.621C620.205 737.557 620.076 737.581 620.012 737.675L605.363 759.096C605.298 759.191 605.323 759.319 605.417 759.383L607.187 760.594C607.281 760.658 607.41 760.634 607.474 760.54Z" fill="white"/>
<path d="M556.162 761.419L580.425 761.46L581.093 760.651C582.307 759.206 581.198 754.399 580.401 752.696C579.122 749.964 577.762 750.859 574.548 750.855L568.635 752.024C565.293 752.222 562.114 753.534 559.606 755.751C558.146 757.077 556.975 758.69 556.166 760.489L556.162 761.419Z" fill="#2D3750"/>
<path d="M555.849 762.359L581.804 762.404C581.918 762.404 582.01 762.312 582.011 762.198L582.014 760.053C582.015 759.939 581.922 759.847 581.808 759.847L555.853 759.801C555.739 759.801 555.647 759.893 555.646 760.007L555.643 762.152C555.642 762.266 555.735 762.358 555.849 762.359Z" fill="white"/>
<path d="M567.487 752.905L566.953 753.138L568.458 756.583L568.992 756.349L567.487 752.905Z" fill="white"/>
<path d="M565.726 752.901L565.192 753.134L566.697 756.579L567.231 756.346L565.726 752.901Z" fill="white"/>
<path d="M570.801 662.73C570.36 662.564 569.871 662.578 569.44 662.767C569.008 662.957 568.669 663.309 568.494 663.746C564.446 673.862 558.092 694.134 562.224 719.047C564.218 730.963 568.322 742.428 574.346 752.902C574.552 753.251 574.869 753.52 575.246 753.667C575.623 753.813 576.039 753.829 576.426 753.711H576.455C576.901 753.58 577.279 753.281 577.509 752.878C577.74 752.474 577.806 751.997 577.693 751.547C570.975 724.479 574.683 695.876 588.078 671.414C588.201 671.187 588.274 670.937 588.292 670.68C588.31 670.424 588.273 670.166 588.183 669.925C588.092 669.683 587.952 669.464 587.77 669.282C587.587 669.1 587.368 668.959 587.127 668.869L570.801 662.73Z" fill="white"/>
<path d="M576.139 655.196C575.668 655.188 575.212 655.365 574.869 655.689C574.527 656.012 574.324 656.457 574.305 656.928C573.901 667.816 574.751 689.043 587.03 711.112C592.921 721.661 600.647 731.074 609.845 738.91C610.154 739.173 610.544 739.325 610.95 739.339C611.356 739.354 611.755 739.231 612.083 738.991H612.107C612.482 738.716 612.737 738.308 612.818 737.85C612.9 737.393 612.802 736.922 612.544 736.535C597.099 713.307 590.955 685.122 595.331 657.575C595.371 657.32 595.356 657.06 595.286 656.811C595.217 656.562 595.095 656.332 594.928 656.134C594.761 655.937 594.554 655.778 594.321 655.668C594.087 655.557 593.833 655.499 593.575 655.495L576.139 655.196Z" fill="white"/>
<path d="M600.078 541.896C601.892 549.046 598.407 556.119 592.465 558.575C587.767 560.517 581.323 559.655 578.887 556.01C574.398 549.293 583.841 533.642 583.841 533.642C583.841 533.642 595.647 530.299 600.078 541.896Z" fill="#376EFF"/>
<path d="M571.901 583.274C554.734 574.832 540.842 560.952 532.388 543.794L533.687 542.24C544.535 557.379 560.273 568.315 578.248 573.202L571.901 583.274Z" fill="white"/>
<path d="M589.552 565.437L588.374 556.98L581.461 559.008L580.243 568.156L589.552 565.437Z" fill="white"/>
<path d="M596.573 544.445C598.391 551.595 594.906 558.664 588.965 561.12C584.262 563.066 577.819 562.205 575.382 558.555C570.894 551.842 580.34 536.187 580.34 536.187C580.34 536.187 592.142 532.849 596.573 544.445Z" fill="white"/>
<path d="M598.504 550.733C598.504 550.733 598.61 532.739 589.147 530.097C579.684 527.455 569.623 539.359 598.504 550.733Z" fill="#2D3750"/>
<path d="M533.679 545.081C533.502 545.239 533.273 545.326 533.036 545.328C530.532 545.359 528.104 544.467 526.216 542.823C524.358 541.124 523.203 538.791 522.978 536.284C522.958 536.097 522.99 535.909 523.072 535.739C523.154 535.57 523.282 535.428 523.441 535.328C523.601 535.228 523.785 535.176 523.973 535.176C524.161 535.176 524.345 535.229 524.504 535.329C525.21 535.781 525.886 536.279 526.528 536.818C529.073 538.947 530.215 541.014 530.874 540.731C531.659 540.391 530.615 537.203 531.4 536.879C532.02 536.624 533.283 538.376 533.792 539.197C534.501 540.347 535.294 541.625 534.918 543.134C534.712 543.894 534.28 544.573 533.679 545.081Z" fill="white"/>
<path d="M571.132 622.167C560.877 637.241 553.478 654.071 549.305 671.819C546.847 682.342 545.555 693.104 545.452 703.91C556.83 706.542 568.624 706.834 580.117 704.768C584.037 704.046 587.9 703.044 591.677 701.769C587.266 687.817 585.665 673.129 586.965 658.555C587.69 672.985 590.428 687.243 595.101 700.916L601.944 698.346C604.819 689.345 606.405 679.982 606.655 670.536C607.149 651.276 602.357 628.382 598.52 619.618C589.535 617.886 580.117 623.878 571.132 622.167Z" fill="#2D3750"/>
<path d="M592.288 540.694C597.314 526.127 609.31 517.424 620.023 518.751C628.065 519.742 635.176 526.362 638.066 533.722C643.732 548.111 631.186 560.023 637.301 569.144C639.414 572.288 644.016 575.508 654.996 575.707C647.816 582.379 637.779 584.795 628.847 581.857C617.672 578.183 609.889 566.683 611.277 558.158C612.184 552.594 616.676 550.203 615.272 546.193C613.722 541.77 606.753 540.391 604.344 539.909C600.324 539.139 596.174 539.409 592.288 540.694Z" fill="#2D3750"/>
<path d="M464.641 463.774L469.943 487.955L487.01 474.384L464.641 463.774Z" fill="#D7DFF4"/>
<path d="M464.56 463.669L466.818 473.991L474.103 468.197L464.56 463.669Z" fill="#FF715E"/>
<path d="M487.056 474.475L469.987 488.044L631.876 691.59L648.945 678.022L487.056 474.475Z" fill="#FF715E"/>
<path d="M590.187 586.717C589.143 591.916 586.663 596.718 583.027 600.579C581.275 602.416 576.71 607.203 570.606 607.903C562.407 608.846 553.345 602.19 548.601 591.313L550.912 589.626C551.345 590.249 558.748 600.6 568.376 599.297C570.869 598.909 573.194 597.802 575.066 596.112C581.453 590.532 579.976 581.278 579.842 580.514L590.187 586.717Z" fill="white"/>
<path d="M549.508 591.451C549.265 591.55 548.995 591.559 548.747 591.475C546.135 590.594 543.938 588.784 542.575 586.389C541.265 583.946 540.916 581.101 541.595 578.414C541.642 578.212 541.745 578.028 541.893 577.883C542.04 577.737 542.225 577.636 542.427 577.591C542.629 577.545 542.839 577.558 543.035 577.627C543.23 577.696 543.401 577.819 543.53 577.981C544.1 578.707 544.623 579.47 545.096 580.263C546.966 583.403 547.399 585.968 548.188 585.928C549.127 585.863 549.204 582.169 550.135 582.12C550.872 582.08 551.544 584.358 551.754 585.398C552.074 586.85 552.43 588.469 551.491 589.897C551.001 590.603 550.31 591.145 549.508 591.451Z" fill="white"/>
<path d="M284.185 314.025C293.923 311.399 312.111 307.466 340.847 306.123L367.838 319.01C360.752 323.043 353.089 325.965 345.117 327.673C336.35 329.538 329.53 329.251 316.563 329.081C307.493 328.964 298.439 328.31 289.446 327.123C285.124 324.193 281.417 320.333 277.219 317.209C279.433 315.36 281.89 314.644 284.185 314.025Z" fill="#376EFF"/>
<path d="M294.137 277.945C293.882 278.156 293.558 278.269 293.226 278.26C289.699 278.25 286.31 276.885 283.76 274.449C281.209 272.012 279.692 268.689 279.522 265.166C279.502 264.904 279.556 264.641 279.678 264.408C279.8 264.175 279.985 263.981 280.213 263.849C280.44 263.716 280.7 263.65 280.963 263.658C281.226 263.667 281.481 263.749 281.7 263.896C282.673 264.556 283.601 265.279 284.48 266.061C287.957 269.148 289.471 272.09 290.405 271.725C291.518 271.284 290.187 266.773 291.3 266.356C292.178 266.024 293.87 268.529 294.538 269.702C295.485 271.321 296.561 273.162 295.95 275.258C295.635 276.318 295.002 277.256 294.137 277.945Z" fill="white"/>
<path d="M341.693 258.797C339.382 264.644 334.035 275.387 323.415 277.92C322.633 278.1 321.841 278.235 321.043 278.325C316.263 278.956 307.113 279.005 294.21 271.944L293.275 274.578C306.416 288.74 317.818 290.763 322.792 291.127C323.882 291.219 324.978 291.234 326.07 291.172C340.357 290.282 349.9 274.44 353.397 267.885L341.693 258.797Z" fill="white"/>
<path d="M287.811 273.595C287.324 273.595 286.845 273.467 286.423 273.223C286.001 272.98 285.65 272.629 285.407 272.207L279.203 261.411C279.011 261.096 278.885 260.745 278.831 260.38C278.777 260.015 278.797 259.643 278.889 259.285C278.981 258.928 279.144 258.593 279.367 258.299C279.591 258.006 279.871 257.76 280.191 257.576C280.511 257.392 280.865 257.274 281.231 257.229C281.598 257.184 281.969 257.213 282.324 257.313C282.679 257.414 283.011 257.585 283.299 257.815C283.587 258.046 283.827 258.331 284.003 258.656L290.207 269.447C290.449 269.868 290.576 270.344 290.576 270.83C290.575 271.315 290.447 271.791 290.205 272.211C289.962 272.631 289.613 272.98 289.193 273.223C288.773 273.466 288.296 273.594 287.811 273.595Z" fill="#2D3750"/>
<path d="M295.736 279.478C295.479 279.689 295.157 279.802 294.825 279.798C291.299 279.787 287.912 278.425 285.362 275.99C282.812 273.556 281.294 270.236 281.121 266.716C281.1 266.454 281.153 266.191 281.274 265.957C281.396 265.724 281.581 265.53 281.808 265.397C282.035 265.264 282.295 265.198 282.558 265.207C282.821 265.215 283.076 265.298 283.294 265.445C284.268 266.105 285.197 266.828 286.075 267.61C289.555 270.697 291.065 273.643 292 273.275C293.117 272.83 291.786 268.322 292.895 267.901C293.773 267.574 295.469 270.074 296.132 271.248C297.079 272.886 298.136 274.707 297.545 276.803C297.227 277.858 296.596 278.79 295.736 279.478Z" fill="white"/>
<path d="M370.663 322.186C370.663 322.186 393.328 270.976 351.892 234.442L339.523 241.353L329.539 304.783L370.663 322.186Z" fill="#FF715E"/>
<path d="M329.328 213.859L329.275 209.833C329.275 209.833 345.189 198.366 355.299 209.869L352.094 221.976L347.023 221.098L329.328 213.859Z" fill="#2D3750"/>
<path d="M349.577 210.181C349.577 210.181 352.904 228.013 350.107 231.032C347.31 234.05 338.062 239.185 332.258 236.883C326.455 234.58 328.855 209.825 328.855 209.825C328.855 209.825 339.264 200.527 349.577 210.181Z" fill="white"/>
<path d="M351.782 234.434L347.326 222.87L338.22 228.017L339.523 241.35L351.782 234.434Z" fill="white"/>
<path d="M337.674 268.593C331.959 278.944 326.232 285.337 322.367 289.055C321.035 290.334 319.963 291.265 318.32 291.762C309.306 294.506 298.023 279.522 296.161 276.997L294.105 279.166C299.589 294.874 309.027 305.297 318.761 305.334C322.808 305.334 325.949 303.573 329.737 301.372C334.913 298.366 344.514 291.572 352.021 277.175L337.674 268.593Z" fill="white"/>
<path d="M368.129 265.822L360.48 281.999L333.116 271.559L339.523 241.35L368.129 265.822Z" fill="#FF715E"/>
<path d="M352.041 211.909C353.256 208.55 347.359 201.36 339.9 201.016C332.991 200.692 326.58 206.349 326.038 214.005C345.452 216.339 351.119 214.494 352.041 211.909Z" fill="#2D3750"/>
<path d="M346.776 213.2C349.281 218.698 347.205 225.132 342.292 227.96C337.892 230.489 332.08 229.636 328.369 225.759C328.151 228.434 328.441 231.126 329.223 233.694C329.769 235.478 330.255 237.056 331.158 237.882C333.906 240.407 341.972 237.267 350.989 230.599C351.353 227.526 351.542 224.435 351.556 221.341C351.588 214.725 350.783 213.442 349.872 212.965C348.889 212.455 347.666 212.803 346.776 213.2Z" fill="#2D3750"/>
<path d="M337.767 232.063C337.126 232.571 336.383 232.935 335.589 233.13C334.795 233.326 333.968 233.348 333.165 233.196C331.999 232.93 330.955 232.285 330.194 231.363L337.767 232.063Z" fill="white"/>
<path d="M273.326 418.994L303.81 413.964L304.486 412.811C305.7 410.744 303.304 404.937 301.948 402.963C299.771 399.802 298.245 401.206 294.206 401.874L283.278 403.675C281.681 403.938 280.152 404.513 278.778 405.367C277.403 406.222 276.211 407.338 275.268 408.653C274.326 409.968 273.651 411.456 273.284 413.032C272.917 414.608 272.864 416.24 273.128 417.837L273.326 418.994Z" fill="#2D3750"/>
<path d="M273.122 420.227L305.747 414.845C305.888 414.822 305.984 414.688 305.96 414.547L305.514 411.844C305.491 411.703 305.358 411.608 305.216 411.631L272.591 417.013C272.45 417.037 272.355 417.17 272.378 417.311L272.824 420.014C272.847 420.155 272.981 420.25 273.122 420.227Z" fill="white"/>
<path d="M297.774 404.437L291.686 405.675C291.265 405.76 290.827 405.675 290.469 405.438C290.111 405.201 289.862 404.832 289.777 404.411L288.014 395.743L297.259 393.864L299.025 402.548C299.105 402.964 299.019 403.395 298.785 403.748C298.551 404.101 298.188 404.349 297.774 404.437Z" fill="white"/>
<path d="M284.477 403.525L283.856 403.929L286.469 407.941L287.09 407.537L284.477 403.525Z" fill="white"/>
<path d="M282.248 403.86L281.627 404.264L284.24 408.275L284.861 407.871L282.248 403.86Z" fill="white"/>
<path d="M284.331 313.743C288.528 316.866 285.124 324.194 289.446 327.123C288.175 326.953 286.921 326.779 285.69 326.597C287.398 339.497 289.519 352.967 292.166 366.939C294.244 377.977 296.481 388.594 298.876 398.791L288.936 401.089C286.751 392.798 283.926 381.962 280.692 369.245C272.444 336.806 269.764 324.61 276.386 317.987C276.649 317.707 284.044 313.985 284.331 313.743Z" fill="#2D3750"/>
<path d="M313.099 419.33L338.596 401.903L338.722 400.571C338.944 398.188 334.326 393.936 332.246 392.718C328.936 390.771 328.15 392.689 324.771 394.996L315.628 401.243C314.291 402.154 313.147 403.32 312.261 404.673C311.375 406.027 310.764 407.541 310.463 409.131C310.163 410.72 310.178 412.353 310.509 413.936C310.839 415.52 311.479 417.023 312.39 418.359L313.099 419.33Z" fill="#2D3750"/>
<path d="M307.546 412.518L334.991 394.005C335.11 393.925 335.141 393.764 335.061 393.645L333.526 391.372C333.446 391.253 333.285 391.222 333.166 391.302L305.721 409.814C305.603 409.895 305.571 410.056 305.651 410.174L307.186 412.448C307.266 412.567 307.427 412.598 307.546 412.518Z" fill="white"/>
<path d="M329.15 395.893L324.154 399.585C323.809 399.84 323.376 399.948 322.951 399.884C322.527 399.82 322.145 399.59 321.89 399.245L316.631 392.132L324.205 386.536L329.471 393.658C329.719 393.999 329.824 394.423 329.764 394.841C329.704 395.258 329.484 395.636 329.15 395.893Z" fill="white"/>
<path d="M316.825 400.745L316.433 401.373L320.495 403.907L320.888 403.279L316.825 400.745Z" fill="white"/>
<path d="M314.972 402.012L314.58 402.641L318.642 405.174L319.034 404.546L314.972 402.012Z" fill="white"/>
<path fill-rule="evenodd" clip-rule="evenodd" d="M294.389 329.208C302.128 350.108 312.76 369.821 325.977 387.769L317.279 394.016C315.235 390.63 278.486 329.68 277.839 322.927C277.707 321.454 277.93 319.971 278.49 318.602C278.49 318.602 279.745 315.862 283.44 314.122C284.236 313.785 285.063 313.528 285.91 313.355C285.91 313.353 285.909 313.351 285.909 313.349C302.149 307.435 319.27 304.299 336.552 304.071L368.526 320.872C359.072 327.404 348.31 331.8 336.985 333.755C317.489 337.089 301.755 332.122 294.389 329.208Z" fill="#4D566F"/>
<path d="M291.158 224.096H269.712V245.537H291.158V224.096Z" fill="white"/>
<path d="M291.17 246.731H269.72C269.404 246.731 269.102 246.606 268.879 246.383C268.655 246.159 268.53 245.857 268.53 245.541V224.096C268.535 223.782 268.662 223.482 268.884 223.259C269.106 223.036 269.406 222.909 269.72 222.902H291.17C291.489 222.902 291.795 223.027 292.022 223.251C292.249 223.474 292.379 223.778 292.385 224.096V245.541C292.378 245.859 292.248 246.162 292.021 246.384C291.793 246.606 291.488 246.731 291.17 246.731ZM270.934 244.348H289.956V225.29H270.894L270.934 244.348Z" fill="#2D3750"/>
<path d="M280.838 240.994C280.603 240.993 280.374 240.926 280.175 240.802C279.976 240.678 279.816 240.5 279.713 240.29C277.515 235.75 274.037 231.953 269.708 229.365C269.562 229.283 269.434 229.172 269.332 229.04C269.23 228.907 269.155 228.756 269.113 228.594C269.07 228.432 269.06 228.263 269.084 228.098C269.108 227.932 269.165 227.773 269.251 227.63C269.338 227.487 269.452 227.362 269.587 227.264C269.722 227.166 269.876 227.096 270.039 227.058C270.202 227.02 270.371 227.015 270.536 227.044C270.701 227.072 270.858 227.134 270.999 227.224C273.849 228.93 276.379 231.121 278.474 233.698C279.278 234.688 280.014 235.732 280.676 236.822C282.576 232.658 285.313 228.929 288.715 225.866C292.118 222.803 296.114 220.472 300.455 219.018C300.611 218.965 300.775 218.943 300.939 218.954C301.104 218.964 301.264 219.007 301.412 219.079C301.56 219.152 301.692 219.253 301.8 219.376C301.909 219.5 301.992 219.644 302.045 219.799C302.099 219.955 302.12 220.12 302.11 220.284C302.1 220.448 302.057 220.608 301.984 220.756C301.912 220.904 301.811 221.036 301.687 221.144C301.564 221.253 301.42 221.336 301.264 221.389C296.851 222.868 292.828 225.325 289.497 228.576C286.166 231.827 283.613 235.788 282.028 240.164C281.942 240.393 281.79 240.592 281.592 240.736C281.395 240.88 281.159 240.962 280.915 240.973L280.838 240.994Z" fill="#2D3750"/>
<path d="M349.52 690.672V682.152H356.096V690.672H355.016V683.112H350.6V690.672H349.52ZM358.733 690.672V682.152H362.285C362.661 682.152 363.005 682.232 363.317 682.392C363.629 682.544 363.901 682.752 364.133 683.016C364.365 683.272 364.545 683.564 364.673 683.892C364.801 684.212 364.865 684.54 364.865 684.876C364.865 685.34 364.761 685.784 364.553 686.208C364.345 686.624 364.053 686.964 363.677 687.228C363.301 687.484 362.861 687.612 362.357 687.612H359.813V690.672H358.733ZM359.813 686.652H362.297C362.593 686.652 362.849 686.572 363.065 686.412C363.289 686.252 363.461 686.036 363.581 685.764C363.709 685.492 363.773 685.196 363.773 684.876C363.773 684.54 363.701 684.24 363.557 683.976C363.413 683.704 363.225 683.492 362.993 683.34C362.761 683.188 362.505 683.112 362.225 683.112H359.813V686.652ZM370.266 690.732C369.666 690.732 369.122 690.612 368.634 690.372C368.146 690.132 367.722 689.808 367.362 689.4C367.01 688.984 366.738 688.52 366.546 688.008C366.354 687.488 366.258 686.956 366.258 686.412C366.258 685.844 366.358 685.304 366.558 684.792C366.766 684.272 367.05 683.812 367.41 683.412C367.778 683.004 368.206 682.684 368.694 682.452C369.182 682.212 369.714 682.092 370.29 682.092C370.89 682.092 371.434 682.216 371.922 682.464C372.41 682.712 372.83 683.044 373.182 683.46C373.534 683.876 373.806 684.34 373.998 684.852C374.19 685.364 374.286 685.888 374.286 686.424C374.286 686.992 374.186 687.536 373.986 688.056C373.786 688.568 373.502 689.028 373.134 689.436C372.774 689.836 372.35 690.152 371.862 690.384C371.374 690.616 370.842 690.732 370.266 690.732ZM367.35 686.412C367.35 686.844 367.418 687.264 367.554 687.672C367.698 688.072 367.898 688.428 368.154 688.74C368.41 689.052 368.718 689.3 369.078 689.484C369.438 689.668 369.838 689.76 370.278 689.76C370.734 689.76 371.142 689.664 371.502 689.472C371.862 689.28 372.166 689.024 372.414 688.704C372.67 688.384 372.862 688.024 372.99 687.624C373.126 687.224 373.194 686.82 373.194 686.412C373.194 685.98 373.122 685.564 372.978 685.164C372.842 684.764 372.642 684.408 372.378 684.096C372.122 683.776 371.814 683.528 371.454 683.352C371.102 683.168 370.71 683.076 370.278 683.076C369.822 683.076 369.414 683.172 369.054 683.364C368.694 683.548 368.386 683.8 368.13 684.12C367.882 684.44 367.69 684.8 367.554 685.2C367.418 685.592 367.35 685.996 367.35 686.412ZM376.386 690.672V682.152H381.342V683.112H377.466V690.672H376.386ZM386.724 690.732C386.124 690.732 385.58 690.612 385.092 690.372C384.604 690.132 384.18 689.808 383.82 689.4C383.468 688.984 383.196 688.52 383.004 688.008C382.812 687.488 382.716 686.956 382.716 686.412C382.716 685.844 382.816 685.304 383.016 684.792C383.224 684.272 383.508 683.812 383.868 683.412C384.236 683.004 384.664 682.684 385.152 682.452C385.64 682.212 386.172 682.092 386.748 682.092C387.348 682.092 387.892 682.216 388.38 682.464C388.868 682.712 389.288 683.044 389.64 683.46C389.992 683.876 390.264 684.34 390.456 684.852C390.648 685.364 390.744 685.888 390.744 686.424C390.744 686.992 390.644 687.536 390.444 688.056C390.244 688.568 389.96 689.028 389.592 689.436C389.232 689.836 388.808 690.152 388.32 690.384C387.832 690.616 387.3 690.732 386.724 690.732ZM383.808 686.412C383.808 686.844 383.876 687.264 384.012 687.672C384.156 688.072 384.356 688.428 384.612 688.74C384.868 689.052 385.176 689.3 385.536 689.484C385.896 689.668 386.296 689.76 386.736 689.76C387.192 689.76 387.6 689.664 387.96 689.472C388.32 689.28 388.624 689.024 388.872 688.704C389.128 688.384 389.32 688.024 389.448 687.624C389.584 687.224 389.652 686.82 389.652 686.412C389.652 685.98 389.58 685.564 389.436 685.164C389.3 684.764 389.1 684.408 388.836 684.096C388.58 683.776 388.272 683.528 387.912 683.352C387.56 683.168 387.168 683.076 386.736 683.076C386.28 683.076 385.872 683.172 385.512 683.364C385.152 683.548 384.844 683.8 384.588 684.12C384.34 684.44 384.148 684.8 384.012 685.2C383.876 685.592 383.808 685.996 383.808 686.412ZM398.484 690.672V683.112H395.304L395.256 684.804C395.216 685.964 395.128 686.928 394.992 687.696C394.864 688.456 394.676 689.056 394.428 689.496C394.188 689.928 393.888 690.236 393.528 690.42C393.168 690.604 392.74 690.696 392.244 690.696V689.748C392.548 689.748 392.816 689.672 393.048 689.52C393.28 689.368 393.476 689.104 393.636 688.728C393.804 688.344 393.936 687.812 394.032 687.132C394.128 686.452 394.192 685.584 394.224 684.528L394.296 682.152H399.564V690.672H398.484ZM405.666 690.732C405.066 690.732 404.522 690.612 404.034 690.372C403.546 690.132 403.122 689.808 402.762 689.4C402.41 688.984 402.138 688.52 401.946 688.008C401.754 687.488 401.658 686.956 401.658 686.412C401.658 685.844 401.758 685.304 401.958 684.792C402.166 684.272 402.45 683.812 402.81 683.412C403.178 683.004 403.606 682.684 404.094 682.452C404.582 682.212 405.114 682.092 405.69 682.092C406.29 682.092 406.834 682.216 407.322 682.464C407.81 682.712 408.23 683.044 408.582 683.46C408.934 683.876 409.206 684.34 409.398 684.852C409.59 685.364 409.686 685.888 409.686 686.424C409.686 686.992 409.586 687.536 409.386 688.056C409.186 688.568 408.902 689.028 408.534 689.436C408.174 689.836 407.75 690.152 407.262 690.384C406.774 690.616 406.242 690.732 405.666 690.732ZM402.75 686.412C402.75 686.844 402.818 687.264 402.954 687.672C403.098 688.072 403.298 688.428 403.554 688.74C403.81 689.052 404.118 689.3 404.478 689.484C404.838 689.668 405.238 689.76 405.678 689.76C406.134 689.76 406.542 689.664 406.902 689.472C407.262 689.28 407.566 689.024 407.814 688.704C408.07 688.384 408.262 688.024 408.39 687.624C408.526 687.224 408.594 686.82 408.594 686.412C408.594 685.98 408.522 685.564 408.378 685.164C408.242 684.764 408.042 684.408 407.778 684.096C407.522 683.776 407.214 683.528 406.854 683.352C406.502 683.168 406.11 683.076 405.678 683.076C405.222 683.076 404.814 683.172 404.454 683.364C404.094 683.548 403.786 683.8 403.53 684.12C403.282 684.44 403.09 684.8 402.954 685.2C402.818 685.592 402.75 685.996 402.75 686.412ZM411.234 686.352C411.234 685.832 411.322 685.324 411.498 684.828C411.682 684.324 411.946 683.868 412.29 683.46C412.642 683.044 413.07 682.716 413.574 682.476C414.078 682.228 414.65 682.104 415.29 682.104C416.05 682.104 416.702 682.28 417.246 682.632C417.79 682.976 418.194 683.42 418.458 683.964L417.606 684.516C417.438 684.156 417.222 683.872 416.958 683.664C416.702 683.448 416.422 683.296 416.118 683.208C415.822 683.12 415.53 683.076 415.242 683.076C414.77 683.076 414.35 683.172 413.982 683.364C413.622 683.556 413.318 683.812 413.07 684.132C412.822 684.452 412.634 684.812 412.506 685.212C412.386 685.604 412.326 686 412.326 686.4C412.326 686.84 412.398 687.264 412.542 687.672C412.694 688.08 412.902 688.44 413.166 688.752C413.43 689.064 413.742 689.312 414.102 689.496C414.462 689.68 414.854 689.772 415.278 689.772C415.574 689.772 415.878 689.72 416.19 689.616C416.502 689.512 416.794 689.352 417.066 689.136C417.338 688.912 417.554 688.624 417.714 688.272L418.614 688.764C418.438 689.188 418.166 689.548 417.798 689.844C417.43 690.14 417.018 690.364 416.562 690.516C416.114 690.668 415.67 690.744 415.23 690.744C414.646 690.744 414.11 690.62 413.622 690.372C413.134 690.116 412.71 689.78 412.35 689.364C411.998 688.94 411.722 688.468 411.522 687.948C411.33 687.42 411.234 686.888 411.234 686.352ZM423.928 690.732C423.328 690.732 422.784 690.612 422.296 690.372C421.808 690.132 421.384 689.808 421.024 689.4C420.672 688.984 420.4 688.52 420.208 688.008C420.016 687.488 419.92 686.956 419.92 686.412C419.92 685.844 420.02 685.304 420.22 684.792C420.428 684.272 420.712 683.812 421.072 683.412C421.44 683.004 421.868 682.684 422.356 682.452C422.844 682.212 423.376 682.092 423.952 682.092C424.552 682.092 425.096 682.216 425.584 682.464C426.072 682.712 426.492 683.044 426.844 683.46C427.196 683.876 427.468 684.34 427.66 684.852C427.852 685.364 427.948 685.888 427.948 686.424C427.948 686.992 427.848 687.536 427.648 688.056C427.448 688.568 427.164 689.028 426.796 689.436C426.436 689.836 426.012 690.152 425.524 690.384C425.036 690.616 424.504 690.732 423.928 690.732ZM421.012 686.412C421.012 686.844 421.08 687.264 421.216 687.672C421.36 688.072 421.56 688.428 421.816 688.74C422.072 689.052 422.38 689.3 422.74 689.484C423.1 689.668 423.5 689.76 423.94 689.76C424.396 689.76 424.804 689.664 425.164 689.472C425.524 689.28 425.828 689.024 426.076 688.704C426.332 688.384 426.524 688.024 426.652 687.624C426.788 687.224 426.856 686.82 426.856 686.412C426.856 685.98 426.784 685.564 426.64 685.164C426.504 684.764 426.304 684.408 426.04 684.096C425.784 683.776 425.476 683.528 425.116 683.352C424.764 683.168 424.372 683.076 423.94 683.076C423.484 683.076 423.076 683.172 422.716 683.364C422.356 683.548 422.048 683.8 421.792 684.12C421.544 684.44 421.352 684.8 421.216 685.2C421.08 685.592 421.012 685.996 421.012 686.412ZM436.589 688.476C436.589 688.916 436.477 689.3 436.253 689.628C436.029 689.956 435.725 690.212 435.341 690.396C434.965 690.58 434.549 690.672 434.093 690.672H430.049V682.152H434.285C434.685 682.152 435.029 682.26 435.317 682.476C435.613 682.684 435.837 682.956 435.989 683.292C436.149 683.62 436.229 683.964 436.229 684.324C436.229 684.74 436.121 685.132 435.905 685.5C435.697 685.86 435.397 686.128 435.005 686.304C435.493 686.448 435.877 686.716 436.157 687.108C436.445 687.492 436.589 687.948 436.589 688.476ZM431.129 683.088V685.932H433.841C434.217 685.932 434.529 685.796 434.777 685.524C435.033 685.244 435.161 684.908 435.161 684.516C435.161 684.116 435.041 683.78 434.801 683.508C434.569 683.228 434.273 683.088 433.913 683.088H431.129ZM435.497 688.284C435.497 688.02 435.437 687.776 435.317 687.552C435.205 687.328 435.049 687.148 434.849 687.012C434.657 686.876 434.433 686.808 434.177 686.808H431.129V689.736H434.093C434.357 689.736 434.593 689.668 434.801 689.532C435.017 689.396 435.185 689.22 435.305 689.004C435.433 688.78 435.497 688.54 435.497 688.284ZM441.116 682.152H442.028L445.508 690.672H444.356L443.348 688.176H439.772L438.776 690.672H437.624L441.116 682.152ZM443.108 687.336L441.572 683.4L439.988 687.336H443.108ZM452.592 683.112H449.652V690.672H448.572V683.112H445.632V682.152H452.592V683.112ZM454.419 690.672V682.152H455.499V685.38H457.539C458.467 685.38 459.167 685.624 459.639 686.112C460.119 686.6 460.359 687.236 460.359 688.02C460.359 688.516 460.255 688.968 460.047 689.376C459.839 689.776 459.531 690.092 459.123 690.324C458.715 690.556 458.211 690.672 457.611 690.672H454.419ZM455.499 689.772H457.467C457.891 689.772 458.235 689.692 458.499 689.532C458.763 689.364 458.955 689.148 459.075 688.884C459.195 688.612 459.255 688.324 459.255 688.02C459.255 687.716 459.199 687.432 459.087 687.168C458.983 686.904 458.799 686.692 458.535 686.532C458.271 686.364 457.911 686.28 457.455 686.28H455.499V689.772Z" fill="white"/>
</svg>
