<svg width="970" height="858" viewBox="0 0 970 858" fill="none" xmlns="http://www.w3.org/2000/svg">
<path d="M477.219 246.215L478.068 246.215L478.068 173.337L477.219 173.337L477.219 246.215Z" fill="white" stroke="white"/>
<path d="M424.25 540.263C420.103 544.409 420.103 551.132 424.25 555.278C428.398 559.424 435.123 559.424 439.27 555.278C443.418 551.132 443.418 544.409 439.27 540.263C435.123 536.117 428.398 536.117 424.25 540.263Z" fill="white" stroke="white"/>
<path d="M470.136 236.435C465.988 240.582 465.988 247.304 470.136 251.45C474.284 255.597 481.008 255.597 485.156 251.45C489.304 247.304 489.304 240.582 485.156 236.435C481.008 232.289 474.284 232.289 470.136 236.435Z" fill="white" stroke="white"/>
<path d="M724.066 323.092C721.016 323.092 718.544 325.564 718.544 328.613C718.544 331.663 721.016 334.134 724.066 334.134C727.116 334.134 729.589 331.663 729.589 328.613C729.589 325.564 727.116 323.092 724.066 323.092Z" fill="white" stroke="white"/>
<path d="M693.474 323.092C690.424 323.092 687.952 325.564 687.952 328.613C687.952 331.663 690.424 334.134 693.474 334.134C696.524 334.134 698.997 331.663 698.997 328.613C698.997 325.564 696.524 323.092 693.474 323.092Z" fill="white" stroke="white"/>
<path d="M580.048 602.985C577.23 604.152 575.892 607.381 577.059 610.198C578.226 613.015 581.457 614.353 584.274 613.186C587.092 612.019 588.43 608.79 587.263 605.973C586.096 603.156 582.866 601.818 580.048 602.985Z" fill="white" stroke="white"/>
<path d="M845.577 454.758C842.527 454.758 840.055 457.229 840.055 460.278C840.055 463.328 842.527 465.799 845.577 465.799C848.627 465.799 851.1 463.328 851.1 460.278C851.1 457.229 848.627 454.758 845.577 454.758Z" fill="white" stroke="white"/>
<path d="M901.653 388.842C898.603 388.842 896.13 391.313 896.13 394.362C896.13 397.412 898.603 399.883 901.653 399.883C904.703 399.883 907.176 397.412 907.176 394.362C907.176 391.313 904.703 388.842 901.653 388.842Z" fill="white" stroke="white"/>
<path d="M477.644 167.64C474.594 167.64 472.121 170.112 472.121 173.161C472.121 176.21 474.594 178.682 477.644 178.682C480.694 178.682 483.166 176.21 483.166 173.161C483.166 170.112 480.694 167.64 477.644 167.64Z" fill="white" stroke="white"/>
<path d="M531.385 810.68C530.893 813.69 532.935 816.527 535.946 817.018C538.956 817.51 541.794 815.468 542.286 812.459C542.777 809.45 540.735 806.612 537.725 806.121C534.715 805.63 531.876 807.671 531.385 810.68Z" fill="white" stroke="white"/>
<path d="M880.045 827.262C879.553 830.272 881.595 833.109 884.606 833.601C887.616 834.092 890.454 832.05 890.946 829.041C891.437 826.032 889.395 823.194 886.385 822.703C883.375 822.212 880.536 824.253 880.045 827.262Z" fill="white" stroke="white"/>
<path d="M936.156 524.751C935.664 527.76 937.706 530.598 940.716 531.089C943.727 531.58 946.565 529.539 947.057 526.53C947.548 523.521 945.506 520.683 942.496 520.192C939.485 519.701 936.647 521.742 936.156 524.751Z" fill="white" stroke="white"/>
<path d="M879.819 783.616C879.328 786.626 881.37 789.463 884.38 789.955C887.391 790.446 890.229 788.404 890.72 785.395C891.212 782.386 889.17 779.548 886.16 779.057C883.149 778.566 880.311 780.607 879.819 783.616Z" fill="white" stroke="white"/>
<path d="M553.523 145.664C551.332 146.251 550.032 148.503 550.619 150.693C551.206 152.884 553.459 154.184 555.65 153.596C557.842 153.009 559.142 150.757 558.555 148.567C557.967 146.376 555.715 145.076 553.523 145.664Z" fill="white" stroke="white"/>
<path d="M884.581 95.3168C882.39 95.904 881.089 98.1558 881.677 100.346C882.264 102.537 884.517 103.837 886.708 103.25C888.899 102.663 890.2 100.411 889.612 98.2201C889.025 96.0295 886.772 94.7297 884.581 95.3168Z" fill="white" stroke="white"/>
<path d="M845.714 384.813C841.566 388.959 841.566 395.682 845.714 399.828C849.862 403.974 856.586 403.974 860.734 399.828C864.882 395.682 864.882 388.959 860.734 384.813C856.586 380.666 849.862 380.666 845.714 384.813Z" fill="white" stroke="white"/>
<path d="M582.286 504.027C583.712 504.046 585.138 504.135 586.563 504.29L586.472 505.136C585.087 504.984 583.674 504.895 582.277 504.879L582.286 504.027ZM578.002 504.182L578.075 505.031C576.678 505.149 575.287 505.337 573.909 505.595L573.753 504.759C575.151 504.499 576.58 504.306 578.002 504.182ZM590.797 504.974C592.191 505.272 593.585 505.64 594.941 506.073L594.684 506.884C593.354 506.46 591.988 506.096 590.622 505.804L590.797 504.974ZM569.568 505.754L569.805 506.568C568.458 506.959 567.132 507.419 565.832 507.945L565.515 507.157C566.846 506.619 568.204 506.151 569.584 505.754L569.568 505.754ZM598.94 507.581C600.253 508.149 601.537 508.784 602.786 509.482L602.371 510.223C601.147 509.54 599.89 508.918 598.604 508.36L598.94 507.581ZM561.624 508.956L562.017 509.707C560.782 510.356 559.565 511.072 558.396 511.841L557.927 511.132C559.137 510.346 560.379 509.615 561.64 508.956L561.624 508.956ZM606.424 511.75C607.593 512.564 608.737 513.444 609.82 514.369L609.269 515.003C608.204 514.093 607.086 513.232 605.939 512.434L606.424 511.75ZM554.46 513.65L554.996 514.309C553.909 515.186 552.857 516.13 551.862 517.112L551.267 516.507C552.303 515.519 553.377 514.556 554.483 513.663L554.46 513.65ZM612.935 517.293C613.923 518.319 614.871 519.405 615.755 520.523L615.086 521.049C614.221 519.953 613.293 518.886 612.323 517.882L612.935 517.293ZM548.364 519.665L549.02 520.207C548.127 521.284 547.277 522.424 546.485 523.57L545.782 523.092C546.609 521.927 547.477 520.774 548.386 519.678L548.364 519.665ZM618.242 524.017C619.009 525.214 619.725 526.469 620.371 527.736L619.614 528.122C618.98 526.877 618.28 525.648 617.526 524.473L618.242 524.017ZM543.589 526.76L544.337 527.162C543.672 528.391 543.07 529.668 542.522 530.963L541.739 530.647C542.29 529.321 542.907 528.023 543.589 526.76ZM622.142 531.651C622.659 532.975 623.112 534.343 623.495 535.718L622.675 535.946C622.301 534.595 621.858 533.264 621.35 531.958L622.142 531.651ZM540.281 534.66L541.096 534.907C540.687 536.243 540.342 537.615 540.069 538.98L539.236 538.815C539.515 537.434 539.866 536.034 540.281 534.679L540.281 534.66ZM624.433 539.899C624.677 541.299 624.851 542.73 624.956 544.153L624.107 544.216C624.005 542.819 623.834 541.416 623.597 540.044L624.433 539.899ZM538.605 543.066L539.451 543.152C539.318 544.539 539.249 545.949 539.249 547.349L538.399 547.349C538.399 545.923 538.469 544.482 538.605 543.066ZM624.208 548.429L625.057 548.451C625.023 549.879 624.915 551.302 624.741 552.724L623.898 552.619C624.069 551.238 624.173 549.829 624.208 548.429ZM539.293 549.379C539.359 550.776 539.496 552.182 539.698 553.56L538.856 553.683C538.65 552.277 538.51 550.833 538.444 549.417L539.293 549.379ZM623.172 556.75L623.999 556.936C623.683 558.327 623.298 559.702 622.846 561.054L622.041 560.785C622.485 559.486 622.865 558.118 623.175 556.759L623.172 556.75ZM540.513 557.684C540.852 559.036 541.264 560.389 541.736 561.703L540.937 561.989C540.456 560.649 540.034 559.268 539.689 557.89L540.513 557.684ZM620.514 564.713L621.287 565.061C620.704 566.36 620.048 567.642 619.338 568.881L618.603 568.456C619.3 567.256 619.943 565.995 620.517 564.722L620.514 564.713ZM543.352 565.58C543.954 566.847 544.619 568.086 545.345 569.28L544.619 569.72C543.881 568.501 543.196 567.231 542.585 565.948L543.352 565.58ZM616.331 571.995L617.022 572.485C616.195 573.645 615.302 574.776 614.361 575.849L613.727 575.289C614.646 574.247 615.523 573.138 616.335 572.004L616.331 571.995ZM547.696 572.764C548.532 573.882 549.435 574.981 550.379 576.001L549.746 576.575C548.795 575.523 547.864 574.414 547.008 573.274L547.696 572.764ZM610.806 578.323L611.385 578.957C610.344 579.937 609.254 580.864 608.119 581.734L607.602 581.06C608.705 580.195 609.785 579.28 610.806 578.323ZM553.37 578.957C554.41 579.891 555.509 580.781 556.634 581.608L556.13 582.292C554.983 581.449 553.865 580.54 552.8 579.59L553.37 578.957ZM604.145 583.426L604.595 584.145C603.385 584.899 602.121 585.599 600.844 586.229L600.47 585.466C601.712 584.864 602.957 584.177 604.145 583.439L604.145 583.426ZM560.142 583.92C561.346 584.633 562.597 585.291 563.861 585.877L563.503 586.65C562.214 586.052 560.937 585.383 559.701 584.652L560.142 583.92ZM596.611 587.132L596.909 587.927C595.57 588.429 594.207 588.862 592.824 589.225L592.606 588.405C593.956 588.063 595.302 587.632 596.611 587.144L596.611 587.132ZM567.759 587.449C569.08 587.908 570.436 588.307 571.792 588.633L571.592 589.457C570.2 589.125 568.825 588.723 567.473 588.253L567.759 587.449ZM588.493 589.267L588.626 590.106C587.223 590.331 585.775 590.486 584.365 590.572L584.314 589.723C585.713 589.647 587.108 589.501 588.493 589.286L588.493 589.267ZM575.924 589.406C577.312 589.597 578.709 589.719 580.109 589.77L580.078 590.619C578.655 590.565 577.226 590.442 575.806 590.249L575.924 589.406Z" fill="white" stroke="white"/>
<path d="M886.202 129.419C887.631 129.438 889.069 129.526 890.479 129.682L890.375 130.511C888.99 130.359 887.58 130.274 886.18 130.255L886.202 129.419ZM881.918 129.574L881.991 130.42C880.594 130.537 879.203 130.726 877.825 130.983L877.669 130.147C879.067 129.878 880.496 129.694 881.918 129.561L881.918 129.574ZM894.713 130.363C896.112 130.661 897.495 131.028 898.857 131.465L898.6 132.273C897.265 131.845 895.91 131.486 894.538 131.196L894.713 130.363ZM873.484 131.142L873.725 131.956C872.381 132.349 871.044 132.811 869.751 133.334L869.434 132.545C870.765 132.013 872.131 131.541 873.496 131.145L873.484 131.142ZM902.859 132.969C904.167 133.536 905.46 134.176 906.705 134.87L906.29 135.611C905.066 134.928 903.809 134.306 902.523 133.749L902.859 132.969ZM865.544 134.344L865.936 135.098C864.701 135.731 863.481 136.463 862.315 137.23L861.859 136.53C863.05 135.738 864.292 135.006 865.556 134.344L865.544 134.344ZM910.343 137.141C911.512 137.952 912.653 138.832 913.739 139.757L913.188 140.391C912.123 139.482 911.002 138.62 909.858 137.825L910.343 137.141ZM858.38 139.041L858.915 139.703C857.831 140.581 856.776 141.521 855.781 142.503L855.205 141.914C856.219 140.907 857.293 139.947 858.399 139.064L858.38 139.041ZM916.854 142.687C917.843 143.71 918.79 144.797 919.674 145.915L919.005 146.441C918.14 145.345 917.209 144.28 916.242 143.273L916.854 142.687ZM852.306 145.082L852.958 145.623C852.057 146.7 851.211 147.822 850.423 148.984L849.72 148.509C850.524 147.324 851.386 146.18 852.306 145.082ZM922.18 149.431C922.947 150.631 923.663 151.882 924.309 153.152L923.552 153.536C922.918 152.291 922.215 151.065 921.464 149.887L922.18 149.431ZM847.505 152.174L848.253 152.579C847.585 153.815 846.98 155.083 846.441 156.38L845.655 156.063C846.203 154.717 846.827 153.415 847.505 152.161L847.505 152.174ZM926.058 157.064C926.575 158.391 927.028 159.76 927.411 161.131L926.591 161.359C926.217 160.009 925.774 158.678 925.266 157.371L926.058 157.064ZM844.201 160.073L845.012 160.323C844.602 161.663 844.259 163.023 843.985 164.397L843.152 164.229C843.431 162.819 843.782 161.423 844.201 160.061L844.201 160.073ZM928.352 165.315C928.593 166.715 928.767 168.147 928.872 169.569L928.023 169.629C927.923 168.231 927.752 166.839 927.513 165.458L928.352 165.315ZM842.521 168.483L843.367 168.565C843.234 169.953 843.164 171.365 843.164 172.762L842.315 172.762C842.315 171.311 842.385 169.87 842.531 168.458L842.521 168.483ZM928.124 173.845L928.973 173.864C928.939 175.29 928.831 176.715 928.657 178.14L927.814 178.036C927.985 176.626 928.08 175.217 928.124 173.82L928.124 173.845ZM843.209 174.796C843.275 176.192 843.412 177.599 843.614 178.98L842.772 179.1C842.566 177.697 842.426 176.249 842.36 174.837L843.209 174.796ZM927.091 182.141L927.918 182.328C927.603 183.719 927.218 185.093 926.765 186.445L925.96 186.176C926.401 184.874 926.781 183.512 927.091 182.141ZM844.432 183.091C844.771 184.444 845.183 185.796 845.655 187.111L844.856 187.399C844.375 186.059 843.953 184.678 843.608 183.281L844.432 183.091ZM924.433 190.12L925.206 190.468C924.623 191.767 923.967 193.05 923.257 194.288L922.522 193.864C923.216 192.641 923.859 191.384 924.433 190.11L924.433 190.12ZM847.284 190.981C847.886 192.248 848.551 193.484 849.28 194.681L848.551 195.127C847.81 193.905 847.131 192.646 846.517 191.355L847.284 190.981ZM920.263 197.392L920.954 197.886C920.127 199.042 919.23 200.176 918.292 201.247L917.659 200.686C918.578 199.633 919.443 198.533 920.251 197.392L920.263 197.392ZM851.628 198.165C852.467 199.283 853.37 200.382 854.311 201.399L853.678 201.976C852.727 200.927 851.795 199.815 850.94 198.675L851.628 198.165ZM914.722 203.711L915.301 204.345C914.262 205.32 913.166 206.245 912.035 207.123L911.518 206.448C912.624 205.58 913.701 204.668 914.722 203.711ZM857.286 204.345C858.326 205.279 859.425 206.172 860.55 206.996L860.046 207.68C858.899 206.841 857.781 205.932 856.719 204.978L857.286 204.345ZM908.061 208.814L908.511 209.536C907.298 210.29 906.037 210.99 904.763 211.617L904.386 210.854C905.634 210.252 906.873 209.568 908.061 208.827L908.061 208.814ZM864.057 209.311C865.265 210.024 866.516 210.68 867.777 211.269L867.422 212.039C866.133 211.44 864.856 210.772 863.62 210.043L864.057 209.311ZM900.514 212.533L900.812 213.331C899.481 213.825 898.106 214.262 896.728 214.629L896.509 213.806C897.865 213.45 899.201 213.025 900.514 212.533ZM871.662 212.849C872.977 213.306 874.333 213.705 875.695 214.031L875.499 214.858C874.108 214.541 872.723 214.116 871.38 213.651L871.662 212.849ZM892.396 214.664L892.533 215.504C891.129 215.729 889.681 215.887 888.271 215.973L888.22 215.124C889.627 215.048 891.034 214.896 892.409 214.674L892.396 214.664ZM879.827 214.807C881.205 214.994 882.615 215.124 884.013 215.171L883.981 216.02C882.555 215.966 881.129 215.839 879.71 215.646L879.827 214.807Z" fill="white" stroke="white"/>
<path d="M477.77 129.419C479.196 129.438 480.638 129.526 482.048 129.682L481.956 130.524C480.571 130.372 479.158 130.286 477.761 130.267L477.77 129.419ZM473.487 129.574L473.556 130.42C472.16 130.537 470.77 130.725 469.393 130.983L469.238 130.147C470.635 129.878 472.064 129.694 473.487 129.561L473.487 129.574ZM486.281 130.363C487.68 130.66 489.063 131.028 490.425 131.465L490.169 132.276C488.833 131.847 487.476 131.486 486.104 131.196L486.281 130.363ZM465.052 131.142L465.29 131.956C463.95 132.349 462.612 132.811 461.32 133.334L461.003 132.545C462.334 132.013 463.696 131.541 465.065 131.145L465.052 131.142ZM494.427 132.973C495.741 133.541 497.024 134.175 498.274 134.873L497.859 135.614C496.635 134.932 495.377 134.311 494.091 133.755L494.427 132.973ZM457.109 134.344L457.505 135.098C456.266 135.731 455.049 136.463 453.883 137.23L453.427 136.53C454.618 135.738 455.86 135.006 457.121 134.344L457.109 134.344ZM501.911 137.141C503.08 137.952 504.224 138.832 505.308 139.757L504.756 140.391C503.692 139.485 502.573 138.62 501.426 137.825L501.911 137.141ZM449.948 139.041L450.483 139.703C449.4 140.581 448.345 141.525 447.35 142.503L446.773 141.914C447.784 140.907 448.858 139.947 449.964 139.064L449.948 139.041ZM508.425 142.687C509.419 143.716 510.36 144.795 511.245 145.918L510.577 146.444C509.712 145.345 508.78 144.28 507.814 143.276L508.425 142.687ZM443.855 145.06L444.508 145.601C443.614 146.675 442.765 147.818 441.973 148.962L441.27 148.487C442.093 147.318 442.971 146.165 443.871 145.082L443.855 145.06ZM513.733 149.408C514.499 150.609 515.216 151.86 515.862 153.13L515.101 153.513C514.468 152.269 513.767 151.043 513.017 149.868L513.733 149.408ZM439.055 152.151L439.803 152.557C439.135 153.793 438.53 155.061 437.99 156.358L437.204 156.041C437.772 154.714 438.393 153.412 439.071 152.161L439.055 152.151ZM517.611 157.042C518.128 158.375 518.579 159.734 518.961 161.112L518.143 161.34C517.769 159.994 517.323 158.651 516.819 157.352L517.611 157.042ZM435.75 160.051L436.564 160.301C436.153 161.641 435.811 163 435.538 164.375L434.704 164.207C434.999 162.819 435.351 161.423 435.766 160.061L435.75 160.051ZM519.902 165.293C520.146 166.702 520.32 168.121 520.421 169.547L519.575 169.607C519.474 168.214 519.303 166.81 519.065 165.439L519.902 165.293ZM434.074 168.461L434.92 168.543C434.784 169.924 434.714 171.337 434.714 172.74L433.865 172.74C433.881 171.308 433.95 169.867 434.099 168.458L434.074 168.461ZM519.674 173.823L520.523 173.845C520.489 175.274 520.383 176.7 520.206 178.118L519.363 178.014C519.55 176.63 519.648 175.22 519.689 173.82L519.674 173.823ZM434.758 174.773C434.825 176.17 434.961 177.58 435.164 178.954L434.321 179.078C434.118 177.675 433.979 176.227 433.912 174.811L434.758 174.773ZM518.656 182.141L519.487 182.328C519.17 183.715 518.783 185.106 518.333 186.445L517.525 186.176C517.969 184.871 518.349 183.509 518.656 182.141ZM436 183.091C436.343 184.45 436.751 185.802 437.223 187.114L436.425 187.399C435.943 186.062 435.525 184.684 435.177 183.281L436 183.091ZM516.001 190.126L516.774 190.475C516.189 191.773 515.539 193.042 514.826 194.275L514.091 193.854C514.785 192.644 515.425 191.387 515.998 190.113L516.001 190.126ZM438.839 190.991C439.444 192.258 440.107 193.499 440.835 194.69L440.107 195.131C439.372 193.914 438.687 192.644 438.073 191.355L438.839 190.991ZM511.819 197.405L512.51 197.899C511.683 199.058 510.786 200.189 509.848 201.26L509.214 200.702C510.127 199.638 511.005 198.529 511.816 197.392L511.819 197.405ZM443.183 198.178C444.02 199.293 444.923 200.395 445.867 201.412L445.233 201.985C444.283 200.933 443.332 199.822 442.499 198.685L443.183 198.178ZM506.29 203.724L506.87 204.357C505.834 205.33 504.734 206.258 503.603 207.132L503.087 206.461C504.189 205.58 505.266 204.668 506.287 203.711L506.29 203.724ZM448.855 204.357C449.891 205.289 450.99 206.182 452.118 207.009L451.615 207.693C450.464 206.85 449.346 205.941 448.288 204.991L448.855 204.357ZM499.63 208.827L500.08 209.549C498.866 210.303 497.605 211.003 496.331 211.63L495.954 210.867C497.213 210.25 498.438 209.569 499.627 208.827L499.63 208.827ZM455.626 209.324C456.833 210.037 458.085 210.692 459.346 211.282L458.991 212.051C457.701 211.453 456.424 210.784 455.189 210.056L455.626 209.324ZM492.082 212.533L492.38 213.331C491.053 213.825 489.678 214.262 488.296 214.629L488.077 213.809C489.443 213.451 490.79 213.02 492.082 212.533ZM463.23 212.849C464.545 213.306 465.901 213.705 467.264 214.031L467.067 214.858C465.676 214.541 464.292 214.116 462.948 213.651L463.23 212.849ZM483.965 214.664L484.101 215.504C482.697 215.729 481.249 215.887 479.839 215.973L479.789 215.124C481.192 215.048 482.599 214.896 483.974 214.674L483.965 214.664ZM471.395 214.807C472.777 214.994 474.184 215.124 475.581 215.171L475.549 216.02C474.123 215.966 472.698 215.839 471.278 215.646L471.395 214.807Z" fill="white" stroke="white"/>
<path d="M554.587 148.224C554.587 235.024 554.587 234.595 554.587 301.132C554.587 317.701 568.018 331.184 584.587 331.184H855.644C872.213 331.184 885.644 317.752 885.644 301.184V99.2832" stroke="white" stroke-width="1.5"/>
<path d="M741.15 294.4C736.295 295.701 733.415 300.69 734.716 305.543C736.017 310.396 741.008 313.276 745.863 311.975C750.718 310.674 753.598 305.685 752.297 300.832C750.996 295.979 746.005 293.099 741.15 294.4Z" fill="white" stroke="white"/>
<path d="M644.991 187.511C643.121 188.012 642.012 189.934 642.513 191.803C643.014 193.672 644.936 194.781 646.806 194.28C648.676 193.779 649.785 191.858 649.284 189.989C648.783 188.119 646.861 187.01 644.991 187.511Z" fill="white" stroke="white"/>
<path d="M743.476 303.031V220.896C743.476 204.327 730.044 190.896 713.476 190.896H645.899" stroke="white" stroke-width="1.5"/>
<path d="M885.644 257.656H813.494C796.925 257.656 783.494 271.088 783.494 287.656V754.506C783.494 771.074 796.925 784.506 813.494 784.506H885.254" stroke="white" stroke-width="1.5" stroke-dasharray="5 3"/>
<path d="M941.107 524.666H915.27C898.701 524.666 885.27 538.097 885.27 554.666V830.869" stroke="white" stroke-width="1.5" stroke-dasharray="5 3"/>
<path d="M850.516 394.772H899.202" stroke="white" stroke-width="1.5"/>
<path d="M848.386 457.024H567.262C550.694 457.024 537.262 470.456 537.262 487.024V808.308" stroke="white" stroke-width="1.5"/>
<g clip-path="url(#clip0_0_2835)">
<path d="M468.052 690.001L465.164 727.932H564.96L562.083 690.001H468.052Z" fill="#D7DFF4"/>
<path d="M560.497 669.184H469.638L468.052 690.001H562.083L560.497 669.184Z" fill="#2D3750"/>
<path d="M448.614 724.58H581.521C583.798 724.58 585.983 725.483 587.593 727.091C589.203 728.699 590.108 730.879 590.108 733.153V740.94H440.027V733.153C440.027 730.879 440.932 728.699 442.542 727.091C444.152 725.483 446.336 724.58 448.614 724.58Z" fill="white"/>
<path d="M735.825 356.876H294.31C290.737 356.879 287.311 358.298 284.784 360.821C282.257 363.344 280.836 366.764 280.833 370.332V634.988H749.291V370.332C749.291 366.765 747.872 363.345 745.347 360.821C742.822 358.298 739.397 356.879 735.825 356.876Z" fill="#2D3750"/>
<path d="M558.637 634.988H280.844V666.869C280.843 668.635 281.19 670.385 281.866 672.017C282.542 673.65 283.534 675.133 284.785 676.383C286.035 677.632 287.52 678.624 289.155 679.3C290.789 679.976 292.541 680.324 294.31 680.324H735.825C737.595 680.324 739.347 679.976 740.982 679.3C742.617 678.624 744.103 677.633 745.354 676.383C746.606 675.134 747.598 673.65 748.276 672.018C748.953 670.385 749.301 668.636 749.301 666.869V634.966L558.637 634.988Z" fill="white"/>
<path d="M461.008 373.237H297.231V536.758V616.378H729.929V373.237H461.008Z" fill="#D7DFF4"/>
<path d="M364.111 427.125C363.531 427.125 362.974 427.355 362.564 427.765C362.154 428.174 361.923 428.73 361.923 429.309V451.939H328.013V429.309C328.013 428.73 327.782 428.174 327.372 427.765C326.962 427.355 326.405 427.125 325.825 427.125C325.245 427.125 324.688 427.355 324.278 427.765C323.868 428.174 323.637 428.73 323.637 429.309V752.594C323.637 753.173 323.868 753.729 324.278 754.138C324.688 754.548 325.245 754.778 325.825 754.778C326.405 754.778 326.962 754.548 327.372 754.138C327.782 753.729 328.013 753.173 328.013 752.594V731.438H361.923V752.594C361.923 753.173 362.154 753.729 362.564 754.138C362.974 754.548 363.531 754.778 364.111 754.778C364.691 754.778 365.248 754.548 365.658 754.138C366.068 753.729 366.299 753.173 366.299 752.594V429.309C366.299 428.73 366.068 428.174 365.658 427.765C365.248 427.355 364.691 427.125 364.111 427.125ZM361.923 531.362V552.004H328.013V531.362H361.923ZM328.078 526.994V506.319H361.923V526.972L328.078 526.994ZM361.923 556.373V577.026H328.013V556.373H361.923ZM361.923 581.395V602.037H328.013V581.395H361.923ZM361.923 606.406V627.059H328.013V606.406H361.923ZM361.923 631.428V652.07H328.013V631.428H361.923ZM361.923 656.438V677.091H328.013V656.438H361.923ZM361.923 501.95H328.013V481.308H361.923V501.95ZM328.013 681.46H361.923V702.102H328.013V681.46ZM361.923 456.308V476.961H328.013V456.308H361.923ZM328.078 727.168V706.515H361.923V727.168H328.078Z" fill="#2D3750"/>
<path d="M590.097 475.574H440.027V616.727H590.097V475.574Z" fill="#FF715E"/>
<path d="M590.097 450.979H440.027V476.95H590.097V450.979Z" fill="#FFA296"/>
<path d="M558.09 459.235H472.034C469.418 459.235 467.297 461.353 467.297 463.964V463.975C467.297 466.587 469.418 468.704 472.034 468.704H558.09C560.706 468.704 562.827 466.587 562.827 463.975V463.964C562.827 461.353 560.706 459.235 558.09 459.235Z" fill="#2D3750"/>
<path d="M519.957 348.62L454.619 435.087L499.228 468.704H526.05L581.663 395.103L519.957 348.62Z" fill="white"/>
<path d="M507.005 408.078L495.377 399.286L504.129 387.665L515.767 396.402L507.005 408.078ZM498.429 398.882L506.579 405.02L512.726 396.883L504.577 390.745L498.429 398.882Z" fill="#376EFF"/>
<path d="M523.261 384.749L513.416 377.3C513.185 377.125 513.034 376.865 512.995 376.579C512.956 376.292 513.033 376.002 513.208 375.771L520.668 365.887C520.754 365.771 520.863 365.673 520.988 365.599C521.112 365.525 521.25 365.476 521.394 365.456C521.537 365.435 521.683 365.444 521.823 365.48C521.964 365.517 522.095 365.581 522.211 365.668L532.056 373.128C532.17 373.214 532.267 373.322 532.341 373.445C532.414 373.569 532.462 373.705 532.482 373.847C532.502 373.989 532.494 374.134 532.459 374.273C532.423 374.412 532.36 374.542 532.274 374.657L524.803 384.487C524.72 384.606 524.614 384.708 524.491 384.786C524.368 384.865 524.231 384.917 524.087 384.942C523.943 384.966 523.796 384.962 523.654 384.929C523.512 384.895 523.379 384.834 523.261 384.749ZM515.603 376.208L523.753 382.346L529.901 374.209L521.751 368.071L515.603 376.208Z" fill="#376EFF"/>
<path d="M489 430.085L479.155 422.636C478.923 422.462 478.77 422.204 478.729 421.917C478.687 421.63 478.762 421.339 478.936 421.107L486.408 411.223C486.494 411.108 486.602 411.012 486.725 410.939C486.849 410.865 486.986 410.817 487.128 410.797C487.27 410.777 487.415 410.785 487.554 410.82C487.693 410.856 487.824 410.919 487.939 411.005L497.784 418.464C497.899 418.55 497.996 418.658 498.069 418.781C498.142 418.905 498.19 419.041 498.211 419.183C498.231 419.325 498.223 419.47 498.187 419.609C498.152 419.748 498.089 419.878 498.003 419.993L490.531 429.823C490.449 429.941 490.343 430.041 490.221 430.119C490.099 430.196 489.963 430.248 489.821 430.272C489.678 430.297 489.532 430.293 489.392 430.261C489.251 430.228 489.118 430.169 489 430.085ZM481.343 421.544L489.492 427.693L495.64 419.545L487.491 413.407L481.343 421.544Z" fill="#376EFF"/>
<path d="M560.7 399.355L535.086 380.063L533.11 382.679L558.723 401.97L560.7 399.355Z" fill="#376EFF"/>
<path d="M556.868 404.431L531.255 385.14L529.279 387.755L554.892 407.047L556.868 404.431Z" fill="#376EFF"/>
<path d="M544.395 420.938L518.782 401.646L516.806 404.262L542.419 423.553L544.395 420.938Z" fill="#376EFF"/>
<path d="M540.555 426.008L514.942 406.716L512.966 409.332L538.579 428.624L540.555 426.008Z" fill="#376EFF"/>
<path d="M528.089 442.517L502.476 423.225L500.499 425.841L526.112 445.132L528.089 442.517Z" fill="#376EFF"/>
<path d="M524.251 447.602L498.637 428.311L496.661 430.926L522.274 450.218L524.251 447.602Z" fill="#376EFF"/>
<path d="M513.567 398.27C513.545 398.109 513.491 397.955 513.409 397.815C513.326 397.676 513.217 397.554 513.087 397.456C512.958 397.359 512.81 397.288 512.653 397.248C512.496 397.208 512.332 397.199 512.171 397.222L505.878 398.088L505.202 393.259C505.143 392.946 504.967 392.668 504.708 392.482C504.45 392.296 504.13 392.216 503.814 392.26C503.499 392.303 503.212 392.466 503.014 392.715C502.815 392.964 502.72 393.279 502.749 393.596L503.616 399.802C503.644 400.018 503.73 400.223 503.864 400.396C503.998 400.568 504.176 400.702 504.379 400.783C504.582 400.864 504.803 400.889 505.019 400.857C505.236 400.824 505.439 400.735 505.609 400.598C505.693 400.606 505.777 400.606 505.861 400.598L512.51 399.672C512.671 399.649 512.827 399.595 512.968 399.513C513.109 399.43 513.232 399.321 513.33 399.19C513.429 399.06 513.5 398.912 513.541 398.754C513.581 398.596 513.59 398.431 513.567 398.27Z" fill="#FF715E"/>
<path d="M489.643 421.389L492.716 420.965C492.979 420.92 493.215 420.774 493.372 420.559C493.53 420.343 493.597 420.075 493.56 419.811C493.523 419.546 493.385 419.307 493.174 419.143C492.963 418.979 492.697 418.903 492.431 418.932L489.358 419.362L488.927 416.294C488.908 416.161 488.864 416.033 488.795 415.917C488.727 415.801 488.637 415.7 488.529 415.619C488.422 415.538 488.299 415.479 488.169 415.446C488.039 415.412 487.903 415.404 487.77 415.423C487.636 415.442 487.508 415.486 487.392 415.555C487.276 415.623 487.175 415.713 487.094 415.82C487.013 415.928 486.954 416.05 486.92 416.18C486.886 416.31 486.879 416.446 486.897 416.579L487.328 419.647L484.256 420.077C484.121 420.095 483.992 420.139 483.876 420.207C483.759 420.275 483.657 420.366 483.575 420.474C483.494 420.581 483.434 420.704 483.401 420.835C483.367 420.966 483.36 421.102 483.38 421.236C483.395 421.372 483.438 421.504 483.506 421.624C483.575 421.743 483.666 421.847 483.776 421.93C483.883 422.012 484.005 422.071 484.135 422.104C484.265 422.138 484.401 422.144 484.534 422.124L487.606 421.694L488.037 424.762C488.054 424.899 488.098 425.031 488.168 425.15C488.237 425.27 488.33 425.374 488.441 425.456C488.547 425.538 488.669 425.597 488.8 425.63C488.93 425.664 489.065 425.67 489.198 425.65C489.468 425.613 489.712 425.469 489.877 425.252C490.041 425.034 490.112 424.761 490.074 424.491L489.643 421.389Z" fill="#FF715E"/>
<path d="M733.298 649.94H701.575V660.316H733.298V649.94Z" fill="#D7DFF4"/>
<path d="M692.824 649.94H661.101V660.316H692.824V649.94Z" fill="#376EFF"/>
<path d="M760.317 554.56C760.317 554.56 752.758 547.232 750.122 547.57C747.485 547.909 753.896 555.685 760.098 557.138L760.317 554.56Z" fill="white"/>
<path d="M758.534 552.616C757.637 554.036 756.761 555.423 755.963 556.854C778.825 570.55 791.175 575.213 817.505 569.96C821.531 569.141 821.684 567.59 820.458 564.499C821.005 564.106 821.016 564.128 820.458 564.499C819.244 561.375 818.183 561.31 814.267 562.14C788.648 567.535 781.976 562.817 758.534 552.616Z" fill="#D7DFF4"/>
<path d="M768.012 526.217L707.884 574.728L776.072 658.981L836.2 610.47L768.012 526.217Z" fill="white"/>
<path d="M762.559 601.873L751.216 611.026L742.049 599.7L753.393 590.547L762.559 601.873ZM751.544 607.957L759.485 601.546L753.064 593.616L745.123 600.017L751.544 607.957Z" fill="#376EFF"/>
<path d="M743.832 580.467L734.195 588.254C734.083 588.345 733.954 588.412 733.816 588.453C733.677 588.494 733.533 588.507 733.389 588.492C733.246 588.477 733.107 588.434 732.981 588.365C732.854 588.296 732.742 588.202 732.652 588.09L724.864 578.457C724.773 578.345 724.705 578.217 724.664 578.079C724.623 577.941 724.61 577.796 724.625 577.653C724.64 577.51 724.684 577.371 724.753 577.245C724.822 577.119 724.915 577.007 725.028 576.917L734.665 569.141C734.777 569.05 734.906 568.982 735.044 568.942C735.182 568.901 735.327 568.887 735.47 568.903C735.613 568.918 735.753 568.961 735.879 569.03C736.005 569.099 736.117 569.193 736.207 569.305L743.996 578.938C744.176 579.163 744.26 579.449 744.229 579.736C744.198 580.022 744.055 580.285 743.832 580.467ZM733.67 585.862L741.611 579.462L735.19 571.533L727.248 577.933L733.67 585.862Z" fill="#376EFF"/>
<path d="M779.58 624.645L769.943 632.422C769.831 632.512 769.702 632.58 769.564 632.621C769.426 632.662 769.281 632.675 769.138 632.66C768.994 632.645 768.855 632.601 768.729 632.532C768.602 632.463 768.491 632.37 768.401 632.258L760.612 622.636C760.521 622.524 760.453 622.396 760.412 622.258C760.371 622.12 760.358 621.975 760.374 621.832C760.389 621.689 760.432 621.55 760.501 621.424C760.57 621.297 760.664 621.186 760.776 621.096L770.413 613.32C770.525 613.229 770.654 613.161 770.792 613.12C770.93 613.079 771.075 613.066 771.219 613.081C771.362 613.097 771.501 613.14 771.627 613.209C771.754 613.278 771.866 613.371 771.956 613.483L779.744 623.106C779.835 623.217 779.903 623.346 779.944 623.484C779.985 623.622 779.998 623.766 779.983 623.909C779.968 624.053 779.924 624.191 779.855 624.318C779.786 624.444 779.693 624.555 779.58 624.645ZM769.418 630.041L777.36 623.63L770.938 615.701L762.997 622.112L769.418 630.041Z" fill="#376EFF"/>
<path d="M767.084 547.678L742.13 567.812L744.192 570.36L769.147 550.227L767.084 547.678Z" fill="#376EFF"/>
<path d="M771.097 552.63L746.142 572.764L748.204 575.312L773.159 555.179L771.097 552.63Z" fill="#376EFF"/>
<path d="M784.107 568.695L759.152 588.828L761.215 591.377L786.169 571.244L784.107 568.695Z" fill="#376EFF"/>
<path d="M788.111 573.666L763.156 593.799L765.218 596.347L790.173 576.214L788.111 573.666Z" fill="#376EFF"/>
<path d="M801.117 589.728L776.162 609.861L778.224 612.409L803.179 592.276L801.117 589.728Z" fill="#376EFF"/>
<path d="M805.133 594.682L780.178 614.815L782.241 617.364L807.195 597.231L805.133 594.682Z" fill="#376EFF"/>
<path d="M754.75 594.687C754.488 594.66 754.227 594.738 754.022 594.903C753.817 595.068 753.687 595.308 753.659 595.569L753.117 600.629L749.217 600.212C748.963 600.199 748.714 600.284 748.52 600.449C748.327 600.614 748.204 600.847 748.178 601.099C748.151 601.352 748.222 601.605 748.377 601.806C748.531 602.008 748.757 602.143 749.008 602.183L754.013 602.718C754.275 602.745 754.537 602.667 754.741 602.502C754.946 602.337 755.077 602.097 755.105 601.836C755.123 601.663 755.095 601.488 755.021 601.33C755.042 601.264 755.056 601.197 755.063 601.128L755.633 595.784C755.66 595.522 755.583 595.26 755.417 595.054C755.252 594.849 755.012 594.717 754.75 594.687Z" fill="#FF715E"/>
<path d="M772.304 616.383C772.051 616.356 771.798 616.431 771.601 616.591C771.403 616.75 771.277 616.982 771.25 617.234L770.726 622.113L766.961 621.718C766.715 621.705 766.475 621.787 766.288 621.946C766.101 622.106 765.983 622.33 765.957 622.574C765.931 622.818 766 623.063 766.149 623.257C766.298 623.452 766.517 623.582 766.759 623.621L771.592 624.131C771.718 624.145 771.845 624.135 771.966 624.099C772.087 624.063 772.2 624.003 772.297 623.923C772.398 623.841 772.482 623.739 772.542 623.624C772.602 623.509 772.637 623.382 772.646 623.253C772.665 623.085 772.637 622.916 772.566 622.763C772.586 622.7 772.6 622.635 772.606 622.569L773.157 617.408C773.175 617.16 773.097 616.915 772.938 616.723C772.779 616.532 772.552 616.41 772.304 616.383Z" fill="#FF715E"/>
<path d="M737.013 572.071C736.874 572.055 736.733 572.067 736.598 572.106C736.464 572.145 736.338 572.21 736.229 572.298C736.119 572.385 736.028 572.494 735.961 572.617C735.894 572.739 735.851 572.874 735.837 573.013L735.259 578.468L731.055 578.019C730.781 578.005 730.512 578.097 730.304 578.275C730.096 578.452 729.963 578.703 729.935 578.976C729.906 579.248 729.983 579.521 730.149 579.738C730.316 579.956 730.56 580.101 730.83 580.144L736.219 580.721C736.489 580.741 736.757 580.658 736.968 580.489C737.081 580.397 737.175 580.283 737.243 580.155C737.311 580.026 737.353 579.885 737.365 579.74C737.38 579.553 737.346 579.365 737.268 579.194C737.268 579.119 737.305 579.052 737.32 578.977L737.928 573.215C737.953 572.943 737.872 572.672 737.702 572.459C737.531 572.245 737.284 572.106 737.013 572.071Z" fill="#FF715E"/>
<path d="M894.001 679.363C894.012 679.225 894.012 679.086 894.001 678.948C893.932 678.411 893.653 677.923 893.225 677.591C892.796 677.259 892.253 677.111 891.715 677.179L877.133 678.97C876.607 679.051 876.133 679.333 875.812 679.757C875.491 680.181 875.349 680.713 875.414 681.24C875.479 681.767 875.748 682.248 876.163 682.581C876.578 682.914 877.106 683.072 877.636 683.022L892.218 681.22C892.685 681.165 893.118 680.95 893.443 680.611C893.769 680.273 893.966 679.831 894.001 679.363Z" fill="white"/>
<path d="M889.92 676.982C889.92 676.982 894.394 673.957 894.974 675.082C895.554 676.207 902.456 693.048 901.701 693.441C899.131 694.795 891.419 681.81 891.178 680.335C890.938 678.861 889.264 677.397 889.92 676.982Z" fill="#D7DFF4"/>
<path d="M812.769 741.137C812.907 741.153 813.046 741.153 813.184 741.137C813.715 741.029 814.181 740.715 814.48 740.265C814.779 739.814 814.888 739.264 814.781 738.734L811.85 724.361C811.81 724.086 811.715 723.822 811.569 723.585C811.424 723.348 811.231 723.143 811.004 722.983C810.776 722.823 810.519 722.711 810.246 722.654C809.974 722.596 809.693 722.595 809.42 722.65C809.147 722.705 808.888 722.815 808.66 722.974C808.431 723.132 808.237 723.335 808.09 723.571C807.942 723.807 807.845 724.07 807.803 724.345C807.761 724.62 807.776 724.9 807.846 725.169L810.778 739.542C810.878 739.995 811.13 740.4 811.492 740.69C811.854 740.98 812.304 741.138 812.769 741.137Z" fill="white"/>
<mask id="path-70-inside-1_0_2835" fill="white">
<path fill-rule="evenodd" clip-rule="evenodd" d="M885.096 676.982C885.523 679.09 885.862 681.275 886.114 683.459C843.956 688.508 819.103 679.318 810.634 650.454C806.383 677.514 810.168 707.787 814.738 732.17C812.582 732.496 810.409 732.696 808.229 732.771C803.011 703.042 792.226 639.488 804.838 611.343C805.8 611.795 806.761 612.248 807.722 612.703C807.791 611.672 807.869 610.629 807.956 609.573C808.461 609.7 808.966 609.826 809.471 609.953C814.763 611.278 820.054 612.603 825.326 614.018C814.202 668.179 833.892 683.634 885.096 676.982Z"/>
</mask>
<path fill-rule="evenodd" clip-rule="evenodd" d="M885.096 676.982C885.523 679.09 885.862 681.275 886.114 683.459C843.956 688.508 819.103 679.318 810.634 650.454C806.383 677.514 810.168 707.787 814.738 732.17C812.582 732.496 810.409 732.696 808.229 732.771C803.011 703.042 792.226 639.488 804.838 611.343C805.8 611.795 806.761 612.248 807.722 612.703C807.791 611.672 807.869 610.629 807.956 609.573C808.461 609.7 808.966 609.826 809.471 609.953C814.763 611.278 820.054 612.603 825.326 614.018C814.202 668.179 833.892 683.634 885.096 676.982Z" fill="#376EFF"/>
<path d="M886.114 683.459L886.233 684.452L887.221 684.333L887.107 683.344L886.114 683.459ZM885.096 676.982L886.077 676.784L885.892 675.871L884.968 675.991L885.096 676.982ZM810.634 650.454L811.594 650.172L809.646 650.299L810.634 650.454ZM814.738 732.17L814.887 733.159L815.912 733.004L815.721 731.986L814.738 732.17ZM808.229 732.771L807.244 732.944L807.395 733.8L808.263 733.77L808.229 732.771ZM804.838 611.343L805.264 610.438L804.342 610.004L803.926 610.934L804.838 611.343ZM807.722 612.703L807.295 613.607L808.623 614.234L808.72 612.769L807.722 612.703ZM807.956 609.573L808.199 608.603L807.056 608.317L806.959 609.491L807.956 609.573ZM809.471 609.953L809.714 608.983V608.983L809.471 609.953ZM825.326 614.018L826.306 614.22L826.495 613.297L825.586 613.053L825.326 614.018ZM887.107 683.344C886.853 681.134 886.509 678.922 886.077 676.784L884.116 677.181C884.537 679.258 884.872 681.415 885.12 683.573L887.107 683.344ZM809.674 650.735C813.986 665.432 822.511 675.195 835.353 680.595C848.129 685.969 865.086 686.984 886.233 684.452L885.995 682.466C864.983 684.982 848.435 683.927 836.128 678.752C823.886 673.604 815.75 664.34 811.594 650.172L809.674 650.735ZM815.721 731.986C811.156 707.629 807.399 677.494 811.622 650.609L809.646 650.299C805.368 677.534 809.181 707.945 813.755 732.354L815.721 731.986ZM808.263 733.77C810.481 733.694 812.693 733.49 814.887 733.159L814.589 731.181C812.471 731.501 810.336 731.698 808.195 731.771L808.263 733.77ZM803.926 610.934C800.702 618.127 799 627.513 798.315 637.943C797.63 648.388 797.962 659.951 798.85 671.539C800.626 694.716 804.635 718.079 807.244 732.944L809.214 732.598C806.605 717.733 802.612 694.455 800.844 671.386C799.96 659.852 799.634 648.391 800.311 638.074C800.989 627.744 802.668 618.631 805.751 611.751L803.926 610.934ZM808.15 611.799C807.188 611.344 806.226 610.89 805.264 610.438L804.412 612.247C805.373 612.699 806.334 613.152 807.295 613.607L808.15 611.799ZM806.959 609.491C806.872 610.552 806.794 611.6 806.725 612.636L808.72 612.769C808.788 611.743 808.866 610.706 808.952 609.655L806.959 609.491ZM809.714 608.983C809.209 608.856 808.704 608.73 808.199 608.603L807.713 610.543C808.218 610.67 808.723 610.796 809.228 610.923L809.714 608.983ZM825.586 613.053C820.304 611.634 815.005 610.307 809.714 608.983L809.228 610.923C814.522 612.248 819.804 613.571 825.067 614.984L825.586 613.053ZM884.968 675.991C859.373 679.315 842.104 677.032 832.54 667.593C823.006 658.184 820.75 641.268 826.306 614.22L824.347 613.817C818.778 640.929 820.805 658.821 831.135 669.017C841.436 679.183 859.615 681.301 885.225 677.974L884.968 675.991Z" fill="white" mask="url(#path-70-inside-1_0_2835)"/>
<path d="M822.756 546.948C822.756 553.13 818.446 558.132 814.672 558.132C810.898 558.132 809.071 553.13 809.071 546.948C809.071 540.766 812.134 537.643 815.919 537.643C819.704 537.643 822.756 540.777 822.756 546.948Z" fill="white"/>
<path d="M825.534 549.077C825.534 550.508 824.112 552.354 823.073 552.354C822.034 552.354 821.771 551.185 821.771 549.744C821.771 548.302 822.614 546.969 823.653 546.969C823.922 546.962 824.19 547.013 824.437 547.12C824.684 547.227 824.905 547.386 825.085 547.587C825.264 547.787 825.397 548.025 825.475 548.282C825.552 548.54 825.573 548.811 825.534 549.077Z" fill="white"/>
<path d="M801.009 625.366C805.691 625.422 810.318 624.363 814.508 622.275C818.022 620.647 821.836 619.766 825.709 619.687C826.573 607.334 828.619 574.777 826.672 568.77C824.243 561.321 819.911 558.165 819.911 558.165C819.911 558.165 817.155 560.578 815.098 560.349C813.042 560.12 810.668 567.175 807.835 571.642C805.002 576.109 802.683 577.605 805.1 584.453C806.128 587.5 800.495 621.118 801.009 625.366Z" fill="#D7DFF4"/>
<path d="M822.45 550.29L815.996 549.656C815.908 550.541 815.23 558.951 815.558 562.129C815.799 563.101 817.407 563.549 819.157 563.123C820.732 562.741 821.87 561.79 821.914 560.938C821.872 557.381 822.051 553.825 822.45 550.29Z" fill="white"/>
<path d="M815.328 738.417C815.328 738.417 816.597 743.66 815.328 743.813C814.06 743.966 795.857 744.501 795.748 743.66C795.387 740.787 810.275 738.122 811.729 738.417C813.184 738.712 815.164 737.653 815.328 738.417Z" fill="#D7DFF4"/>
<path d="M777.392 588.472C777.392 588.472 768.827 581.471 766.103 582.061C763.38 582.651 770.774 590.22 777.392 591.192V588.472Z" fill="#D7DFF4"/>
<path d="M776.506 587.424C775.806 588.942 775.062 590.537 774.319 591.902C800.966 604.233 820.568 606.69 827.208 574.012C828.225 569.01 826.114 569.906 823.926 568.311C820.317 568.923 819.398 568.158 818.752 572.833C814.53 603.403 799.544 593.955 776.506 587.424Z" fill="#D7DFF4"/>
<path d="M260.979 674.514C260.89 674.402 260.813 674.282 260.75 674.154C260.498 673.645 260.454 673.059 260.628 672.519C260.801 671.979 261.178 671.527 261.679 671.259L275.484 664.226C275.739 664.034 276.034 663.901 276.346 663.835C276.658 663.768 276.981 663.771 277.292 663.843C277.603 663.915 277.895 664.054 278.146 664.25C278.398 664.446 278.603 664.695 278.748 664.979C278.894 665.263 278.975 665.575 278.986 665.894C278.997 666.212 278.939 666.529 278.814 666.823C278.69 667.117 278.502 667.379 278.265 667.593C278.028 667.807 277.748 667.966 277.442 668.059L263.638 675.093C263.194 675.31 262.69 675.371 262.207 675.266C261.725 675.161 261.292 674.896 260.979 674.514Z" fill="white"/>
<path d="M264.261 670.287C264.261 670.287 258.792 668.824 258.573 670.156C258.354 671.489 257.37 690.635 258.256 690.766C261.286 691.213 264.447 675.617 264.174 674.077C263.9 672.537 265.06 670.484 264.261 670.287Z" fill="#D7DFF4"/>
<path d="M380.366 524.591C380.366 524.591 388.023 516.531 390.791 516.771C393.559 517.011 387.17 525.508 380.705 527.299L380.366 524.591Z" fill="white"/>
<path d="M383.473 521.161C384.271 522.767 385.114 524.296 385.912 525.836C361.595 539.259 344.913 538.025 324.655 519.851C321.559 517.077 322.139 515.733 324.655 513.385C324.469 512.795 324.512 512.763 324.655 513.385C327.225 511.048 328.319 511.201 331.47 514.008C352.078 532.433 357.548 530.237 383.473 521.161Z" fill="#D7DFF4"/>
<path d="M334.324 698.411C334.182 698.422 334.04 698.422 333.898 698.411C333.342 698.29 332.856 697.958 332.541 697.485C332.227 697.012 332.109 696.435 332.213 695.877L335.298 680.718C335.305 680.399 335.383 680.085 335.525 679.799C335.667 679.513 335.87 679.261 336.12 679.062C336.369 678.862 336.66 678.72 336.971 678.645C337.282 678.57 337.605 678.564 337.919 678.627C338.232 678.69 338.528 678.822 338.785 679.011C339.042 679.201 339.255 679.445 339.407 679.725C339.56 680.006 339.649 680.316 339.669 680.635C339.688 680.954 339.638 681.273 339.52 681.57L336.436 696.729C336.323 697.205 336.054 697.629 335.671 697.934C335.288 698.239 334.814 698.407 334.324 698.411Z" fill="white"/>
<path d="M347.439 624.925C345.59 649.054 341.423 673.392 338.645 689.082C336.685 689.003 334.73 688.824 332.789 688.545C336.165 670.426 339.122 649.259 338.992 628.375C338.862 607.486 335.643 586.84 326.63 569.8C331.87 567.245 337.122 564.73 342.388 562.253C345.557 569.535 347.284 579.04 347.992 589.729C348.714 600.641 348.372 612.751 347.439 624.925Z" fill="#376EFF" stroke="white"/>
<path d="M325.015 627.897C313.791 644.869 296.051 658.07 271.773 672.307C270.621 670.611 269.517 668.893 268.499 667.124C289.75 655.125 306.462 642.574 316.144 626.506C325.849 610.402 328.452 590.834 321.624 564.902C327.42 563.415 333.255 562.026 339.145 560.783C340.968 590.206 336.217 610.96 325.015 627.897Z" fill="#376EFF" stroke="white"/>
<path d="M331.634 695.549C331.634 695.549 330.299 701.076 331.634 701.24C332.968 701.403 352.155 701.971 352.275 701.076C352.658 698.05 336.961 695.244 335.429 695.549C333.898 695.855 331.809 694.752 331.634 695.549Z" fill="#D7DFF4"/>
<path d="M320.268 573.171C323.233 571.992 327.531 570.856 335.025 570.539C339.097 570.309 343.182 570.437 347.232 570.921C334.106 542.841 331.918 528.851 333.012 520.965C333.309 519.041 333.085 517.072 332.364 515.263C331.642 513.455 330.45 511.871 328.91 510.677L327.674 509.727C326.36 508.719 324.812 508.064 323.173 507.822C321.535 507.579 319.863 507.759 318.313 508.343C316.764 508.927 315.39 509.896 314.322 511.159C313.253 512.422 312.525 513.936 312.206 515.559C311.694 518.242 311.369 520.957 311.233 523.685C310.511 538.178 312.447 553.949 320.268 573.171Z" fill="#2D3750"/>
<path d="M318.288 499.645C322.915 504.222 329.862 504.713 332.673 501.895C335.484 499.078 333.067 493.988 328.44 489.412C323.812 484.836 319.174 484.792 316.407 487.621C313.639 490.449 313.661 495.069 318.288 499.645Z" fill="white"/>
<path d="M318.901 497.855L325.716 497.188C325.803 498.117 326.525 507.018 326.175 510.295C325.923 511.321 324.228 511.802 322.379 511.387C320.728 510.983 319.524 509.978 319.481 509.028C319.519 505.295 319.326 501.563 318.901 497.855Z" fill="white"/>
<path d="M332.498 494.796L332.29 494.96C331.273 495.845 326.634 499.941 326.569 502.234C326.503 504.812 329.205 500.672 329.85 498.881C330.496 497.09 331.852 497.024 332.913 496.446C333.974 495.867 334.237 494.305 332.498 494.796Z" fill="#2D3750"/>
<path d="M419.377 518.944L345.699 495.581L312.858 598.821L386.536 622.185L419.377 518.944Z" fill="white"/>
<path d="M353.26 555.991L339.356 551.622L343.732 537.741L357.624 542.109L353.26 555.991ZM342.102 550.17L351.838 553.25L354.922 543.54L345.198 540.449L342.102 550.17Z" fill="#376EFF"/>
<path d="M360.829 528.599L349.004 524.853C348.867 524.809 348.74 524.739 348.629 524.647C348.519 524.554 348.429 524.44 348.362 524.312C348.296 524.184 348.256 524.045 348.244 523.901C348.233 523.758 348.249 523.614 348.293 523.477L352.056 511.681C352.144 511.407 352.337 511.178 352.594 511.045C352.85 510.912 353.148 510.886 353.424 510.971L365.238 514.717C365.375 514.761 365.503 514.831 365.613 514.924C365.723 515.017 365.814 515.13 365.88 515.258C365.946 515.386 365.986 515.526 365.998 515.669C366.01 515.812 365.993 515.957 365.949 516.094L362.197 527.889C362.109 528.164 361.916 528.392 361.659 528.525C361.403 528.658 361.105 528.685 360.829 528.599ZM350.711 523.138L360.447 526.218L363.531 516.509L353.807 513.418L350.711 523.138Z" fill="#376EFF"/>
<path d="M343.601 582.771L331.787 579.025C331.649 578.982 331.522 578.911 331.412 578.819C331.301 578.726 331.211 578.612 331.145 578.484C331.079 578.357 331.038 578.217 331.027 578.074C331.015 577.93 331.031 577.786 331.076 577.649L334.828 565.853C334.871 565.716 334.941 565.589 335.034 565.479C335.127 565.369 335.241 565.278 335.369 565.212C335.497 565.146 335.637 565.106 335.781 565.095C335.924 565.083 336.069 565.099 336.206 565.143L348.02 568.89C348.157 568.933 348.285 569.003 348.395 569.096C348.505 569.189 348.596 569.302 348.662 569.43C348.728 569.558 348.768 569.698 348.78 569.841C348.792 569.984 348.775 570.129 348.731 570.266L344.979 582.061C344.935 582.198 344.865 582.326 344.772 582.436C344.679 582.546 344.566 582.636 344.438 582.702C344.309 582.768 344.169 582.808 344.026 582.82C343.882 582.832 343.738 582.815 343.601 582.771ZM333.493 577.31L343.229 580.39L346.313 570.681L336.589 567.59L333.493 577.31Z" fill="#376EFF"/>
<path d="M400.946 530.004L370.368 520.307L369.374 523.43L399.953 533.126L400.946 530.004Z" fill="#376EFF"/>
<path d="M399.01 536.079L368.431 526.383L367.438 529.506L398.017 539.202L399.01 536.079Z" fill="#376EFF"/>
<path d="M392.754 555.775L362.175 546.078L361.182 549.201L391.76 558.898L392.754 555.775Z" fill="#376EFF"/>
<path d="M390.806 561.851L360.228 552.154L359.235 555.277L389.813 564.974L390.806 561.851Z" fill="#376EFF"/>
<path d="M384.54 581.542L353.961 571.846L352.968 574.969L383.546 584.665L384.54 581.542Z" fill="#376EFF"/>
<path d="M382.614 587.611L352.036 577.914L351.042 581.037L381.621 590.733L382.614 587.611Z" fill="#376EFF"/>
<path d="M365.846 517.559C365.768 517.407 365.66 517.271 365.529 517.161C365.398 517.05 365.246 516.966 365.083 516.915C364.919 516.863 364.747 516.844 364.576 516.858C364.405 516.873 364.239 516.922 364.087 517.001L358.122 520.084L355.749 515.51C355.589 515.202 355.312 514.97 354.981 514.865C354.649 514.76 354.289 514.792 353.981 514.952C353.672 515.112 353.44 515.388 353.335 515.719C353.23 516.05 353.261 516.409 353.422 516.717L356.473 522.59C356.552 522.744 356.661 522.88 356.793 522.992C356.925 523.103 357.078 523.188 357.243 523.24C357.405 523.292 357.576 523.312 357.746 523.297C357.915 523.283 358.081 523.236 358.232 523.158C358.441 523.052 358.615 522.891 358.736 522.691C358.825 522.665 358.91 522.632 358.993 522.59L365.287 519.334C365.442 519.255 365.58 519.147 365.692 519.015C365.805 518.883 365.889 518.729 365.941 518.564C365.994 518.399 366.012 518.224 365.996 518.052C365.979 517.879 365.928 517.712 365.846 517.559Z" fill="#FF715E"/>
<path d="M341.284 574.43L343.787 573.149C344.004 573.037 344.168 572.844 344.242 572.611C344.317 572.379 344.296 572.126 344.184 571.909C344.128 571.802 344.052 571.706 343.96 571.628C343.867 571.55 343.761 571.491 343.645 571.454C343.412 571.379 343.159 571.401 342.942 571.512L340.439 572.762L339.156 570.263C339.106 570.146 339.032 570.041 338.939 569.954C338.847 569.867 338.737 569.8 338.617 569.757C338.497 569.714 338.37 569.696 338.242 569.705C338.115 569.713 337.991 569.748 337.878 569.807C337.765 569.865 337.666 569.946 337.585 570.045C337.505 570.144 337.446 570.258 337.412 570.381C337.379 570.503 337.37 570.632 337.388 570.758C337.406 570.884 337.45 571.004 337.517 571.113L338.768 573.611L336.265 574.861C336.157 574.916 336.06 574.993 335.981 575.086C335.902 575.179 335.843 575.287 335.806 575.403C335.769 575.52 335.756 575.642 335.767 575.763C335.779 575.885 335.814 576.003 335.871 576.11C335.926 576.219 336.001 576.315 336.094 576.393C336.186 576.472 336.293 576.531 336.409 576.567C336.644 576.64 336.898 576.617 337.116 576.504L339.619 575.255L340.871 577.754C340.984 577.972 341.179 578.136 341.414 578.211C341.648 578.286 341.903 578.265 342.122 578.153C342.231 578.098 342.328 578.021 342.406 577.928C342.485 577.835 342.545 577.727 342.582 577.611C342.618 577.495 342.631 577.372 342.62 577.251C342.609 577.13 342.574 577.012 342.516 576.904L341.284 574.43Z" fill="#FF715E"/>
<path d="M349.801 547.196L351.824 546.186C351.984 546.087 352.102 545.931 352.152 545.749C352.202 545.567 352.182 545.373 352.095 545.205C352.008 545.038 351.861 544.91 351.683 544.846C351.505 544.782 351.309 544.788 351.136 544.863L349.113 545.873L348.101 543.853C348.01 543.677 347.853 543.544 347.663 543.484C347.474 543.424 347.269 543.441 347.092 543.532C346.916 543.623 346.783 543.781 346.723 543.97C346.663 544.158 346.68 544.364 346.771 544.54L347.813 546.559L345.79 547.569C345.614 547.662 345.482 547.82 345.423 548.009C345.363 548.198 345.381 548.403 345.471 548.579C345.563 548.755 345.721 548.888 345.911 548.949C346.1 549.009 346.306 548.993 346.483 548.902L348.506 547.862L349.548 549.882C349.64 550.057 349.799 550.189 349.988 550.249C350.177 550.308 350.383 550.291 350.559 550.2C350.647 550.155 350.724 550.093 350.788 550.017C350.851 549.942 350.899 549.855 350.929 549.761C350.958 549.667 350.969 549.569 350.96 549.471C350.951 549.373 350.924 549.277 350.878 549.19L349.801 547.196Z" fill="#FF715E"/>
<path d="M354.627 547.712C354.627 547.712 364.811 542.055 367.535 543.158C370.259 544.261 361.168 550.803 354.113 550.53L354.627 547.712Z" fill="#D7DFF4"/>
<path d="M356.64 545.834C357.055 547.603 357.482 549.373 357.941 550.967C328.713 558.023 305.927 552.715 312.676 518.42C313.77 513.178 314.777 514.281 317.905 514.772C318.365 514.412 318.66 514.368 317.905 514.772C321.034 515.264 322.784 515.865 321.46 520.627C312.808 551.481 333.285 547.254 356.64 545.834Z" fill="#2D3750"/>
<path d="M314.667 497.396C314.667 497.396 312.677 493.497 313.902 490.111C315.127 486.725 319.743 482.466 324.84 485.546C324.84 485.546 328.232 488.08 324.84 491.902C321.449 495.725 320.356 493.126 320.137 496.642C319.918 500.159 317.008 500.225 317.041 501.011L314.667 497.396Z" fill="#2D3750"/>
<path d="M317.818 503.304C318.912 504.397 321.329 504.659 322.106 503.883C322.883 503.108 322.193 502.048 321.121 500.978C320.049 499.908 318.409 499.547 317.632 500.334C317.426 500.529 317.266 500.768 317.162 501.032C317.059 501.296 317.014 501.579 317.032 501.862C317.05 502.145 317.129 502.421 317.265 502.67C317.401 502.919 317.59 503.136 317.818 503.304Z" fill="white"/>
<path d="M321.931 500.771C322.685 499.493 323.812 500.246 326.47 501.066C329.128 501.885 333.263 500.618 332.355 495.037C331.787 491.476 335.014 496.795 335.025 496.806C336.042 499.602 335.648 501.513 333.931 503.184C331.644 505.5 327.367 506.177 323.057 504.746C322.193 503.468 321.449 501.633 321.931 500.771Z" fill="#2D3750"/>
<path d="M341.139 345.572C341.129 345.438 341.129 345.302 341.139 345.168C341.187 344.904 341.286 344.653 341.431 344.428C341.576 344.203 341.765 344.008 341.985 343.856C342.206 343.704 342.454 343.597 342.717 343.541C342.979 343.485 343.25 343.481 343.513 343.53L357.974 346.173C358.508 346.271 358.981 346.577 359.289 347.024C359.596 347.47 359.714 348.021 359.615 348.554C359.517 349.087 359.21 349.559 358.763 349.866C358.316 350.173 357.764 350.29 357.23 350.192L342.78 347.538C342.323 347.446 341.912 347.201 341.613 346.843C341.315 346.486 341.148 346.037 341.139 345.572Z" fill="white"/>
<path d="M345.832 343.759C345.832 343.759 343.108 339.106 342.091 339.871C341.074 340.636 327.564 352.835 328.067 353.523C329.807 355.85 342.386 347.473 343.24 346.249C344.093 345.026 346.237 344.425 345.832 343.759Z" fill="#2D3750"/>
<path d="M482.557 354.506C482.423 354.48 482.292 354.444 482.163 354.397C481.913 354.298 481.685 354.151 481.492 353.964C481.299 353.777 481.144 353.554 481.038 353.308C480.931 353.061 480.874 352.796 480.87 352.528C480.866 352.259 480.915 351.993 481.015 351.743L486.408 338.102C486.492 337.834 486.631 337.587 486.815 337.376C486.999 337.164 487.225 336.993 487.479 336.872C487.732 336.751 488.008 336.684 488.288 336.675C488.569 336.665 488.849 336.713 489.11 336.816C489.371 336.919 489.608 337.075 489.806 337.273C490.005 337.471 490.16 337.709 490.263 337.97C490.365 338.23 490.413 338.51 490.403 338.79C490.392 339.07 490.325 339.345 490.203 339.598L484.81 353.25C484.638 353.687 484.32 354.052 483.909 354.281C483.498 354.51 483.02 354.589 482.557 354.506Z" fill="white"/>
<path d="M479.778 351.885C479.778 351.885 478.619 357.149 479.888 357.269C481.157 357.39 499.37 357.586 499.457 356.734C499.775 353.851 484.832 351.492 483.377 351.809C481.922 352.125 479.932 351.12 479.778 351.885Z" fill="#2D3750"/>
<path d="M488.234 350.137L481.419 346.642C487.545 334.76 495.005 315.406 492.358 309.508C492.29 309.287 492.164 309.089 491.993 308.933C491.822 308.777 491.611 308.671 491.385 308.624C481.923 306.101 462.55 320.452 455.111 324.493L449.445 313.364C452.453 311.726 479.253 297.484 493.354 301.23C494.688 301.572 495.925 302.219 496.967 303.119C498.009 304.019 498.828 305.148 499.359 306.418C504.402 317.743 491.002 344.84 488.234 350.137Z" fill="#2D3750"/>
<path d="M516.314 340.002C516.314 340.002 523.064 348.074 522.539 350.673C522.013 353.272 514.706 346.304 513.722 340.035L516.314 340.002Z" fill="white"/>
<path d="M348.403 350.804C348.6 348.62 348.906 346.381 349.311 344.174C389.927 351.339 429.919 354.463 442.521 308.679C448.253 310.026 453.974 311.438 459.684 312.916C438.495 363.091 396.676 361.267 348.403 350.804Z" fill="#2D3750"/>
<path d="M517.944 273.008C517.506 272.028 516.779 271.203 515.861 270.644C514.943 270.084 513.877 269.815 512.803 269.873C510.714 270.147 509.521 272.418 509.817 274.384C510.112 276.35 513.569 278.884 515.647 278.611C517.726 278.338 518.918 275.345 517.944 273.008Z" fill="#2D3750"/>
<path d="M502.717 272.822C503.647 268.279 501.273 262.316 496.942 260.142C492.61 257.969 487.436 260.83 485.368 264.948C483.301 269.065 485.051 277.453 491.297 281.178C495.454 283.657 501.547 278.567 502.717 272.822Z" fill="#2D3750"/>
<path d="M506.907 273.827C507.64 270.453 506.021 266.073 502.936 264.522C499.851 262.971 496.088 265.156 494.535 268.246C492.982 271.337 495.301 278.218 498.386 279.769C501.47 281.32 505.988 278.054 506.907 273.827Z" fill="#2D3750"/>
<path d="M501.689 271.697C497.926 276.59 498.276 283.176 501.273 285.481C504.271 287.785 508.767 284.924 512.53 280.02C516.293 275.116 515.811 270.78 512.803 268.475C509.795 266.171 505.463 266.804 501.689 271.697Z" fill="white"/>
<path d="M498.189 271.687C497.314 272.779 497.324 275.149 498.189 275.782C499.053 276.416 499.939 275.651 500.814 274.515C501.689 273.38 501.842 271.796 501.022 271.162C500.811 270.984 500.564 270.855 500.297 270.785C500.031 270.714 499.752 270.703 499.481 270.753C499.209 270.803 498.953 270.913 498.729 271.075C498.506 271.236 498.321 271.445 498.189 271.687Z" fill="white"/>
<path d="M503.384 268.039C503.384 268.039 506.841 265.701 510.167 266.455C513.492 267.208 518.064 271.042 515.745 276.164C515.745 276.164 513.766 279.648 509.762 276.907C505.758 274.166 508.077 272.844 504.741 273.052C501.405 273.259 500.989 270.529 500.3 270.649L503.384 268.039Z" fill="#2D3750"/>
<path d="M501.864 273.805L504.326 279.801C503.505 280.14 495.64 283.209 492.501 283.81C491.494 283.864 490.608 282.455 490.51 280.664C490.422 279.048 491.002 277.682 491.855 277.388C495.263 276.402 498.606 275.205 501.864 273.805Z" fill="white"/>
<path d="M508.231 349.045C508.231 349.045 518.623 352.824 519.509 355.456C520.395 358.089 510.101 355.62 505.89 350.432L508.231 349.045Z" fill="white"/>
<path fill-rule="evenodd" clip-rule="evenodd" d="M457.332 328.294C452.639 326.219 450.616 322.997 448.1 318.836C447.134 317.231 445.762 315.698 444.402 314.179C443.049 312.668 441.709 311.17 440.792 309.629C443.68 291.684 466.411 277.955 478.378 275.596C488.891 273.554 493.988 275.192 495.301 282.925L495.301 282.934C495.307 283.027 495.354 283.747 494.861 284.907L494.864 284.934C497.195 309.835 502.033 317.044 515.059 336.457C515.722 337.446 516.407 338.466 517.113 339.522C515.929 340.729 514.677 341.866 513.361 342.929C497.084 322.224 490.993 314.172 487.666 292.079C487.311 292.302 486.939 292.528 486.55 292.755C485.797 293.189 485.167 293.565 484.614 293.899C483.761 316.982 488.425 322.753 504.537 342.69C506.03 344.537 507.62 346.505 509.314 348.619C508.298 350.066 507.203 351.456 506.032 352.781C483.255 328.156 478.922 321.181 477.863 297.546C476.62 298.098 475.049 298.76 472.953 299.613C468.993 301.131 458.874 321.293 457.332 328.294Z" fill="#FF715E"/>
<path d="M542.557 518.519H487.567V573.422H542.557V518.519Z" fill="white"/>
<path d="M529.235 536.56L529.24 536.565L529.246 536.57C529.509 536.826 529.719 537.131 529.863 537.468C530.007 537.805 530.083 538.167 530.087 538.534C530.09 538.9 530.021 539.264 529.883 539.603C529.745 539.943 529.541 540.252 529.283 540.513L529.283 540.513L529.277 540.519L516.604 553.761L515.124 555.195L515.124 555.195L515.114 555.205C514.855 555.471 514.545 555.683 514.202 555.827C513.86 555.971 513.492 556.046 513.12 556.046C512.749 556.046 512.381 555.971 512.038 555.827C511.696 555.683 511.386 555.471 511.126 555.205L511.126 555.205L511.121 555.2L499.176 543.285C498.645 542.754 498.347 542.035 498.347 541.285C498.347 540.535 498.645 539.816 499.176 539.285C499.708 538.755 500.429 538.456 501.181 538.456C501.932 538.456 502.653 538.755 503.185 539.285L512.493 548.58L512.847 548.932L513.2 548.58L525.233 536.566L525.233 536.566L525.238 536.56C525.498 536.293 525.808 536.08 526.152 535.935C526.495 535.79 526.864 535.715 527.237 535.715C527.61 535.715 527.979 535.79 528.322 535.935C528.666 536.08 528.976 536.293 529.235 536.56Z" fill="#FF715E" stroke="white"/>
<path d="M201.122 741.672C200.984 741.688 200.844 741.688 200.706 741.672C200.176 741.564 199.71 741.251 199.411 740.8C199.111 740.35 199.003 739.799 199.109 739.269L202.052 724.885C202.095 724.613 202.193 724.351 202.34 724.118C202.487 723.884 202.68 723.682 202.907 723.525C203.134 723.367 203.391 723.258 203.662 723.202C203.933 723.147 204.212 723.147 204.483 723.202C204.754 723.258 205.011 723.367 205.238 723.525C205.465 723.682 205.658 723.884 205.805 724.118C205.952 724.352 206.05 724.613 206.093 724.885C206.136 725.158 206.123 725.437 206.055 725.704L203.124 740.088C203.02 740.54 202.765 740.943 202.401 741.23C202.037 741.518 201.586 741.674 201.122 741.672Z" fill="white"/>
<path d="M198.508 738.953C198.508 738.953 197.239 744.195 198.508 744.348C199.776 744.501 217.99 745.047 218.099 744.195C218.46 741.323 203.572 738.658 202.106 738.953C200.641 739.247 198.672 738.199 198.508 738.953Z" fill="#D7DFF4"/>
<path d="M242.81 514.619C242.81 514.619 238.314 505.096 239.528 502.715C240.743 500.334 245.993 508.918 245.359 515.242L242.81 514.619Z" fill="white"/>
<path d="M241.596 515.406C241.399 513.888 245.085 513.473 246.223 513.331C252.381 544.611 251.692 542.022 238.938 571.555C236.98 576.065 235.229 574.46 232.527 572.024C231.959 572.636 231.97 572.636 232.527 572.024C229.815 569.589 230.919 568.748 233.009 564.739C246.715 538.451 245.49 544.447 241.596 515.406Z" fill="#D7DFF4"/>
<path d="M247.984 741.628C247.846 741.639 247.707 741.639 247.568 741.628C247.3 741.632 247.034 741.584 246.785 741.485C246.536 741.386 246.308 741.239 246.116 741.053C245.924 740.866 245.771 740.643 245.665 740.397C245.56 740.151 245.504 739.886 245.501 739.619L245.282 724.94C245.282 724.398 245.498 723.879 245.881 723.496C246.265 723.113 246.785 722.897 247.328 722.897C247.87 722.897 248.391 723.113 248.774 723.496C249.158 723.879 249.373 724.398 249.373 724.94L249.592 739.619C249.594 740.086 249.435 740.541 249.142 740.906C248.85 741.271 248.441 741.526 247.984 741.628Z" fill="white"/>
<path fill-rule="evenodd" clip-rule="evenodd" d="M199.383 731.536C201.68 731.646 203.977 731.646 206.274 731.646C210.412 705.749 218.271 684.624 226.216 663.27C229.026 655.718 231.846 648.137 234.516 640.307C241.963 671.058 243.239 701.834 244.309 733.721C246.485 733.36 248.618 732.814 250.752 732.268C250.357 720.372 250.541 708.362 250.726 696.318C251.155 668.323 251.587 640.145 244.757 612.784C243.87 613.069 242.983 613.355 242.097 613.643C236.377 612.718 230.667 611.928 224.958 611.211C222.026 642.382 208.582 695.331 199.383 731.536Z" fill="#FF715E"/>
<path d="M245.457 738.81C245.457 738.81 244.188 744.064 245.457 744.206C246.726 744.348 264.939 744.905 265.049 744.064C265.41 741.18 250.522 738.526 249.056 738.81C247.59 739.094 245.621 738.057 245.457 738.81Z" fill="#D7DFF4"/>
<path d="M223.065 617.557C227.911 617.721 231.565 618.966 236.279 620.637C239.484 621.729 243.937 623.837 246.967 625.246C246.332 602.07 246.595 591.946 239.495 571.991C235.951 562.031 230.285 562.26 229.935 562.162C223.371 561.07 217.552 564.739 218.569 571.991C218.908 574.427 219.444 575.104 220.757 578.315C226.697 593.584 224.378 601.841 223.065 617.557Z" fill="#D7DFF4"/>
<path d="M202.522 516.924C202.522 516.924 204.776 506.101 203.003 503.96C201.231 501.819 197.906 511.867 200.105 518.158L202.522 516.924Z" fill="white"/>
<path d="M221.064 551.098C223.394 556.821 229.268 559.836 232.768 558.405C236.269 556.974 236.05 551.666 233.731 545.943C231.412 540.22 227.386 538.473 223.886 539.892C220.386 541.312 218.723 545.408 221.064 551.098Z" fill="white"/>
<path d="M218.745 547.822C218.745 547.822 218.46 543.671 220.79 541.181C223.12 538.691 228.743 536.67 232.013 541.258C232.013 541.258 234.026 544.72 229.629 546.795C225.231 548.87 225.253 546.194 223.765 549.187C222.278 552.179 219.696 551.142 219.39 551.808L218.745 547.822Z" fill="#2D3750"/>
<path d="M222.059 551.328L228.524 550.705C228.611 551.59 229.29 560 228.961 563.178C228.721 564.15 227.102 564.598 225.352 564.172C223.787 563.789 222.639 562.839 222.595 561.987C222.636 558.426 222.457 554.866 222.059 551.328Z" fill="white"/>
<path d="M219.28 554.145C219.827 555.478 221.84 556.646 222.803 556.253C223.765 555.86 223.58 554.68 223.033 553.348C222.486 552.015 221.195 551.087 220.232 551.48C219.98 551.575 219.752 551.724 219.563 551.917C219.374 552.109 219.23 552.34 219.139 552.593C219.049 552.846 219.015 553.117 219.039 553.385C219.063 553.653 219.146 553.912 219.28 554.145Z" fill="white"/>
<path d="M234.803 555.827C235.003 555.997 235.165 556.209 235.275 556.447C235.386 556.686 235.443 556.946 235.443 557.209C235.443 557.471 235.386 557.731 235.275 557.97C235.165 558.208 235.003 558.42 234.803 558.59C233.337 560.13 230.854 558.962 230.93 557.946C231.007 556.93 232.265 557.509 232.834 556.919C233.403 556.329 234.409 555.346 234.803 555.827Z" fill="#2D3750"/>
<path d="M203.211 515.723C203.014 514.347 199.481 514.631 198.322 515.002C201.417 544.108 201.45 547.898 218.296 572.887C220.867 576.71 227.988 572.177 222.42 564.86C206.69 544.174 206.931 542.142 203.211 515.723Z" fill="#D7DFF4"/>
<path d="M259.929 396.817H182.624V505.139H259.929V396.817Z" fill="white"/>
<path d="M208.145 452.07H193.563V437.512H208.145V452.07ZM195.751 449.886H205.957V439.696H195.751V449.886Z" fill="#376EFF"/>
<path d="M207.051 423.674H194.657C194.367 423.674 194.089 423.559 193.884 423.354C193.679 423.149 193.563 422.871 193.563 422.582V410.207C193.563 409.918 193.679 409.64 193.884 409.435C194.089 409.23 194.367 409.115 194.657 409.115H207.051C207.341 409.115 207.619 409.23 207.824 409.435C208.029 409.64 208.145 409.918 208.145 410.207V422.582C208.145 422.871 208.029 423.149 207.824 423.354C207.619 423.559 207.341 423.674 207.051 423.674ZM195.751 421.49H205.957V411.3H195.751V421.49Z" fill="#376EFF"/>
<path d="M207.051 480.467H194.657C194.367 480.467 194.089 480.352 193.884 480.147C193.679 479.942 193.563 479.664 193.563 479.375V467C193.563 466.711 193.679 466.433 193.884 466.228C194.089 466.023 194.367 465.908 194.657 465.908H207.051C207.341 465.908 207.619 466.023 207.824 466.228C208.029 466.433 208.145 466.711 208.145 467V479.375C208.145 479.664 208.029 479.942 207.824 480.147C207.619 480.352 207.341 480.467 207.051 480.467ZM195.751 478.283H205.957V468.093H195.751V478.283Z" fill="#376EFF"/>
<path d="M245.698 412.938H213.614V416.215H245.698V412.938Z" fill="#376EFF"/>
<path d="M245.698 419.305H213.614V422.582H245.698V419.305Z" fill="#376EFF"/>
<path d="M245.698 439.969H213.614V443.246H245.698V439.969Z" fill="#376EFF"/>
<path d="M245.698 446.336H213.614V449.613H245.698V446.336Z" fill="#376EFF"/>
<path d="M245.698 467H213.614V470.277H245.698V467Z" fill="#376EFF"/>
<path d="M245.698 473.368H213.614V476.644H245.698V473.368Z" fill="#376EFF"/>
<path d="M204.671 442.361C204.515 442.207 204.305 442.121 204.085 442.121C203.866 442.121 203.655 442.207 203.5 442.361L200.471 445.391L198.128 443.052C197.967 442.932 197.768 442.875 197.568 442.89C197.368 442.905 197.18 442.991 197.038 443.133C196.896 443.274 196.81 443.462 196.795 443.662C196.78 443.862 196.837 444.06 196.957 444.221L199.956 447.216C200.111 447.372 200.321 447.46 200.542 447.461C200.761 447.459 200.972 447.371 201.127 447.216C201.229 447.109 201.302 446.978 201.338 446.836C201.389 446.807 201.435 446.769 201.473 446.724L204.683 443.525C204.834 443.368 204.918 443.159 204.915 442.941C204.913 442.723 204.826 442.515 204.671 442.361Z" fill="#FF715E"/>
<path d="M202.164 473.089L204.145 471.117C204.317 470.942 204.413 470.708 204.413 470.463C204.413 470.218 204.317 469.983 204.145 469.809C204.059 469.722 203.957 469.653 203.845 469.607C203.732 469.56 203.612 469.536 203.49 469.536C203.368 469.536 203.247 469.56 203.135 469.607C203.022 469.653 202.92 469.722 202.835 469.809L200.853 471.78L198.878 469.809C198.702 469.65 198.471 469.566 198.234 469.572C197.996 469.578 197.77 469.675 197.602 469.843C197.435 470.011 197.337 470.236 197.331 470.473C197.325 470.71 197.41 470.941 197.568 471.117L199.543 473.089L197.568 475.067C197.481 475.152 197.413 475.254 197.366 475.367C197.319 475.479 197.295 475.599 197.295 475.721C197.295 475.843 197.319 475.963 197.366 476.075C197.413 476.188 197.481 476.29 197.568 476.375C197.734 476.543 197.959 476.639 198.195 476.644C198.431 476.637 198.655 476.541 198.822 476.375L200.797 474.397L202.778 476.375C202.944 476.543 203.169 476.639 203.405 476.644C203.641 476.637 203.865 476.541 204.032 476.375C204.204 476.201 204.3 475.966 204.3 475.721C204.3 475.476 204.204 475.241 204.032 475.067L202.164 473.089Z" fill="#FF715E"/>
<path fill-rule="evenodd" clip-rule="evenodd" d="M822.677 540.97C821.969 539.781 820.857 538.378 819.277 537.643C818.21 537.146 816.793 536.852 815.343 536.909C813.63 535.802 810.961 535.847 809.181 536.9C806.632 538.396 805.516 541.99 807.124 543.606C807.682 544.167 808.636 544.53 809.713 544.697C810.323 545.44 811.383 546.069 813.217 546.173C814.079 546.221 814.755 546.184 815.298 546.101C814.876 548.743 814.877 551.257 816.05 552.311C817.199 553.331 818.545 554.107 820.004 554.591C821.463 555.076 823.006 555.258 824.538 555.128C827.418 554.882 827.957 555.372 829.267 556.561C830.226 557.432 831.597 558.677 834.602 560.284C835.269 560.641 835.932 560.897 836.585 561.062C836.708 561.114 836.835 561.16 836.965 561.201C843.9 563.363 851.328 559.093 853.023 554.79C854.719 550.487 853.45 544.753 848.889 542.973C847.167 542.301 845.242 542.2 843.365 542.534C842.898 542.055 842.334 541.668 841.669 541.411C839.514 540.576 836.847 541.076 834.713 542.339C832.855 541.558 831.208 541.776 829.007 542.066C828.652 542.113 828.283 542.161 827.897 542.208C826.325 542.398 824.421 541.789 822.677 540.97Z" fill="#FF715E"/>
</g>
<defs>
<clipPath id="clip0_0_2835">
<rect width="1041.06" height="598.611" fill="white" transform="translate(0 259.389)"/>
</clipPath>
</defs>
</svg>
