<svg width="442" height="273" viewBox="0 0 442 273" fill="none" xmlns="http://www.w3.org/2000/svg">
<path d="M429.616 139.442H271.459C254.891 139.442 241.459 126.011 241.459 109.442V59.4356C241.459 42.867 228.028 29.4355 211.459 29.4355H30.4058" stroke="white" stroke-width="1.5"/>
<path d="M37.516 93.5469C37.9004 91.1912 36.3027 88.9698 33.9475 88.5853C31.5922 88.2008 29.3713 89.7988 28.9868 92.1545C28.6024 94.5102 30.2001 96.7316 32.5553 97.1161C34.9106 97.5006 37.1316 95.9026 37.516 93.5469Z" fill="white" stroke="white"/>
<path d="M435.492 144.969C438.737 141.724 438.737 136.461 435.492 133.215C432.247 129.969 426.985 129.969 423.74 133.215C420.495 136.461 420.495 141.724 423.74 144.969C426.985 148.215 432.247 148.215 435.492 144.969Z" fill="white" stroke="white"/>
<path d="M106.108 213.757C108.495 213.757 110.429 211.822 110.429 209.436C110.429 207.049 108.495 205.114 106.108 205.114C103.722 205.114 101.787 207.049 101.787 209.436C101.787 211.822 103.722 213.757 106.108 213.757Z" fill="white" stroke="white"/>
<path d="M59.8234 30.1319C60.2078 27.7762 58.6101 25.5548 56.2548 25.1703C53.8996 24.7858 51.6786 26.3838 51.2942 28.7395C50.9098 31.0952 52.5075 33.3166 54.8627 33.7011C57.218 34.0856 59.4389 32.4876 59.8234 30.1319Z" fill="white" stroke="white"/>
<path d="M9.82518 149.349C10.2096 146.993 8.61192 144.772 6.25667 144.388C3.90141 144.003 1.68046 145.601 1.29604 147.957C0.911613 150.312 2.50929 152.534 4.86455 152.918C7.21981 153.303 9.44076 151.705 9.82518 149.349Z" fill="white" stroke="white"/>
<path d="M35.9022 30.1319C36.2866 27.7762 34.6889 25.5548 32.3336 25.1703C29.9783 24.7858 27.7574 26.3838 27.3729 28.7395C26.9885 31.0952 28.5862 33.3166 30.9415 33.7011C33.2968 34.0856 35.5177 32.4876 35.9022 30.1319Z" fill="white" stroke="white"/>
<path d="M179.079 266.658C182.324 263.412 182.324 258.15 179.079 254.904C175.833 251.658 170.572 251.658 167.327 254.904C164.082 258.15 164.082 263.412 167.327 266.658C170.572 269.904 175.833 269.904 179.079 266.658Z" fill="white" stroke="white"/>
<path d="M311.842 173.335C310.727 173.32 309.611 173.251 308.495 173.129L308.567 172.467C309.651 172.586 310.756 172.656 311.85 172.668L311.842 173.335ZM315.194 173.214L315.137 172.549C316.23 172.457 317.318 172.31 318.397 172.108L318.518 172.762C317.425 172.966 316.307 173.117 315.194 173.214ZM305.183 172.594C304.093 172.361 303.002 172.073 301.941 171.733L302.142 171.099C303.183 171.431 304.251 171.716 305.32 171.944L305.183 172.594ZM321.793 171.984L321.607 171.347C322.661 171.04 323.699 170.68 324.716 170.268L324.964 170.885C323.923 171.306 322.86 171.673 321.781 171.984L321.793 171.984ZM298.812 170.553C297.785 170.108 296.78 169.612 295.803 169.065L296.127 168.485C297.085 169.02 298.069 169.507 299.075 169.943L298.812 170.553ZM328.008 169.477L327.701 168.889C328.668 168.381 329.62 167.821 330.534 167.218L330.901 167.774C329.954 168.389 328.982 168.961 327.996 169.477L328.008 169.477ZM292.957 167.29C292.042 166.653 291.147 165.964 290.299 165.24L290.73 164.744C291.563 165.455 292.439 166.13 293.336 166.755L292.957 167.29ZM333.613 165.802L333.194 165.287C334.045 164.6 334.868 163.861 335.646 163.092L336.112 163.566C335.302 164.339 334.461 165.093 333.596 165.792L333.613 165.802ZM287.862 162.951C287.089 162.148 286.347 161.297 285.656 160.422L286.179 160.01C286.856 160.868 287.582 161.704 288.341 162.49L287.862 162.951ZM338.383 161.094L337.87 160.67C338.569 159.827 339.233 158.934 339.853 158.036L340.404 158.411C339.757 159.323 339.077 160.226 338.366 161.084L338.383 161.094ZM283.71 157.687C283.11 156.75 282.549 155.768 282.044 154.776L282.636 154.473C283.132 155.448 283.68 156.41 284.27 157.33L283.71 157.687ZM342.119 155.54L341.534 155.225C342.055 154.263 342.526 153.263 342.955 152.249L343.567 152.497C343.136 153.535 342.653 154.551 342.119 155.54ZM280.658 151.711C280.254 150.675 279.899 149.604 279.599 148.527L280.241 148.349C280.534 149.406 280.88 150.448 281.278 151.471L280.658 151.711ZM344.707 149.356L344.07 149.162C344.39 148.116 344.66 147.042 344.873 145.974L345.525 146.103C345.307 147.184 345.032 148.28 344.707 149.341L344.707 149.356ZM278.866 145.255C278.675 144.159 278.538 143.038 278.457 141.925L279.121 141.875C279.2 142.968 279.334 144.067 279.52 145.14L278.866 145.255ZM346.019 142.775L345.357 142.708C345.461 141.622 345.515 140.519 345.515 139.423L346.18 139.423C346.18 140.538 346.125 141.667 346.019 142.775ZM279.042 138.577L278.377 138.56C278.404 137.442 278.489 136.328 278.625 135.215L279.285 135.297C279.151 136.378 279.069 137.481 279.042 138.577ZM345.481 137.833C345.429 136.74 345.322 135.639 345.163 134.56L345.823 134.464C345.984 135.565 346.093 136.695 346.145 137.804L345.481 137.833ZM279.852 132.063L279.205 131.917C279.452 130.828 279.753 129.753 280.108 128.694L280.737 128.904C280.39 129.921 280.093 130.992 279.85 132.056L279.852 132.063ZM344.526 131.332C344.261 130.273 343.939 129.214 343.569 128.185L344.194 127.962C344.571 129.011 344.901 130.092 345.171 131.171L344.526 131.332ZM281.932 125.83L281.327 125.557C281.783 124.541 282.297 123.536 282.852 122.567L283.427 122.899C282.882 123.839 282.378 124.826 281.93 125.822L281.932 125.83ZM342.305 125.15C341.834 124.159 341.313 123.189 340.746 122.254L341.313 121.91C341.891 122.864 342.427 123.859 342.905 124.863L342.305 125.15ZM285.205 120.129L284.664 119.745C285.311 118.838 286.01 117.952 286.747 117.112L287.242 117.551C286.523 118.366 285.837 119.234 285.202 120.122L285.205 120.129ZM338.906 119.527C338.252 118.652 337.545 117.791 336.806 116.993L337.302 116.544C338.046 117.367 338.775 118.235 339.444 119.128L338.906 119.527ZM289.528 115.175L289.074 114.679C289.889 113.912 290.742 113.186 291.63 112.505L292.034 113.033C291.172 113.71 290.326 114.427 289.528 115.175ZM334.466 114.679C333.653 113.948 332.793 113.251 331.913 112.604L332.307 112.068C333.204 112.728 334.079 113.44 334.912 114.184L334.466 114.679ZM294.739 111.181L294.387 110.618C295.334 110.028 296.323 109.48 297.322 108.986L297.615 109.584C296.643 110.055 295.669 110.593 294.739 111.171L294.739 111.181ZM329.168 110.794C328.226 110.236 327.247 109.72 326.258 109.262L326.538 108.657C327.547 109.125 328.546 109.648 329.513 110.221L329.168 110.794ZM300.634 108.28L300.401 107.657C301.449 107.265 302.515 106.925 303.597 106.641L303.768 107.283C302.712 107.551 301.658 107.888 300.634 108.27L300.634 108.28ZM323.209 108.032C322.175 107.672 321.114 107.36 320.053 107.104L320.209 106.46C321.298 106.72 322.374 107.034 323.432 107.402L323.209 108.032ZM306.986 106.609L306.882 105.951C307.98 105.775 309.113 105.654 310.216 105.587L310.256 106.252C309.161 106.311 308.069 106.425 306.986 106.594L306.986 106.609ZM316.82 106.499C315.734 106.35 314.641 106.255 313.545 106.214L313.57 105.55C314.683 105.592 315.801 105.689 316.912 105.84L316.82 106.499Z" fill="white" stroke="white"/>
<path d="M313.932 10.597C316.137 9.68353 317.184 7.15539 316.271 4.9502C315.357 2.74501 312.83 1.69783 310.625 2.61125C308.42 3.52467 307.373 6.0528 308.286 8.25799C309.2 10.4632 311.727 11.5104 313.932 10.597Z" fill="white" stroke="white"/>
<path d="M106.108 209.436H279.949C297.07 209.436 310.949 195.556 310.949 178.436V6.10938" stroke="white" stroke-width="1.5"/>
<path d="M171.872 261.479H63.2515C46.6829 261.479 33.2515 248.047 33.2515 231.479V92.8511" stroke="white" stroke-width="1.5"/>
<path d="M5.56042 148.652H187.301C203.87 148.652 217.301 135.221 217.301 118.652V29.4355" stroke="white" stroke-width="1.5" stroke-dasharray="5 3"/>
</svg>
