<svg width="517" height="322" viewBox="0 0 517 322" fill="none" xmlns="http://www.w3.org/2000/svg">
<path d="M13.8344 157.655L205.33 157.655C221.899 157.655 235.33 171.086 235.33 187.655L235.33 257.154C235.33 273.722 248.762 287.154 265.33 287.154L483.78 287.154" stroke="#376EFF" stroke-width="1.5"/>
<path d="M475.41 211.689C474.957 214.439 476.838 217.032 479.611 217.481C482.383 217.929 484.998 216.064 485.45 213.315C485.903 210.565 484.022 207.972 481.249 207.523C478.477 207.075 475.862 208.94 475.41 211.689Z" fill="#376EFF" stroke="#376EFF"/>
<path d="M6.91692 149.809C3.09671 153.598 3.09671 159.74 6.91692 163.529C10.7371 167.317 16.9309 167.317 20.7511 163.529C24.5713 159.74 24.5713 153.598 20.7511 149.809C16.9309 146.021 10.7371 146.021 6.91692 149.809Z" fill="#376EFF" stroke="#376EFF"/>
<path d="M394.087 70C391.277 70 389 72.2585 389 75.0444C389 77.8304 391.277 80.0889 394.087 80.0889C396.896 80.0889 399.173 77.8304 399.173 75.0444C399.173 72.2585 396.896 70 394.087 70Z" fill="#376EFF" stroke="#376EFF"/>
<path d="M448.957 285.69C448.505 288.439 450.385 291.032 453.158 291.481C455.93 291.93 458.545 290.065 458.998 287.315C459.45 284.565 457.569 281.973 454.797 281.524C452.024 281.075 449.41 282.94 448.957 285.69Z" fill="#376EFF" stroke="#376EFF"/>
<path d="M506.12 145.267C505.668 148.017 507.549 150.61 510.321 151.059C513.094 151.507 515.708 149.642 516.161 146.893C516.613 144.143 514.733 141.55 511.96 141.101C509.187 140.653 506.573 142.518 506.12 145.267Z" fill="#376EFF" stroke="#376EFF"/>
<path d="M477.117 285.69C476.665 288.439 478.545 291.032 481.318 291.481C484.091 291.93 486.705 290.065 487.158 287.315C487.61 284.565 485.729 281.973 482.957 281.524C480.184 281.075 477.57 282.94 477.117 285.69Z" fill="#376EFF" stroke="#376EFF"/>
<path d="M309.917 6.85954C306.097 10.6481 306.097 16.7905 309.917 20.579C313.737 24.3675 319.931 24.3675 323.751 20.579C327.572 16.7904 327.572 10.6481 323.751 6.85954C319.931 3.07103 313.737 3.07103 309.917 6.85954Z" fill="#376EFF" stroke="#376EFF"/>
<path d="M152.476 121.269C153.789 121.286 155.103 121.367 156.416 121.509L156.331 122.282C155.056 122.143 153.754 122.062 152.467 122.048L152.476 121.269ZM148.531 121.411L148.598 122.186C147.311 122.294 146.03 122.466 144.76 122.702L144.617 121.938C145.904 121.7 147.22 121.524 148.531 121.411ZM160.315 122.134C161.599 122.406 162.883 122.742 164.132 123.139L163.896 123.88C162.67 123.492 161.412 123.159 160.154 122.893L160.315 122.134ZM140.762 122.846L140.981 123.59C139.74 123.948 138.519 124.368 137.321 124.849L137.029 124.128C138.255 123.637 139.506 123.209 140.777 122.846L140.762 122.846ZM167.815 124.516C169.025 125.036 170.207 125.615 171.358 126.253L170.976 126.93C169.848 126.306 168.69 125.738 167.506 125.228L167.815 124.516ZM133.446 125.772L133.808 126.458C132.669 127.051 131.549 127.706 130.472 128.409L130.04 127.761C131.155 127.043 132.299 126.374 133.46 125.772L133.446 125.772ZM174.708 128.325C175.785 129.069 176.838 129.873 177.837 130.718L177.329 131.297C176.348 130.467 175.318 129.679 174.262 128.95L174.708 128.325ZM126.847 130.061L127.341 130.663C126.34 131.465 125.371 132.327 124.454 133.225L123.906 132.672C124.86 131.769 125.849 130.889 126.868 130.073L126.847 130.061ZM180.705 133.39C181.616 134.327 182.488 135.32 183.303 136.342L182.687 136.822C181.89 135.821 181.035 134.845 180.142 133.928L180.705 133.39ZM121.233 135.557L121.837 136.052C121.014 137.036 120.232 138.078 119.502 139.126L118.854 138.689C119.616 137.624 120.415 136.57 121.253 135.569L121.233 135.557ZM185.594 139.534C186.3 140.628 186.959 141.774 187.555 142.931L186.857 143.285C186.273 142.147 185.629 141.024 184.934 139.951L185.594 139.534ZM116.835 142.04L117.523 142.408C116.911 143.531 116.356 144.697 115.851 145.881L115.13 145.591C115.637 144.38 116.206 143.194 116.835 142.04ZM189.186 146.509C189.662 147.718 190.079 148.969 190.432 150.225L189.676 150.433C189.332 149.199 188.924 147.983 188.456 146.789L189.186 146.509ZM113.788 149.258L114.538 149.484C114.161 150.705 113.843 151.958 113.592 153.206L112.825 153.055C113.082 151.793 113.406 150.514 113.788 149.275L113.788 149.258ZM191.296 154.045C191.521 155.324 191.681 156.632 191.777 157.932L190.995 157.989C190.902 156.713 190.744 155.431 190.525 154.178L191.296 154.045ZM112.244 156.939L113.023 157.017C112.901 158.285 112.836 159.573 112.836 160.852L112.054 160.852C112.054 159.549 112.119 158.233 112.244 156.939ZM191.089 161.839L191.871 161.859C191.839 163.164 191.74 164.464 191.579 165.763L190.803 165.668C190.96 164.406 191.057 163.118 191.089 161.839ZM112.877 162.707C112.939 163.983 113.064 165.268 113.251 166.527L112.475 166.64C112.285 165.355 112.157 164.035 112.095 162.742L112.877 162.707ZM190.134 169.441L190.896 169.612C190.605 170.883 190.251 172.139 189.834 173.375L189.093 173.129C189.501 171.942 189.851 170.692 190.137 169.45L190.134 169.441ZM114.001 170.295C114.313 171.531 114.693 172.767 115.127 173.968L114.392 174.228C113.948 173.004 113.56 171.742 113.242 170.483L114.001 170.295ZM187.686 176.717L188.398 177.036C187.861 178.222 187.257 179.394 186.603 180.526L185.926 180.138C186.568 179.041 187.161 177.889 187.689 176.726L187.686 176.717ZM116.616 177.51C117.17 178.668 117.783 179.799 118.451 180.891L117.783 181.293C117.103 180.179 116.473 179.018 115.91 177.846L116.616 177.51ZM183.834 183.371L184.47 183.819C183.708 184.879 182.885 185.912 182.019 186.893L181.435 186.381C182.281 185.429 183.09 184.416 183.837 183.38L183.834 183.371ZM120.617 184.074C121.387 185.096 122.219 186.1 123.089 187.032L122.505 187.556C121.629 186.595 120.771 185.582 119.983 184.54L120.617 184.074ZM178.744 189.153L179.278 189.732C178.319 190.628 177.315 191.475 176.269 192.27L175.794 191.654C176.809 190.864 177.804 190.027 178.744 189.153ZM125.844 189.732C126.801 190.586 127.813 191.399 128.849 192.154L128.385 192.78C127.329 192.01 126.299 191.179 125.318 190.311L125.844 189.732ZM172.61 193.816L173.024 194.473C171.909 195.161 170.745 195.801 169.569 196.377L169.225 195.679C170.369 195.13 171.515 194.502 172.61 193.827L172.61 193.816ZM132.08 194.267C133.189 194.918 134.342 195.52 135.506 196.056L135.176 196.762C133.989 196.215 132.813 195.604 131.674 194.936L132.08 194.267ZM165.67 197.202L165.944 197.928C164.712 198.387 163.456 198.783 162.183 199.115L161.981 198.365C163.224 198.053 164.465 197.659 165.67 197.213L165.67 197.202ZM139.096 197.491C140.313 197.911 141.562 198.275 142.811 198.574L142.627 199.326C141.344 199.023 140.078 198.656 138.833 198.226L139.096 197.491ZM158.193 199.152L158.316 199.919C157.023 200.125 155.689 200.267 154.391 200.345L154.344 199.569C155.633 199.5 156.918 199.367 158.193 199.17L158.193 199.152ZM146.616 199.28C147.895 199.454 149.181 199.566 150.471 199.613L150.442 200.388C149.132 200.339 147.816 200.226 146.508 200.05L146.616 199.28Z" fill="#376EFF" stroke="#376EFF"/>
<path d="M151.525 309.953C148.93 311.019 147.697 313.97 148.772 316.544C149.847 319.118 152.823 320.34 155.418 319.274C158.014 318.208 159.246 315.257 158.171 312.683C157.096 310.109 154.121 308.887 151.525 309.953Z" fill="#376EFF" stroke="#376EFF"/>
<path d="M394.664 75.2601L184.528 75.2601C167.407 75.2601 153.528 89.1393 153.528 106.26L153.528 314.613" stroke="#376EFF" stroke-width="1.5"/>
<path d="M317.248 13.9954L450.43 13.9954C466.998 13.9954 480.43 27.4269 480.43 43.9954L480.43 212.502" stroke="#376EFF" stroke-width="1.5"/>
<path d="M513.027 146.813L293.768 146.813C277.2 146.813 263.768 160.245 263.768 176.813L263.768 287.154" stroke="#376EFF" stroke-width="1.5" stroke-dasharray="5 3"/>
</svg>
