<svg width="405" height="248" viewBox="0 0 405 248" fill="none" xmlns="http://www.w3.org/2000/svg">
<g id="lines-white-2">
<g id="gCircle">
<path id="Vector" d="M117.589 73.7107C119.133 73.7313 120.678 73.8274 122.223 73.9957L122.124 74.9124C120.623 74.7476 119.092 74.6515 117.578 74.6343L117.589 73.7107ZM112.947 73.8789L113.026 74.7991C111.512 74.9269 110.006 75.1309 108.512 75.4103L108.344 74.5038C109.858 74.2223 111.406 74.0128 112.947 73.8789ZM126.809 74.7373C128.32 75.06 129.83 75.4583 131.3 75.9287L131.022 76.8077C129.58 76.3476 128.1 75.9528 126.621 75.6369L126.809 74.7373ZM103.809 75.5819L104.067 76.4644C102.607 76.8886 101.17 77.3871 99.7617 77.9579L99.4184 77.103C100.86 76.5204 102.332 76.0127 103.826 75.5819L103.809 75.5819ZM135.632 77.5631C137.055 78.1792 138.446 78.8668 139.8 79.6232L139.35 80.4267C138.024 79.686 136.662 79.0122 135.268 78.4078L135.632 77.5631ZM95.2028 79.0532L95.6284 79.867C94.2896 80.5709 92.9714 81.3469 91.7046 82.1812L91.1966 81.4121C92.5079 80.5606 93.8536 79.7674 95.2199 79.0532L95.2028 79.0532ZM143.741 82.0816C145.007 82.9641 146.247 83.9186 147.421 84.9212L146.823 85.6079C145.67 84.6225 144.458 83.6885 143.215 82.8233L143.741 82.0816ZM87.441 84.1417L88.0211 84.8559C86.8437 85.807 85.7039 86.8302 84.626 87.8946L83.9806 87.2388C85.1032 86.1675 86.2669 85.1238 87.465 84.1555L87.441 84.1417ZM150.795 88.0903C151.866 89.2028 152.893 90.3805 153.85 91.5925L153.126 92.1625C152.189 90.9745 151.183 89.8174 150.133 88.729L150.795 88.0903ZM80.8361 90.662L81.5467 91.2492C80.5786 92.4166 79.6586 93.6526 78.8003 94.8956L78.0382 94.3771C78.9342 93.1136 79.8748 91.8638 80.8601 90.6758L80.8361 90.662ZM156.545 95.3797C157.376 96.6776 158.152 98.0373 158.852 99.4107L158.032 99.8296C157.345 98.4802 156.586 97.148 155.769 95.8742L156.545 95.3797ZM75.6627 98.3532L76.4729 98.7892C75.752 100.121 75.0997 101.505 74.5058 102.909L73.6579 102.566C74.2545 101.129 74.9236 99.7227 75.6627 98.3532ZM160.771 103.655C161.331 105.09 161.822 106.573 162.237 108.063L161.348 108.31C160.943 106.846 160.464 105.403 159.913 103.988L160.771 103.655ZM72.0787 106.916L72.961 107.184C72.5181 108.633 72.1439 110.12 71.8487 111.6L70.9459 111.421C71.248 109.924 71.629 108.407 72.0787 106.937L72.0787 106.916ZM163.253 112.595C163.517 114.113 163.706 115.665 163.82 117.207L162.9 117.275C162.79 115.761 162.604 114.24 162.347 112.753L163.253 112.595ZM70.2627 116.029L71.1793 116.122C71.0351 117.626 70.9596 119.154 70.9596 120.671L70.0396 120.671C70.0396 119.126 70.1151 117.564 70.2627 116.029ZM163.009 121.842L163.929 121.866C163.892 123.415 163.775 124.956 163.586 126.498L162.673 126.385C162.858 124.888 162.972 123.36 163.009 121.842ZM71.0077 122.872C71.0798 124.386 71.2274 125.911 71.4471 127.404L70.5339 127.538C70.3108 126.014 70.1597 124.448 70.0876 122.913L71.0077 122.872ZM161.887 130.862L162.783 131.064C162.441 132.572 162.024 134.062 161.533 135.528L160.661 135.236C161.142 133.828 161.554 132.345 161.89 130.872L161.887 130.862ZM72.3293 131.875C72.6966 133.341 73.1429 134.807 73.6544 136.232L72.7893 136.541C72.2675 135.089 71.811 133.592 71.4368 132.098L72.3293 131.875ZM159.007 139.494L159.844 139.871C159.213 141.279 158.502 142.67 157.733 144.012L156.937 143.552C157.692 142.251 158.389 140.884 159.01 139.504L159.007 139.494ZM75.4052 140.435C76.0575 141.808 76.7784 143.15 77.5645 144.445L76.7784 144.922C75.9785 143.6 75.237 142.223 74.5745 140.833L75.4052 140.435ZM154.475 147.387L155.224 147.92C154.328 149.176 153.36 150.402 152.34 151.566L151.653 150.958C152.649 149.829 153.6 148.627 154.479 147.398L154.475 147.387ZM80.1117 148.222C81.018 149.434 81.9964 150.625 83.0194 151.731L82.3328 152.352C81.3029 151.212 80.2937 150.011 79.3668 148.775L80.1117 148.222ZM148.488 154.248L149.116 154.934C147.988 155.997 146.807 157.002 145.577 157.946L145.018 157.214C146.212 156.277 147.383 155.285 148.488 154.248ZM86.2601 154.934C87.3861 155.947 88.5772 156.912 89.7959 157.808L89.2501 158.55C88.0074 157.637 86.7956 156.651 85.6421 155.621L86.2601 154.934ZM141.272 159.779L141.76 160.559C140.448 161.376 139.079 162.135 137.695 162.818L137.29 161.99C138.636 161.338 139.985 160.593 141.272 159.793L141.272 159.779ZM93.5962 160.315C94.9007 161.087 96.2567 161.801 97.6264 162.437L97.2385 163.274C95.8413 162.626 94.4578 161.901 93.119 161.108L93.5962 160.315ZM133.109 163.796L133.432 164.658C131.981 165.202 130.504 165.672 129.007 166.066L128.77 165.177C130.232 164.806 131.691 164.339 133.109 163.81L133.109 163.796ZM101.849 164.14C103.28 164.638 104.75 165.07 106.219 165.424L106.003 166.317C104.494 165.957 103.005 165.521 101.54 165.012L101.849 164.14ZM124.314 166.111L124.458 167.02C122.937 167.264 121.368 167.432 119.841 167.525L119.786 166.605C121.302 166.523 122.813 166.365 124.314 166.131L124.314 166.111ZM110.695 166.262C112.2 166.469 113.713 166.601 115.23 166.656L115.196 167.577C113.655 167.518 112.106 167.384 110.568 167.175L110.695 166.262Z" fill="white" stroke="white"/>
</g>
<g id="gCDashed">
<path id="Vector 4" d="M399.649 112.155L234.514 112.155C217.945 112.155 204.514 125.587 204.514 142.155L204.514 222.023" stroke="white" stroke-width="1.5"/>
<path id="Vector 5" d="M399.649 112.155L234.514 112.155C217.945 112.155 204.514 125.587 204.514 142.155L204.514 222.023" stroke="#376EFF" stroke-width="5" stroke-dasharray="3 5"/>
<path id="Vector_2" d="M399.649 116.138C401.849 116.138 403.632 114.355 403.632 112.156C403.632 109.956 401.849 108.173 399.649 108.173C397.45 108.173 395.666 109.956 395.666 112.156C395.666 114.355 397.449 116.138 399.649 116.138Z" fill="white" stroke="white"/>
</g>
<g id="gB">
<path id="Vector 2" d="M8.84918 120.643L152.25 120.643C168.819 120.643 182.25 134.075 182.25 150.643L182.25 192.023C182.25 208.592 195.682 222.023 212.25 222.023L376.753 222.023" stroke="white" stroke-width="1.5"/>
<path id="Vector_3" d="M8.84765 128.625C13.0775 128.625 16.5072 125.196 16.508 120.966C16.5088 116.736 13.0804 113.307 8.85054 113.307C4.62066 113.307 1.191 116.736 1.1902 120.966C1.1894 125.196 4.61776 128.625 8.84765 128.625Z" fill="white" stroke="white"/>
<path id="Vector_4" d="M353.572 226.005C355.771 226.005 357.555 224.222 357.555 222.023C357.555 219.824 355.772 218.041 353.572 218.041C351.373 218.041 349.589 219.824 349.589 222.023C349.589 224.222 351.372 226.005 353.572 226.005Z" fill="white" stroke="white"/>
<path id="Vector_5" d="M375.617 226.005C377.817 226.005 379.6 224.223 379.6 222.023C379.6 219.824 377.817 218.041 375.617 218.041C373.418 218.041 371.634 219.824 371.634 222.023C371.634 224.223 373.417 226.005 375.617 226.005Z" fill="white" stroke="white"/>
</g>
<g id="gRC">
<path id="Vector_6" d="M116.984 247.047C119.184 247.047 120.967 245.263 120.967 243.064C120.967 240.864 119.185 239.081 116.985 239.081C114.786 239.081 113.003 240.864 113.003 243.064C113.002 245.263 114.785 247.047 116.984 247.047Z" fill="white" stroke="white"/>
<path id="Vector 1" d="M306.987 56.1391L149.21 56.1392C132.09 56.1392 118.21 70.0183 118.21 87.1392L118.211 243.52" stroke="white" stroke-width="1.5"/>
<path id="Vector_7" d="M306.987 52.1563C304.787 52.1563 303.004 53.9395 303.004 56.1392C303.004 58.3389 304.787 60.1221 306.987 60.1221C309.186 60.1221 310.969 58.3389 310.969 56.1392C310.969 53.9395 309.186 52.1563 306.987 52.1563Z" fill="white" stroke="white"/>
</g>
<g id="gLT">
<path id="Vector 3" d="M246.381 8.17755L344.13 8.17754C360.698 8.17754 374.13 21.609 374.13 38.1775L374.13 163.581" stroke="white" stroke-width="1.5"/>
<path id="Vector_8" d="M374.13 167.563C376.329 167.563 378.113 165.781 378.113 163.581C378.113 161.382 376.33 159.599 374.13 159.599C371.93 159.599 370.147 161.382 370.147 163.581C370.147 165.781 371.93 167.563 374.13 167.563Z" fill="white" stroke="white"/>
<path id="Vector_9" d="M245.152 16.4793C249.382 16.4793 252.812 13.0503 252.813 8.82047C252.813 4.59059 249.385 1.16162 245.155 1.16162C240.925 1.16162 237.496 4.59059 237.495 8.82047C237.494 13.0503 240.922 16.4793 245.152 16.4793Z" fill="white" stroke="white"/>
</g>
</g>
</svg>
