<svg width="262" height="210" viewBox="0 0 262 210" fill="none" xmlns="http://www.w3.org/2000/svg">
<g clip-path="url(#clip0_2_1739)">
<path d="M246.709 209.745H42.9865C38.9305 209.744 35.041 208.12 32.1734 205.229C29.3058 202.338 27.6948 198.418 27.6948 194.331V53.3652H262V194.331C262.001 196.355 261.605 198.359 260.837 200.229C260.069 202.099 258.943 203.799 257.523 205.23C256.103 206.662 254.417 207.797 252.561 208.572C250.706 209.347 248.717 209.745 246.709 209.745Z" fill="#D7DFF4"/>
<path d="M92.1932 191.441H201.94C203.197 191.441 204.216 190.414 204.216 189.147V168.164C204.216 166.897 203.197 165.871 201.94 165.871H92.1932C90.9363 165.871 89.9175 166.897 89.9175 168.164V189.147C89.9175 190.414 90.9363 191.441 92.1932 191.441Z" fill="white"/>
<path d="M85.8787 157.125H195.625C196.882 157.125 197.901 156.099 197.901 154.832V133.849C197.901 132.582 196.882 131.555 195.625 131.555H85.8787C84.6218 131.555 83.603 132.582 83.603 133.849V154.832C83.603 156.099 84.6218 157.125 85.8787 157.125Z" fill="white"/>
<path d="M152.675 182.245C154.641 182.245 156.235 180.639 156.235 178.658C156.235 176.676 154.641 175.07 152.675 175.07C150.709 175.07 149.116 176.676 149.116 178.658C149.116 180.639 150.709 182.245 152.675 182.245Z" fill="#376EFF"/>
<path d="M140.309 182.245C142.275 182.245 143.868 180.639 143.868 178.658C143.868 176.676 142.275 175.07 140.309 175.07C138.343 175.07 136.749 176.676 136.749 178.658C136.749 180.639 138.343 182.245 140.309 182.245Z" fill="#376EFF"/>
<path d="M127.941 182.245C129.907 182.245 131.501 180.639 131.501 178.658C131.501 176.676 129.907 175.07 127.941 175.07C125.976 175.07 124.382 176.676 124.382 178.658C124.382 180.639 125.976 182.245 127.941 182.245Z" fill="#376EFF"/>
<path d="M115.575 182.245C117.541 182.245 119.134 180.639 119.134 178.658C119.134 176.676 117.541 175.07 115.575 175.07C113.609 175.07 112.015 176.676 112.015 178.658C112.015 180.639 113.609 182.245 115.575 182.245Z" fill="#376EFF"/>
<path d="M103.208 182.245C105.174 182.245 106.768 180.639 106.768 178.658C106.768 176.676 105.174 175.07 103.208 175.07C101.242 175.07 99.6487 176.676 99.6487 178.658C99.6487 180.639 101.242 182.245 103.208 182.245Z" fill="#376EFF"/>
<path d="M180.63 143.938H100.875C100.198 143.938 99.6487 144.492 99.6487 145.174V149.878C99.6487 150.56 100.198 151.113 100.875 151.113H180.63C181.307 151.113 181.856 150.56 181.856 149.878V145.174C181.856 144.492 181.307 143.938 180.63 143.938Z" fill="#376EFF"/>
<path d="M251.159 35.7222H38.536C35.6608 35.7222 32.9033 36.8733 30.8701 38.9223C28.837 40.9714 27.6948 43.7504 27.6948 46.6482V53.4269H262V46.6482C262 43.7504 260.858 40.9714 258.825 38.9223C256.792 36.8733 254.034 35.7222 251.159 35.7222Z" fill="#376EFF"/>
<path d="M249.114 47.6509C250.801 47.6509 252.169 46.2725 252.169 44.5723C252.169 42.872 250.801 41.4937 249.114 41.4937C247.427 41.4937 246.059 42.872 246.059 44.5723C246.059 46.2725 247.427 47.6509 249.114 47.6509Z" fill="#EFEEFE"/>
<path d="M236.357 47.6509C238.044 47.6509 239.412 46.2725 239.412 44.5723C239.412 42.872 238.044 41.4937 236.357 41.4937C234.67 41.4937 233.302 42.872 233.302 44.5723C233.302 46.2725 234.67 47.6509 236.357 47.6509Z" fill="#EFEEFE"/>
<path d="M223.601 47.6509C225.288 47.6509 226.656 46.2725 226.656 44.5723C226.656 42.872 225.288 41.4937 223.601 41.4937C221.914 41.4937 220.547 42.872 220.547 44.5723C220.547 46.2725 221.914 47.6509 223.601 47.6509Z" fill="#EFEEFE"/>
<path d="M143.821 122.385C160.022 122.385 173.156 109.148 173.156 92.8202C173.156 76.492 160.022 63.2554 143.821 63.2554C127.619 63.2554 114.485 76.492 114.485 92.8202C114.485 109.148 127.619 122.385 143.821 122.385Z" fill="#EFEEFE"/>
<path d="M143.821 122.385C160.022 122.385 173.156 109.148 173.156 92.8202C173.156 76.492 160.022 63.2554 143.821 63.2554C127.619 63.2554 114.485 76.492 114.485 92.8202C114.485 109.148 127.619 122.385 143.821 122.385Z" fill="white"/>
<path d="M143.818 122.385C148.674 122.388 153.453 121.175 157.728 118.856C162.003 116.536 165.64 113.183 168.31 109.096C165.929 104.64 162.394 100.917 158.082 98.3227C153.77 95.7283 148.841 94.3594 143.818 94.3613C138.797 94.3597 133.868 95.7288 129.557 98.3232C125.245 100.918 121.711 104.64 119.33 109.096C122 113.182 125.636 116.536 129.91 118.855C134.185 121.175 138.964 122.388 143.818 122.385Z" fill="#FF806E"/>
<path d="M151.813 88.1305C156.227 83.6819 156.227 76.4694 151.813 72.0209C147.399 67.5723 140.242 67.5723 135.828 72.0209C131.414 76.4694 131.414 83.6819 135.828 88.1305C140.242 92.579 147.399 92.579 151.813 88.1305Z" fill="#FF806E"/>
<path d="M86.0388 10.0284C77.5947 9.691 69.2062 8.49148 61.0023 6.44824C55.0915 4.97589 49.2959 3.06858 43.662 0.741699C37.9378 2.82969 32.0701 4.49399 26.1055 5.72129C17.8247 7.42414 9.39405 8.2766 0.942709 8.26559C0.0158304 13.9939 -3.43923 39.3788 12.8839 62.5755C22.8091 76.6819 35.4861 83.497 41.9706 86.4121C48.5705 83.766 61.518 77.4852 72.0094 63.8077C89.2702 41.3052 86.8539 15.7967 86.165 10.0357" fill="#FF715E"/>
<path d="M78.4759 9.49049C72.5871 8.89544 66.7478 7.87879 61.0023 6.44823C55.0915 4.97589 49.2959 3.06858 43.662 0.741699C37.9378 2.82969 32.0701 4.49399 26.1055 5.72129C17.8247 7.42414 9.39406 8.2766 0.942709 8.26559C0.0158304 13.9939 -3.43923 39.3788 12.8839 62.5755C18.4982 70.5132 25.68 77.1955 33.9785 82.203C40.5893 79.5497 53.5043 73.2689 63.9777 59.6133C78.7536 40.3493 79.1106 18.8899 78.4759 9.49049Z" fill="#FF715E"/>
<path d="M27.2004 34.3662L42.9033 50.8569L59.4825 34.8242" stroke="white" stroke-width="3" stroke-linecap="round" stroke-linejoin="round"/>
</g>
<defs>
<clipPath id="clip0_2_1739">
<rect width="262" height="209" fill="white" transform="translate(0 0.741699)"/>
</clipPath>
</defs>
</svg>
