<svg width="377" height="408" viewBox="0 0 377 408" fill="none" xmlns="http://www.w3.org/2000/svg">
<path d="M88.7416 84.1157L89.208 84.1157L89.208 44.085L88.7416 44.085L88.7416 84.1157Z" fill="white" stroke="white"/>
<path d="M117.597 258.942C115.319 261.22 115.319 264.912 117.597 267.19C119.875 269.467 123.569 269.467 125.847 267.19C128.126 264.912 128.126 261.22 125.847 258.942C123.569 256.665 119.875 256.665 117.597 258.942Z" fill="white" stroke="white"/>
<path d="M84.851 78.7443C82.5728 81.0219 82.5728 84.7144 84.851 86.9919C87.1292 89.2695 90.823 89.2695 93.1012 86.9919C95.3795 84.7144 95.3794 81.0219 93.1012 78.7444C90.823 76.4669 87.1292 76.4668 84.851 78.7443Z" fill="white" stroke="white"/>
<path d="M224.331 126.344C222.655 126.344 221.297 127.701 221.297 129.376C221.297 131.051 222.655 132.409 224.331 132.409C226.006 132.409 227.364 131.051 227.364 129.376C227.364 127.701 226.006 126.344 224.331 126.344Z" fill="white" stroke="white"/>
<path d="M207.527 126.344C205.852 126.344 204.494 127.701 204.494 129.376C204.494 131.051 205.852 132.409 207.527 132.409C209.202 132.409 210.561 131.051 210.561 129.376C210.561 127.701 209.202 126.344 207.527 126.344Z" fill="white" stroke="white"/>
<path d="M291.075 198.665C289.399 198.665 288.041 200.023 288.041 201.697C288.041 203.372 289.399 204.73 291.075 204.73C292.75 204.73 294.108 203.372 294.108 201.697C294.108 200.023 292.75 198.665 291.075 198.665Z" fill="white" stroke="white"/>
<path d="M321.876 162.458C320.201 162.458 318.843 163.816 318.843 165.491C318.843 167.166 320.201 168.523 321.876 168.523C323.552 168.523 324.91 167.166 324.91 165.491C324.91 163.816 323.552 162.458 321.876 162.458Z" fill="white" stroke="white"/>
<path d="M88.9748 40.956C87.2994 40.956 85.9413 42.3137 85.9413 43.9885C85.9413 45.6633 87.2994 47.021 88.9748 47.021C90.6501 47.021 92.0083 45.6633 92.0083 43.9885C92.0083 42.3137 90.6501 40.956 88.9748 40.956Z" fill="white" stroke="white"/>
<path d="M118.494 394.168C118.224 395.821 119.346 397.379 120.999 397.649C122.652 397.919 124.212 396.798 124.482 395.145C124.751 393.492 123.63 391.933 121.976 391.663C120.323 391.394 118.764 392.515 118.494 394.168Z" fill="white" stroke="white"/>
<path d="M310.007 403.276C309.737 404.929 310.859 406.488 312.512 406.758C314.166 407.027 315.725 405.906 315.995 404.253C316.265 402.6 315.143 401.042 313.49 400.772C311.836 400.502 310.277 401.623 310.007 403.276Z" fill="white" stroke="white"/>
<path d="M340.828 237.112C340.558 238.765 341.68 240.323 343.333 240.593C344.987 240.863 346.546 239.742 346.816 238.089C347.086 236.436 345.964 234.877 344.311 234.607C342.657 234.337 341.098 235.459 340.828 237.112Z" fill="white" stroke="white"/>
<path d="M309.883 379.302C309.614 380.955 310.735 382.514 312.389 382.783C314.042 383.053 315.601 381.932 315.871 380.279C316.141 378.626 315.019 377.067 313.366 376.798C311.712 376.528 310.153 377.649 309.883 379.302Z" fill="white" stroke="white"/>
<path d="M130.654 28.8843C129.451 29.2068 128.736 30.4437 129.059 31.647C129.382 32.8502 130.619 33.5642 131.823 33.2417C133.026 32.9192 133.74 31.6823 133.418 30.479C133.095 29.2758 131.858 28.5618 130.654 28.8843Z" fill="white" stroke="white"/>
<path d="M312.499 1.22952C311.295 1.55204 310.581 2.78893 310.904 3.99219C311.226 5.19545 312.464 5.90943 313.667 5.58691C314.871 5.26439 315.585 4.02749 315.263 2.82423C314.94 1.62097 313.703 0.906998 312.499 1.22952Z" fill="white" stroke="white"/>
<path d="M291.15 160.245C288.872 162.523 288.872 166.215 291.15 168.493C293.428 170.77 297.122 170.77 299.4 168.493C301.678 166.215 301.678 162.523 299.4 160.245C297.122 157.968 293.428 157.968 291.15 160.245Z" fill="white" stroke="white"/>
<path d="M122.617 263.066C123.4 263.076 124.183 263.125 124.967 263.21L124.916 263.675C124.155 263.591 123.379 263.543 122.612 263.534L122.617 263.066ZM120.264 263.151L120.304 263.617C119.536 263.682 118.773 263.786 118.015 263.927L117.93 263.468C118.698 263.325 119.483 263.219 120.264 263.151ZM127.292 263.586C128.057 263.75 128.823 263.951 129.568 264.19L129.427 264.635C128.696 264.402 127.946 264.202 127.196 264.042L127.292 263.586ZM115.631 264.014L115.762 264.461C115.022 264.676 114.293 264.929 113.579 265.218L113.405 264.785C114.136 264.49 114.882 264.232 115.64 264.014L115.631 264.014ZM131.765 265.018C132.486 265.33 133.191 265.679 133.877 266.062L133.649 266.469C132.977 266.094 132.286 265.752 131.58 265.446L131.765 265.018ZM111.268 265.773L111.484 266.185C110.805 266.542 110.137 266.935 109.494 267.358L109.237 266.968C109.902 266.537 110.584 266.135 111.277 265.773L111.268 265.773ZM135.875 267.308C136.518 267.755 137.146 268.238 137.741 268.746L137.438 269.094C136.853 268.595 136.239 268.122 135.609 267.683L135.875 267.308ZM107.333 268.351L107.627 268.713C107.03 269.195 106.452 269.714 105.906 270.253L105.579 269.921C106.148 269.378 106.738 268.849 107.345 268.358L107.333 268.351ZM139.452 270.352C139.995 270.916 140.515 271.513 141.001 272.127L140.634 272.416C140.158 271.814 139.648 271.227 139.116 270.676L139.452 270.352ZM103.984 271.655L104.345 271.953C103.854 272.544 103.387 273.171 102.952 273.801L102.566 273.538C103.02 272.898 103.497 272.264 103.996 271.662L103.984 271.655ZM142.367 274.046C142.788 274.704 143.182 275.393 143.537 276.089L143.121 276.301C142.773 275.617 142.388 274.942 141.974 274.296L142.367 274.046ZM101.362 275.553L101.772 275.774C101.407 276.449 101.076 277.15 100.775 277.861L100.345 277.687C100.648 276.959 100.987 276.247 101.362 275.553ZM144.509 278.239C144.793 278.966 145.042 279.718 145.253 280.473L144.802 280.598C144.596 279.856 144.353 279.125 144.074 278.408L144.509 278.239ZM99.5445 279.892L99.9918 280.027C99.7673 280.762 99.5776 281.515 99.4279 282.265L98.9702 282.174C99.1234 281.416 99.3166 280.647 99.5445 279.902L99.5445 279.892ZM145.768 282.769C145.902 283.538 145.997 284.325 146.055 285.106L145.588 285.141C145.533 284.374 145.439 283.603 145.308 282.849L145.768 282.769ZM98.6239 284.509L99.0886 284.556C99.0155 285.318 98.9772 286.093 98.9772 286.862L98.5108 286.862C98.5108 286.079 98.549 285.287 98.6239 284.509ZM145.644 287.455L146.111 287.467C146.091 288.252 146.032 289.033 145.937 289.814L145.474 289.757C145.568 288.998 145.625 288.224 145.644 287.455ZM99.0015 287.977C99.0381 288.744 99.1129 289.517 99.2243 290.273L98.7614 290.341C98.6482 289.569 98.5716 288.775 98.5351 287.998L99.0015 287.977ZM145.075 292.025L145.529 292.128C145.356 292.892 145.144 293.647 144.896 294.39L144.454 294.242C144.697 293.529 144.906 292.777 145.077 292.031L145.075 292.025ZM99.6716 292.539C99.8578 293.282 100.084 294.024 100.343 294.746L99.9048 294.903C99.6403 294.167 99.4088 293.409 99.2191 292.652L99.6716 292.539ZM143.615 296.399L144.04 296.591C143.719 297.304 143.359 298.009 142.969 298.689L142.565 298.456C142.948 297.796 143.302 297.104 143.617 296.405L143.615 296.399ZM101.231 296.876C101.562 297.572 101.927 298.252 102.326 298.908L101.927 299.15C101.522 298.48 101.146 297.782 100.81 297.078L101.231 296.876ZM141.318 300.399L141.697 300.669C141.243 301.306 140.752 301.927 140.235 302.517L139.887 302.209C140.392 301.636 140.874 301.027 141.319 300.404L141.318 300.399ZM103.617 300.822C104.077 301.436 104.573 302.04 105.091 302.6L104.743 302.915C104.221 302.337 103.709 301.728 103.239 301.102L103.617 300.822ZM138.282 303.875L138.601 304.223C138.029 304.762 137.43 305.271 136.806 305.749L136.523 305.379C137.128 304.904 137.722 304.401 138.282 303.875ZM106.734 304.223C107.305 304.737 107.909 305.225 108.527 305.68L108.25 306.055C107.62 305.593 107.006 305.093 106.421 304.571L106.734 304.223ZM134.624 306.678L134.871 307.073C134.206 307.487 133.512 307.872 132.81 308.218L132.605 307.799C133.287 307.468 133.971 307.091 134.624 306.685L134.624 306.678ZM110.453 306.95C111.115 307.341 111.802 307.703 112.497 308.025L112.3 308.449C111.592 308.121 110.89 307.753 110.211 307.352L110.453 306.95ZM130.485 308.714L130.649 309.151C129.914 309.426 129.165 309.664 128.406 309.864L128.285 309.413C129.027 309.225 129.767 308.989 130.485 308.721L130.485 308.714ZM114.637 308.888C115.363 309.14 116.108 309.359 116.853 309.539L116.743 309.991C115.978 309.809 115.223 309.588 114.481 309.33L114.637 308.888ZM126.026 309.886L126.099 310.348C125.329 310.471 124.533 310.556 123.759 310.603L123.731 310.137C124.5 310.095 125.266 310.015 126.026 309.897L126.026 309.886ZM119.122 309.963C119.885 310.068 120.652 310.135 121.421 310.163L121.404 310.629C120.622 310.6 119.838 310.532 119.058 310.426L119.122 309.963Z" fill="white" stroke="white"/>
<path d="M313.389 19.9615C314.174 19.9719 314.964 20.0207 315.739 20.1059L315.682 20.5617C314.921 20.4782 314.146 20.4312 313.377 20.4208L313.389 19.9615ZM311.036 20.0468L311.076 20.5113C310.309 20.576 309.545 20.6794 308.788 20.821L308.703 20.3616C309.47 20.2138 310.255 20.1129 311.036 20.0398L311.036 20.0468ZM318.064 20.48C318.833 20.6437 319.592 20.8458 320.341 21.0854L320.2 21.5291C319.466 21.2945 318.722 21.0971 317.968 20.9375L318.064 20.48ZM306.403 20.908L306.536 21.3551C305.798 21.5709 305.063 21.8249 304.353 22.1119L304.179 21.6787C304.91 21.3864 305.66 21.1272 306.41 20.9097L306.403 20.908ZM322.539 21.9118C323.257 22.2233 323.968 22.5747 324.652 22.9557L324.424 23.3629C323.751 22.9875 323.061 22.6461 322.354 22.3398L322.539 21.9118ZM302.042 22.6669L302.258 23.081C301.579 23.429 300.909 23.8309 300.269 24.2519L300.018 23.8674C300.672 23.4325 301.355 23.0306 302.049 22.6669L302.042 22.6669ZM326.65 24.2032C327.292 24.6486 327.918 25.1323 328.515 25.6403L328.212 25.9883C327.628 25.4889 327.012 25.0157 326.383 24.579L326.65 24.2032ZM298.107 25.2471L298.401 25.6107C297.806 26.0927 297.226 26.6094 296.68 27.1487L296.363 26.8251C296.92 26.2719 297.51 25.7447 298.117 25.2593L298.107 25.2471ZM330.226 27.2496C330.769 27.8116 331.289 28.4084 331.775 29.0225L331.408 29.3114C330.933 28.7094 330.421 28.1248 329.89 27.5715L330.226 27.2496ZM294.771 28.565L295.129 28.8625C294.634 29.4539 294.169 30.07 293.737 30.7084L293.35 30.4475C293.792 29.7964 294.266 29.1681 294.771 28.565ZM333.152 30.9538C333.573 31.6132 333.966 32.3004 334.321 32.9981L333.905 33.2086C333.557 32.5248 333.171 31.8515 332.758 31.2043L333.152 30.9538ZM292.134 32.4605L292.545 32.6832C292.178 33.3618 291.845 34.0586 291.549 34.771L291.118 34.597C291.419 33.8575 291.761 33.1425 292.134 32.4535L292.134 32.4605ZM335.282 35.1468C335.566 35.8757 335.814 36.6274 336.025 37.3807L335.574 37.506C335.369 36.7641 335.126 36.033 334.847 35.3155L335.282 35.1468ZM290.319 36.7996L290.764 36.937C290.539 37.673 290.351 38.4197 290.2 39.1745L289.743 39.0823C289.896 38.308 290.089 37.5408 290.319 36.7926L290.319 36.7996ZM336.542 39.679C336.674 40.448 336.77 41.2344 336.827 42.0156L336.361 42.0487C336.306 41.2807 336.212 40.5159 336.081 39.7573L336.542 39.679ZM289.396 41.4189L289.861 41.4641C289.788 42.2261 289.75 43.0021 289.75 43.7694L289.283 43.7694C289.283 42.9725 289.321 42.1809 289.402 41.4049L289.396 41.4189ZM336.417 44.3644L336.883 44.3748C336.864 45.1578 336.805 45.9407 336.709 46.7236L336.246 46.6662C336.34 45.892 336.392 45.1177 336.417 44.3505L336.417 44.3644ZM289.774 44.8864C289.811 45.6536 289.885 46.4261 289.997 47.1847L289.534 47.2508C289.421 46.48 289.344 45.6849 289.308 44.909L289.774 44.8864ZM335.849 48.921L336.304 49.0237C336.131 49.7878 335.919 50.5427 335.67 51.2854L335.228 51.1376C335.47 50.4225 335.679 49.6744 335.849 48.921ZM290.446 49.443C290.632 50.1859 290.858 50.9288 291.118 51.6508L290.679 51.8091C290.414 51.0732 290.183 50.3146 289.993 49.5474L290.446 49.443ZM334.389 53.3037L334.814 53.4951C334.493 54.2084 334.133 54.913 333.743 55.5933L333.34 55.3601C333.721 54.6886 334.074 53.9979 334.389 53.2984L334.389 53.3037ZM292.012 53.7769C292.343 54.4728 292.708 55.1514 293.109 55.809L292.708 56.0543C292.301 55.3829 291.928 54.6913 291.591 53.9822L292.012 53.7769ZM332.099 57.2983L332.478 57.5697C332.024 58.2048 331.531 58.8276 331.016 59.4157L330.668 59.1078C331.173 58.529 331.648 57.9251 332.092 57.2983L332.099 57.2983ZM294.398 57.7228C294.859 58.337 295.355 58.9407 295.872 59.4992L295.524 59.8159C295.002 59.24 294.49 58.6293 294.021 58.0029L294.398 57.7228ZM329.055 60.7693L329.373 61.1172C328.802 61.6531 328.2 62.1612 327.579 62.6431L327.295 62.2725C327.903 61.7958 328.494 61.2947 329.055 60.7693ZM297.507 61.1172C298.077 61.6305 298.681 62.1211 299.299 62.5735L299.022 62.9493C298.392 62.4882 297.778 61.9889 297.195 61.4652L297.507 61.1172ZM325.396 63.5722L325.644 63.9688C324.977 64.3829 324.284 64.7674 323.585 65.1119L323.378 64.6926C324.063 64.362 324.744 63.9862 325.396 63.5791L325.396 63.5722ZM301.226 63.8453C301.889 64.2368 302.576 64.5969 303.269 64.9205L303.074 65.3433C302.366 65.0145 301.664 64.6474 300.986 64.2472L301.226 63.8453ZM321.251 65.6147L321.414 66.0532C320.683 66.3246 319.928 66.5647 319.171 66.7665L319.051 66.3141C319.796 66.1183 320.53 65.8849 321.251 65.6147ZM305.403 65.7887C306.125 66.0392 306.87 66.2585 307.618 66.4377L307.51 66.8918C306.746 66.7178 305.986 66.4846 305.248 66.2289L305.403 65.7887ZM316.792 66.7856L316.867 67.2467C316.096 67.3702 315.3 67.4572 314.526 67.5042L314.498 67.0379C315.271 66.9962 316.044 66.9126 316.799 66.7908L316.792 66.7856ZM309.888 66.8639C310.645 66.9666 311.419 67.0379 312.187 67.064L312.169 67.5303C311.386 67.5007 310.603 67.4311 309.823 67.325L309.888 66.8639Z" fill="white" stroke="white"/>
<path d="M89.0442 19.9615C89.8274 19.9719 90.6192 20.0207 91.3937 20.1059L91.3433 20.5687C90.5827 20.4852 89.8065 20.4382 89.039 20.4278L89.0442 19.9615ZM86.6912 20.0468L86.7295 20.5113C85.9624 20.5759 85.1992 20.6793 84.4426 20.821L84.3573 20.3616C85.1248 20.2138 85.9098 20.1129 86.6912 20.0398L86.6912 20.0468ZM93.7189 20.48C94.4874 20.6435 95.2472 20.8456 95.9953 21.0854L95.8544 21.5308C95.1206 21.2952 94.3754 21.0972 93.6214 20.9375L93.7189 20.48ZM82.0582 20.908L82.1888 21.3551C81.4526 21.5709 80.7181 21.8249 80.0081 22.1119L79.834 21.6787C80.565 21.3864 81.3134 21.1272 82.0652 20.9097L82.0582 20.908ZM98.1935 21.9136C98.9149 22.2257 99.6201 22.5741 100.306 22.9575L100.078 23.3646C99.406 22.9899 98.7154 22.649 98.009 22.3433L98.1935 21.9136ZM77.6951 22.6669L77.9126 23.081C77.2321 23.429 76.5638 23.8309 75.9233 24.2519L75.6727 23.8674C76.3271 23.4325 77.0094 23.0306 77.702 22.6669L77.6951 22.6669ZM102.304 24.2032C102.946 24.6486 103.575 25.1323 104.17 25.6403L103.867 25.9883C103.282 25.4907 102.668 25.0157 102.038 24.579L102.304 24.2032ZM73.7618 25.2471L74.0559 25.6107C73.4607 26.0927 72.8811 26.6111 72.3346 27.1487L72.0179 26.8251C72.5731 26.2719 73.1631 25.7447 73.7705 25.2593L73.7618 25.2471ZM105.883 27.2496C106.428 27.8149 106.945 28.4072 107.431 29.0243L107.064 29.3131C106.589 28.7094 106.077 28.1248 105.547 27.5733L105.883 27.2496ZM70.415 28.5528L70.7735 28.8503C70.2827 29.4401 69.8163 30.0682 69.3812 30.6963L68.9948 30.4353C69.4473 29.7933 69.9294 29.16 70.4237 28.565L70.415 28.5528ZM108.798 30.9416C109.219 31.601 109.612 32.2882 109.967 32.9859L109.55 33.1964C109.201 32.5127 108.817 31.8393 108.404 31.1939L108.798 30.9416ZM67.7783 32.4483L68.189 32.671C67.8224 33.3498 67.4902 34.0466 67.1935 34.7588L66.7619 34.5848C67.0735 33.8558 67.4145 33.1407 67.787 32.4535L67.7783 32.4483ZM110.928 35.1346C111.212 35.867 111.46 36.6131 111.669 37.3703L111.22 37.4955C111.015 36.7561 110.77 36.0184 110.493 35.3051L110.928 35.1346ZM65.9631 36.7874L66.4104 36.9249C66.1846 37.6607 65.9964 38.4074 65.8465 39.1623L65.3887 39.0701C65.5506 38.308 65.7438 37.5408 65.9718 36.7926L65.9631 36.7874ZM112.186 39.6669C112.321 40.4404 112.416 41.2203 112.472 42.0034L112.007 42.0365C111.951 41.271 111.857 40.5002 111.727 39.7469L112.186 39.6669ZM65.0424 41.4067L65.5071 41.4519C65.4322 42.2105 65.3939 42.9864 65.3939 43.7572L64.9275 43.7572C64.9362 42.9708 64.9745 42.1792 65.0563 41.4049L65.0424 41.4067ZM112.061 44.3522L112.527 44.3644C112.509 45.1492 112.451 45.9325 112.353 46.7114L111.89 46.654C111.993 45.8937 112.047 45.1195 112.07 44.3505L112.061 44.3522ZM65.4183 44.8742C65.4549 45.6414 65.5297 46.4156 65.6411 47.1707L65.1781 47.2386C65.0668 46.4678 64.9902 45.6727 64.9536 44.895L65.4183 44.8742ZM111.502 48.921L111.958 49.0237C111.784 49.7857 111.572 50.5495 111.325 51.2854L110.881 51.1376C111.125 50.4208 111.333 49.6726 111.502 48.921ZM66.1006 49.443C66.2885 50.1894 66.513 50.9323 66.7723 51.6525L66.3338 51.8091C66.0692 51.0749 65.8395 50.3181 65.6481 49.5474L66.1006 49.443ZM110.044 53.3071L110.468 53.4985C110.147 54.212 109.79 54.9088 109.398 55.5863L108.994 55.3549C109.375 54.6903 109.727 53.9996 110.042 53.3002L110.044 53.3071ZM67.6599 53.7821C67.9924 54.478 68.3561 55.1601 68.7564 55.8142L68.3561 56.0561C67.9523 55.388 67.5764 54.6903 67.2388 53.9822L67.6599 53.7821ZM107.746 57.3053L108.126 57.5767C107.672 58.2135 107.179 58.8346 106.664 59.4227L106.316 59.1164C106.817 58.5319 107.299 57.9229 107.745 57.2983L107.746 57.3053ZM70.046 57.7298C70.5055 58.3422 71.0015 58.9477 71.5201 59.5062L71.1721 59.8211C70.65 59.2435 70.1278 58.6328 69.6701 58.0082L70.046 57.7298ZM104.709 60.7762L105.028 61.1242C104.459 61.6583 103.855 62.1681 103.234 62.6483L102.95 62.2795C103.556 61.7958 104.147 61.2947 104.708 60.7693L104.709 60.7762ZM73.1613 61.1242C73.7304 61.6357 74.3344 62.1264 74.9539 62.5805L74.6772 62.9563C74.0455 62.4935 73.4311 61.9941 72.8498 61.4722L73.1613 61.1242ZM101.051 63.5791L101.298 63.9758C100.632 64.3899 99.9391 64.7744 99.2394 65.1189L99.0323 64.6996C99.7235 64.3609 100.397 63.987 101.049 63.5791L101.051 63.5791ZM76.8806 63.8523C77.5436 64.2437 78.2311 64.6039 78.9238 64.9275L78.7289 65.3503C78.0205 65.0214 77.3192 64.6543 76.6404 64.2542L76.8806 63.8523ZM96.9056 65.6147L97.0691 66.0532C96.3399 66.3246 95.5846 66.5647 94.8258 66.7665L94.7057 66.3159C95.4558 66.1193 96.1955 65.8826 96.9056 65.6147ZM81.0575 65.7887C81.7798 66.0392 82.5247 66.2585 83.273 66.4377L83.1651 66.8918C82.4011 66.7178 81.6406 66.4846 80.9026 66.2289L81.0575 65.7887ZM92.4467 66.7856L92.5215 67.2467C91.7505 67.3702 90.9551 67.4572 90.1807 67.5042L90.1528 67.0379C90.9238 66.9962 91.6966 66.9126 92.4519 66.7908L92.4467 66.7856ZM85.5425 66.8639C86.3013 66.9666 87.0741 67.0379 87.8416 67.064L87.8242 67.5303C87.041 67.5007 86.2578 67.4311 85.4781 67.325L85.5425 66.8639Z" fill="white" stroke="white"/>
<path d="M131.238 30.2909C131.238 71.2411 131.238 76.8459 131.238 100.769C131.238 117.337 144.67 130.788 161.238 130.788H283.083C299.652 130.788 313.083 117.357 313.083 100.788V3.40869" stroke="white" stroke-width="1.5"/>
<path d="M233.715 110.583C231.048 111.298 229.466 114.038 230.18 116.704C230.895 119.37 233.636 120.952 236.303 120.237C238.97 119.523 240.552 116.782 239.837 114.116C239.123 111.451 236.381 109.869 233.715 110.583Z" fill="white" stroke="white"/>
<path d="M180.896 51.8706C179.869 52.1458 179.259 53.2012 179.535 54.2279C179.81 55.2546 180.866 55.8638 181.893 55.5886C182.92 55.3134 183.529 54.258 183.254 53.2313C182.979 52.2046 181.923 51.5954 180.896 51.8706Z" fill="white" stroke="white"/>
<path d="M234.992 115.324V83.73C234.992 67.1614 221.561 53.73 204.992 53.73H181.395" stroke="white" stroke-width="1.5"/>
<path d="M313.083 90.4004H286.973C270.405 90.4004 256.973 103.832 256.973 120.4V349.791C256.973 366.359 270.405 379.791 286.973 379.791H312.869" stroke="white" stroke-width="1.5" stroke-dasharray="5 3"/>
<path d="M343.548 237.064H342.877C326.309 237.064 312.877 250.495 312.877 267.064V405.257" stroke="white" stroke-width="1.5" stroke-dasharray="5 3"/>
<path d="M293.787 165.716H320.53" stroke="white" stroke-width="1.5"/>
<path d="M292.617 199.91H151.722C135.154 199.91 121.722 213.342 121.722 229.91V392.864" stroke="white" stroke-width="1.5"/>
<path d="M155.801 225.878L154.401 244.278H202.809L201.413 225.878H155.801Z" fill="#D7DFF4"/>
<path d="M200.644 215.781H156.571L155.801 225.878H201.413L200.644 215.781Z" fill="#2D3750"/>
<path d="M146.372 242.651H210.842C211.947 242.651 213.006 243.09 213.787 243.869C214.569 244.649 215.007 245.707 215.007 246.81V250.588H142.207V246.81C142.207 245.707 142.646 244.649 143.427 243.869C144.208 243.09 145.268 242.651 146.372 242.651Z" fill="white"/>
<path d="M285.691 64.2886H71.5237C69.7904 64.29 68.1285 64.9781 66.9028 66.2018C65.6771 67.4256 64.988 69.0849 64.9866 70.8155V199.193H292.223V70.8155C292.223 69.0854 291.534 67.426 290.31 66.2022C289.085 64.9783 287.423 64.29 285.691 64.2886Z" fill="#2D3750"/>
<path d="M199.741 199.193H64.9917V214.658C64.991 215.515 65.1595 216.363 65.4874 217.155C65.8153 217.947 66.2963 218.666 66.9029 219.273C67.5095 219.879 68.2298 220.36 69.0227 220.688C69.8155 221.016 70.6653 221.185 71.5235 221.185H285.69C286.549 221.185 287.399 221.016 288.192 220.688C288.985 220.36 289.706 219.879 290.313 219.273C290.92 218.667 291.401 217.947 291.73 217.155C292.058 216.363 292.227 215.515 292.227 214.658V199.183L199.741 199.193Z" fill="white"/>
<path d="M152.384 72.2246H72.9404V151.544V190.165H282.83V72.2246H152.384Z" fill="#D7DFF4"/>
<path d="M105.382 98.3643C105.101 98.3643 104.831 98.4759 104.632 98.6746C104.433 98.8733 104.321 99.1428 104.321 99.4238V110.401H87.8717V99.4238C87.8717 99.1428 87.7599 98.8733 87.5609 98.6746C87.3619 98.4759 87.092 98.3643 86.8105 98.3643C86.529 98.3643 86.2591 98.4759 86.0601 98.6746C85.8611 98.8733 85.7493 99.1428 85.7493 99.4238V256.24C85.7493 256.521 85.8611 256.791 86.0601 256.99C86.2591 257.188 86.529 257.3 86.8105 257.3C87.092 257.3 87.3619 257.188 87.5609 256.99C87.7599 256.791 87.8717 256.521 87.8717 256.24V245.978H104.321V256.24C104.321 256.521 104.433 256.791 104.632 256.99C104.831 257.188 105.101 257.3 105.382 257.3C105.663 257.3 105.933 257.188 106.132 256.99C106.331 256.791 106.443 256.521 106.443 256.24V99.4238C106.443 99.1428 106.331 98.8733 106.132 98.6746C105.933 98.4759 105.663 98.3643 105.382 98.3643ZM104.321 148.927V158.94H87.8717V148.927H104.321ZM87.9036 146.808V136.779H104.321V146.797L87.9036 146.808ZM104.321 161.059V171.077H87.8717V161.059H104.321ZM104.321 173.196V183.209H87.8717V173.196H104.321ZM104.321 185.329V195.347H87.8717V185.329H104.321ZM104.321 197.466V207.479H87.8717V197.466H104.321ZM104.321 209.598V219.616H87.8717V209.598H104.321ZM104.321 134.66H87.8717V124.647H104.321V134.66ZM87.8717 221.735H104.321V231.748H87.8717V221.735ZM104.321 112.52V122.538H87.8717V112.52H104.321ZM87.9036 243.907V233.889H104.321V243.907H87.9036Z" fill="#2D3750"/>
<path d="M215.002 121.866H142.207V190.335H215.002V121.866Z" fill="#FF715E"/>
<path d="M215.002 109.935H142.207V122.533H215.002V109.935Z" fill="#FFA296"/>
<path d="M199.476 113.94H157.733C156.464 113.94 155.435 114.967 155.435 116.234V116.239C155.435 117.506 156.464 118.533 157.733 118.533H199.476C200.745 118.533 201.774 117.506 201.774 116.239V116.234C201.774 114.967 200.745 113.94 199.476 113.94Z" fill="#2D3750"/>
<path d="M180.979 60.2837L149.285 102.227L170.924 118.534H183.935L210.911 82.8314L180.979 60.2837Z" fill="white"/>
<path d="M174.697 89.1248L169.056 84.8601L173.301 79.2231L178.947 83.4614L174.697 89.1248ZM170.537 84.664L174.49 87.6414L177.472 83.6945L173.519 80.7171L170.537 84.664Z" fill="#376EFF"/>
<path d="M182.581 77.8087L177.806 74.1955C177.694 74.1105 177.621 73.9846 177.602 73.8455C177.583 73.7065 177.62 73.5656 177.705 73.4538L181.324 68.6593C181.366 68.6029 181.418 68.5553 181.479 68.5194C181.539 68.4835 181.606 68.4599 181.676 68.4501C181.745 68.4402 181.816 68.4443 181.884 68.462C181.952 68.4797 182.016 68.5108 182.072 68.5533L186.848 72.1718C186.903 72.2135 186.95 72.2658 186.986 72.3257C187.021 72.3855 187.045 72.4518 187.054 72.5207C187.064 72.5895 187.06 72.6597 187.043 72.7271C187.026 72.7945 186.995 72.8578 186.954 72.9135L183.33 77.6815C183.289 77.7396 183.238 77.789 183.178 77.8269C183.119 77.8648 183.052 77.8905 182.982 77.9023C182.913 77.9142 182.841 77.912 182.772 77.8959C182.703 77.8798 182.639 77.8502 182.581 77.8087ZM178.867 73.6658L182.82 76.6432L185.802 72.6962L181.849 69.7189L178.867 73.6658Z" fill="#376EFF"/>
<path d="M165.962 99.8003L161.187 96.1871C161.074 96.1028 161 95.9773 160.98 95.8382C160.96 95.6991 160.996 95.5578 161.081 95.4454L164.705 90.6509C164.747 90.5952 164.799 90.5484 164.859 90.5129C164.919 90.4775 164.985 90.4541 165.054 90.4443C165.123 90.4344 165.194 90.4383 165.261 90.4555C165.329 90.4728 165.392 90.5032 165.448 90.5449L170.223 94.1634C170.279 94.2051 170.326 94.2574 170.361 94.3173C170.397 94.3771 170.42 94.4434 170.43 94.5123C170.44 94.5811 170.436 94.6513 170.419 94.7187C170.402 94.786 170.371 94.8494 170.329 94.9051L166.705 99.6731C166.665 99.7304 166.614 99.7792 166.555 99.8166C166.496 99.8541 166.429 99.8794 166.36 99.8913C166.291 99.9031 166.221 99.9011 166.152 99.8855C166.084 99.8699 166.019 99.8409 165.962 99.8003ZM162.248 95.6574L166.201 98.64L169.183 94.6878L165.23 91.7104L162.248 95.6574Z" fill="#376EFF"/>
<path d="M200.742 84.8935L188.318 75.5356L187.359 76.8045L199.783 86.1623L200.742 84.8935Z" fill="#376EFF"/>
<path d="M198.884 87.3564L186.459 77.9985L185.501 79.2674L197.925 88.6252L198.884 87.3564Z" fill="#376EFF"/>
<path d="M192.833 95.3633L180.409 86.0054L179.45 87.2742L191.874 96.6321L192.833 95.3633Z" fill="#376EFF"/>
<path d="M190.97 97.8227L178.546 88.4648L177.587 89.7337L190.012 99.0915L190.97 97.8227Z" fill="#376EFF"/>
<path d="M184.923 105.831L172.499 96.4727L171.54 97.7415L183.965 107.099L184.923 105.831Z" fill="#376EFF"/>
<path d="M183.061 108.297L170.637 98.9395L169.679 100.208L182.103 109.566L183.061 108.297Z" fill="#376EFF"/>
<path d="M177.879 84.3672C177.868 84.2894 177.842 84.2145 177.802 84.1467C177.762 84.079 177.709 84.0199 177.647 83.9727C177.584 83.9254 177.512 83.8911 177.436 83.8716C177.359 83.8522 177.28 83.848 177.202 83.8592L174.149 84.279L173.822 81.9364C173.793 81.7848 173.707 81.6499 173.582 81.5597C173.457 81.4694 173.301 81.4308 173.148 81.4519C172.995 81.473 172.856 81.5521 172.76 81.6728C172.664 81.7935 172.618 81.9465 172.632 82.1001L173.052 85.1103C173.066 85.2153 173.107 85.3148 173.173 85.3984C173.238 85.4821 173.324 85.5469 173.422 85.5862C173.521 85.6256 173.628 85.638 173.733 85.6222C173.838 85.6065 173.937 85.5631 174.019 85.4965C174.06 85.5007 174.101 85.5007 174.141 85.4965L177.366 85.0473C177.445 85.0365 177.52 85.0103 177.589 84.9702C177.657 84.9301 177.717 84.877 177.764 84.8138C177.812 84.7506 177.847 84.6786 177.866 84.6019C177.886 84.5253 177.89 84.4455 177.879 84.3672Z" fill="#FF715E"/>
<path d="M166.274 95.5817L167.765 95.3763C167.893 95.3544 168.007 95.2836 168.083 95.1791C168.16 95.0745 168.193 94.9444 168.175 94.8162C168.157 94.688 168.089 94.5718 167.987 94.4922C167.885 94.4127 167.756 94.3759 167.627 94.3899L166.136 94.5986L165.927 93.1105C165.918 93.0459 165.896 92.9838 165.863 92.9276C165.83 92.8714 165.786 92.8223 165.734 92.7831C165.682 92.7439 165.623 92.7153 165.559 92.6989C165.496 92.6826 165.43 92.6789 165.366 92.6879C165.301 92.697 165.239 92.7187 165.183 92.7518C165.126 92.7848 165.077 92.8287 165.038 92.8807C164.998 92.9328 164.97 92.992 164.954 93.0551C164.937 93.1182 164.933 93.1839 164.942 93.2485L165.152 94.7366L163.661 94.9454C163.596 94.954 163.533 94.9755 163.477 95.0086C163.42 95.0416 163.37 95.0855 163.331 95.1379C163.291 95.1902 163.263 95.2498 163.246 95.3133C163.23 95.3767 163.227 95.4428 163.236 95.5076C163.244 95.5738 163.265 95.6378 163.298 95.6957C163.331 95.7536 163.375 95.8041 163.428 95.8443C163.48 95.8839 163.539 95.9126 163.603 95.9288C163.666 95.945 163.731 95.9483 163.796 95.9386L165.286 95.7298L165.496 97.218C165.504 97.2844 165.525 97.3485 165.559 97.4063C165.592 97.4642 165.637 97.5146 165.691 97.5546C165.743 97.5942 165.802 97.6229 165.865 97.6391C165.928 97.6553 165.994 97.6587 166.059 97.6489C166.19 97.6306 166.308 97.561 166.388 97.4556C166.467 97.3502 166.502 97.2175 166.484 97.0867L166.274 95.5817Z" fill="#FF715E"/>
<path d="M284.465 206.446H269.077V211.479H284.465V206.446Z" fill="#D7DFF4"/>
<path d="M264.832 206.446H249.444V211.479H264.832V206.446Z" fill="#376EFF"/>
<path d="M297.571 160.18C297.571 160.18 293.904 156.625 292.626 156.789C291.347 156.953 294.456 160.726 297.465 161.43L297.571 160.18Z" fill="white"/>
<path d="M296.706 159.237C296.271 159.926 295.847 160.598 295.459 161.292C306.549 167.936 312.54 170.198 325.312 167.65C327.264 167.252 327.339 166.5 326.744 165.001C327.01 164.81 327.015 164.821 326.744 165.001C326.155 163.486 325.641 163.454 323.741 163.857C311.314 166.474 308.077 164.185 296.706 159.237Z" fill="#D7DFF4"/>
<path d="M301.304 146.431L272.137 169.962L305.213 210.831L334.38 187.3L301.304 146.431Z" fill="white"/>
<path d="M298.659 183.13L293.156 187.57L288.71 182.076L294.212 177.636L298.659 183.13ZM293.315 186.081L297.168 182.971L294.053 179.125L290.201 182.229L293.315 186.081Z" fill="#376EFF"/>
<path d="M289.574 172.746L284.9 176.524C284.846 176.568 284.783 176.6 284.716 176.62C284.649 176.64 284.579 176.647 284.509 176.639C284.44 176.632 284.372 176.611 284.311 176.577C284.25 176.544 284.195 176.498 284.152 176.444L280.374 171.771C280.33 171.717 280.297 171.655 280.277 171.588C280.257 171.521 280.25 171.451 280.258 171.381C280.265 171.312 280.286 171.245 280.32 171.183C280.353 171.122 280.399 171.068 280.453 171.024L285.128 167.252C285.182 167.208 285.245 167.175 285.312 167.156C285.379 167.136 285.449 167.129 285.519 167.137C285.588 167.144 285.656 167.165 285.717 167.199C285.778 167.232 285.832 167.277 285.876 167.332L289.654 172.004C289.742 172.114 289.782 172.253 289.767 172.392C289.752 172.531 289.683 172.658 289.574 172.746ZM284.645 175.363L288.497 172.259L285.383 168.413L281.53 171.517L284.645 175.363Z" fill="#376EFF"/>
<path d="M306.915 194.176L302.241 197.948C302.186 197.992 302.124 198.025 302.057 198.045C301.99 198.064 301.919 198.071 301.85 198.063C301.78 198.056 301.713 198.035 301.652 198.002C301.59 197.968 301.536 197.923 301.492 197.868L297.714 193.201C297.67 193.147 297.637 193.085 297.617 193.018C297.598 192.951 297.591 192.88 297.599 192.811C297.606 192.742 297.627 192.674 297.661 192.613C297.694 192.552 297.74 192.498 297.794 192.454L302.469 188.682C302.523 188.638 302.585 188.605 302.652 188.585C302.72 188.565 302.79 188.559 302.859 188.566C302.929 188.574 302.996 188.595 303.058 188.628C303.119 188.662 303.173 188.707 303.217 188.761L306.995 193.429C307.039 193.483 307.072 193.545 307.092 193.612C307.112 193.679 307.118 193.749 307.111 193.819C307.103 193.888 307.082 193.956 307.049 194.017C307.015 194.078 306.97 194.132 306.915 194.176ZM301.986 196.793L305.838 193.683L302.723 189.837L298.871 192.947L301.986 196.793Z" fill="#376EFF"/>
<path d="M300.854 156.841L288.749 166.607L289.749 167.844L301.854 158.078L300.854 156.841Z" fill="#376EFF"/>
<path d="M302.8 159.244L290.695 169.01L291.696 170.246L303.8 160.48L302.8 159.244Z" fill="#376EFF"/>
<path d="M309.111 167.036L297.006 176.802L298.006 178.038L310.111 168.272L309.111 167.036Z" fill="#376EFF"/>
<path d="M311.053 169.447L298.948 179.213L299.948 180.45L312.053 170.683L311.053 169.447Z" fill="#376EFF"/>
<path d="M317.362 177.238L305.257 187.004L306.257 188.241L318.362 178.474L317.362 177.238Z" fill="#376EFF"/>
<path d="M319.31 179.642L307.205 189.408L308.206 190.644L320.311 180.878L319.31 179.642Z" fill="#376EFF"/>
<path d="M294.87 179.645C294.743 179.631 294.616 179.669 294.517 179.749C294.418 179.829 294.355 179.946 294.341 180.072L294.078 182.527L292.186 182.325C292.063 182.318 291.942 182.359 291.849 182.439C291.755 182.519 291.695 182.632 291.682 182.755C291.669 182.877 291.704 183 291.779 183.098C291.854 183.196 291.964 183.261 292.085 183.281L294.513 183.54C294.64 183.553 294.767 183.515 294.866 183.435C294.965 183.355 295.029 183.239 295.042 183.112C295.052 183.028 295.038 182.943 295.002 182.867C295.012 182.835 295.019 182.802 295.022 182.769L295.299 180.177C295.312 180.049 295.274 179.922 295.194 179.823C295.114 179.723 294.998 179.659 294.87 179.645Z" fill="#FF715E"/>
<path d="M303.386 190.168C303.263 190.155 303.14 190.192 303.044 190.269C302.949 190.346 302.887 190.459 302.874 190.581L302.62 192.948L300.794 192.756C300.675 192.75 300.558 192.79 300.467 192.867C300.377 192.944 300.319 193.053 300.307 193.171C300.294 193.29 300.328 193.408 300.4 193.503C300.472 193.597 300.578 193.66 300.696 193.679L303.04 193.926C303.101 193.934 303.163 193.928 303.222 193.911C303.28 193.894 303.335 193.865 303.382 193.826C303.431 193.786 303.472 193.737 303.501 193.681C303.53 193.625 303.547 193.563 303.552 193.5C303.56 193.419 303.547 193.337 303.512 193.263C303.522 193.232 303.529 193.201 303.532 193.169L303.799 190.665C303.808 190.545 303.77 190.426 303.693 190.333C303.616 190.24 303.506 190.181 303.386 190.168Z" fill="#FF715E"/>
<path d="M286.267 168.674C286.199 168.666 286.131 168.672 286.066 168.691C286 168.71 285.94 168.741 285.886 168.784C285.833 168.826 285.789 168.879 285.757 168.938C285.724 168.998 285.704 169.063 285.696 169.131L285.416 171.777L283.377 171.559C283.244 171.552 283.114 171.597 283.013 171.683C282.912 171.769 282.847 171.891 282.833 172.023C282.819 172.155 282.857 172.287 282.938 172.393C283.018 172.498 283.137 172.569 283.268 172.59L285.882 172.869C286.013 172.88 286.143 172.839 286.245 172.757C286.3 172.712 286.345 172.657 286.379 172.595C286.412 172.533 286.432 172.464 286.438 172.394C286.445 172.303 286.429 172.212 286.391 172.129C286.391 172.093 286.409 172.06 286.416 172.024L286.711 169.229C286.723 169.097 286.684 168.965 286.601 168.862C286.518 168.758 286.399 168.691 286.267 168.674Z" fill="#FF715E"/>
<path d="M362.417 220.718C362.423 220.651 362.423 220.584 362.417 220.517C362.384 220.256 362.249 220.02 362.041 219.859C361.833 219.698 361.569 219.626 361.308 219.659L354.235 220.528C353.98 220.567 353.75 220.704 353.594 220.909C353.439 221.115 353.37 221.373 353.401 221.629C353.433 221.885 353.563 222.118 353.765 222.279C353.966 222.441 354.222 222.517 354.479 222.493L361.552 221.619C361.779 221.593 361.989 221.488 362.147 221.324C362.305 221.159 362.4 220.945 362.417 220.718Z" fill="white"/>
<path d="M360.438 219.563C360.438 219.563 362.608 218.096 362.889 218.642C363.171 219.187 366.519 227.357 366.153 227.547C364.906 228.204 361.165 221.905 361.048 221.19C360.932 220.475 360.12 219.765 360.438 219.563Z" fill="#D7DFF4"/>
<path d="M323.014 250.683C323.081 250.691 323.149 250.691 323.216 250.683C323.473 250.631 323.699 250.479 323.844 250.26C323.989 250.042 324.042 249.775 323.99 249.518L322.568 242.546C322.549 242.412 322.503 242.284 322.432 242.169C322.361 242.054 322.268 241.955 322.158 241.877C322.047 241.8 321.922 241.745 321.79 241.717C321.658 241.69 321.522 241.689 321.389 241.716C321.257 241.743 321.132 241.796 321.021 241.873C320.91 241.95 320.816 242.048 320.744 242.163C320.673 242.277 320.625 242.405 320.605 242.538C320.585 242.671 320.592 242.807 320.626 242.938L322.048 249.91C322.097 250.129 322.219 250.326 322.394 250.466C322.57 250.607 322.789 250.684 323.014 250.683Z" fill="white"/>
<mask id="path-69-inside-1_2903_2" fill="white">
<path fill-rule="evenodd" clip-rule="evenodd" d="M358.098 219.564C358.305 220.586 358.469 221.646 358.591 222.705C338.142 225.154 326.086 220.696 321.978 206.695C319.916 219.822 321.752 234.506 323.969 246.334C322.923 246.492 321.869 246.589 320.812 246.625C318.281 232.204 313.049 201.376 319.167 187.724C319.633 187.943 320.1 188.163 320.566 188.383C320.599 187.883 320.637 187.377 320.679 186.865C320.924 186.927 321.169 186.988 321.414 187.049C323.981 187.692 326.548 188.335 329.105 189.021C323.709 215.294 333.26 222.79 358.098 219.564Z"/>
</mask>
<path fill-rule="evenodd" clip-rule="evenodd" d="M358.098 219.564C358.305 220.586 358.469 221.646 358.591 222.705C338.142 225.154 326.086 220.696 321.978 206.695C319.916 219.822 321.752 234.506 323.969 246.334C322.923 246.492 321.869 246.589 320.812 246.625C318.281 232.204 313.049 201.376 319.167 187.724C319.633 187.943 320.1 188.163 320.566 188.383C320.599 187.883 320.637 187.377 320.679 186.865C320.924 186.927 321.169 186.988 321.414 187.049C323.981 187.692 326.548 188.335 329.105 189.021C323.709 215.294 333.26 222.79 358.098 219.564Z" fill="#376EFF"/>
<path d="M358.591 222.705L358.71 223.698L359.699 223.58L359.585 222.591L358.591 222.705ZM358.098 219.564L359.078 219.365L358.893 218.452L357.969 218.572L358.098 219.564ZM321.978 206.695L322.938 206.414L320.99 206.54L321.978 206.695ZM323.969 246.334L324.118 247.322L325.143 247.168L324.952 246.149L323.969 246.334ZM320.812 246.625L319.827 246.798L319.977 247.654L320.846 247.624L320.812 246.625ZM319.167 187.724L319.592 186.819L318.671 186.385L318.254 187.315L319.167 187.724ZM320.566 188.383L320.139 189.287L321.466 189.915L321.564 188.45L320.566 188.383ZM320.679 186.865L320.922 185.895L319.779 185.609L319.682 186.783L320.679 186.865ZM321.414 187.049L321.171 188.019H321.171L321.414 187.049ZM329.105 189.021L330.085 189.223L330.274 188.3L329.364 188.056L329.105 189.021ZM359.585 222.591C359.46 221.506 359.291 220.418 359.078 219.365L357.118 219.762C357.319 220.754 357.479 221.786 357.598 222.82L359.585 222.591ZM321.019 206.977C323.15 214.242 327.386 219.106 333.769 221.791C340.088 224.448 348.418 224.931 358.71 223.698L358.472 221.712C348.315 222.929 340.393 222.407 334.544 219.947C328.761 217.515 324.914 213.15 322.938 206.414L321.019 206.977ZM324.952 246.149C322.74 234.348 320.932 219.802 322.966 206.85L320.99 206.54C318.901 219.841 320.765 234.664 322.986 246.518L324.952 246.149ZM320.846 247.624C321.942 247.587 323.034 247.486 324.118 247.322L323.82 245.345C322.812 245.497 321.796 245.591 320.778 245.626L320.846 247.624ZM318.254 187.315C316.654 190.885 315.823 195.508 315.489 200.593C315.155 205.692 315.317 211.327 315.749 216.963C316.613 228.232 318.561 239.588 319.827 246.798L321.797 246.452C320.531 239.242 318.598 227.972 317.743 216.81C317.315 211.229 317.159 205.696 317.485 200.724C317.812 195.739 318.62 191.388 320.079 188.132L318.254 187.315ZM320.993 187.479C320.526 187.258 320.059 187.038 319.592 186.819L318.741 188.628C319.207 188.848 319.673 189.067 320.139 189.287L320.993 187.479ZM319.682 186.783C319.64 187.3 319.602 187.811 319.568 188.317L321.564 188.45C321.597 187.955 321.634 187.454 321.676 186.947L319.682 186.783ZM321.657 186.079C321.412 186.018 321.167 185.957 320.922 185.895L320.436 187.835C320.681 187.897 320.926 187.958 321.171 188.019L321.657 186.079ZM329.364 188.056C326.797 187.366 324.223 186.722 321.657 186.079L321.171 188.019C323.74 188.662 326.298 189.303 328.846 189.987L329.364 188.056ZM357.969 218.572C345.558 220.184 337.416 219.034 332.966 214.643C328.546 210.281 327.393 202.327 330.085 189.223L328.126 188.82C325.421 201.988 326.345 210.918 331.561 216.066C336.748 221.185 345.8 222.169 358.227 220.555L357.969 218.572Z" fill="white" mask="url(#path-69-inside-1_2903_2)"/>
<path d="M327.858 156.487C327.858 159.486 325.768 161.912 323.937 161.912C322.107 161.912 321.22 159.486 321.22 156.487C321.22 153.489 322.706 151.974 324.542 151.974C326.378 151.974 327.858 153.494 327.858 156.487Z" fill="white"/>
<path d="M329.206 157.52C329.206 158.214 328.516 159.11 328.012 159.11C327.508 159.11 327.381 158.543 327.381 157.844C327.381 157.144 327.789 156.498 328.293 156.498C328.424 156.494 328.554 156.519 328.674 156.571C328.794 156.623 328.901 156.7 328.988 156.797C329.075 156.895 329.139 157.01 329.177 157.135C329.215 157.26 329.225 157.391 329.206 157.52Z" fill="white"/>
<path d="M317.31 194.526C319.581 194.553 321.825 194.039 323.857 193.027C325.562 192.237 327.412 191.809 329.291 191.771C329.71 185.779 330.702 169.986 329.758 167.072C328.58 163.459 326.479 161.928 326.479 161.928C326.479 161.928 325.142 163.099 324.144 162.988C323.146 162.877 321.995 166.299 320.621 168.466C319.246 170.633 318.121 171.358 319.294 174.68C319.793 176.158 317.06 192.465 317.31 194.526Z" fill="#D7DFF4"/>
<path d="M327.71 158.109L324.579 157.801C324.537 158.23 324.208 162.31 324.367 163.851C324.484 164.323 325.264 164.54 326.113 164.334C326.877 164.148 327.429 163.687 327.45 163.274C327.43 161.548 327.517 159.823 327.71 158.109Z" fill="white"/>
<path d="M324.255 249.364C324.255 249.364 324.871 251.907 324.255 251.981C323.64 252.055 314.811 252.315 314.758 251.907C314.582 250.514 321.804 249.221 322.51 249.364C323.215 249.507 324.176 248.993 324.255 249.364Z" fill="#D7DFF4"/>
<path d="M305.854 176.629C305.854 176.629 301.699 173.233 300.378 173.52C299.057 173.806 302.644 177.477 305.854 177.949V176.629Z" fill="#D7DFF4"/>
<path d="M305.424 176.121C305.084 176.857 304.724 177.631 304.363 178.293C317.289 184.274 326.797 185.466 330.018 169.615C330.512 167.189 329.487 167.623 328.426 166.85C326.675 167.146 326.23 166.775 325.916 169.043C323.868 183.872 316.599 179.289 305.424 176.121Z" fill="#D7DFF4"/>
<path d="M55.3558 218.366C55.3126 218.312 55.2752 218.253 55.2444 218.191C55.1223 217.944 55.1011 217.66 55.1852 217.398C55.2694 217.136 55.4523 216.917 55.6954 216.787L62.3918 213.375C62.5155 213.282 62.6582 213.218 62.8097 213.186C62.9612 213.154 63.1178 213.155 63.2687 213.19C63.4196 213.225 63.561 213.292 63.683 213.387C63.805 213.482 63.9048 213.603 63.9751 213.741C64.0455 213.878 64.0848 214.03 64.0903 214.184C64.0958 214.339 64.0674 214.493 64.007 214.635C63.9466 214.778 63.8557 214.905 63.7408 215.009C63.6258 215.112 63.4896 215.189 63.3416 215.235L56.6452 218.647C56.4301 218.752 56.1856 218.782 55.9515 218.731C55.7174 218.68 55.5074 218.551 55.3558 218.366Z" fill="white"/>
<path d="M56.9478 216.316C56.9478 216.316 54.2948 215.606 54.1887 216.252C54.0825 216.898 53.605 226.186 54.0348 226.249C55.5046 226.466 57.0381 218.901 56.9054 218.154C56.7728 217.407 57.3352 216.411 56.9478 216.316Z" fill="#D7DFF4"/>
<path d="M113.267 145.642C113.267 145.642 116.981 141.733 118.324 141.849C119.666 141.966 116.568 146.088 113.432 146.956L113.267 145.642Z" fill="white"/>
<path d="M114.774 143.979C115.161 144.758 115.57 145.5 115.957 146.247C104.162 152.758 96.0697 152.159 86.2427 143.343C84.7411 141.998 85.0223 141.346 86.2427 140.207C86.1525 139.921 86.1737 139.905 86.2427 140.207C87.4897 139.073 88.0203 139.147 89.5484 140.509C99.5452 149.447 102.198 148.382 114.774 143.979Z" fill="#D7DFF4"/>
<path d="M90.9336 229.958C90.8648 229.963 90.7956 229.963 90.7267 229.958C90.4572 229.899 90.2212 229.738 90.0687 229.509C89.9161 229.279 89.8591 229 89.9095 228.729L91.4059 221.375C91.4095 221.221 91.447 221.068 91.5159 220.93C91.5847 220.791 91.6832 220.669 91.8044 220.572C91.9256 220.475 92.0665 220.406 92.2173 220.37C92.3681 220.334 92.525 220.331 92.6771 220.361C92.8291 220.392 92.9725 220.456 93.0973 220.548C93.2221 220.64 93.3251 220.758 93.3992 220.894C93.4733 221.03 93.5166 221.181 93.5261 221.335C93.5356 221.49 93.511 221.645 93.4541 221.789L91.9577 229.142C91.9031 229.373 91.7725 229.579 91.5868 229.727C91.4011 229.875 91.1712 229.956 90.9336 229.958Z" fill="white"/>
<path d="M97.0384 194.292C96.1513 205.869 94.1623 217.549 92.8148 225.165C92.0376 225.128 91.2623 225.057 90.491 224.954C92.1095 216.217 93.5178 206.036 93.455 195.984C93.3923 185.926 91.8569 175.958 87.5524 167.688C89.9337 166.528 92.3205 165.385 94.7129 164.258C96.1673 167.719 96.9717 172.203 97.3061 177.256C97.6554 182.533 97.4903 188.394 97.0384 194.292Z" fill="#376EFF" stroke="white"/>
<path d="M86.2032 195.611C80.8245 203.744 72.3321 210.096 60.6695 216.951C60.2107 216.269 59.7696 215.581 59.3568 214.877C69.5677 209.089 77.6381 203.007 82.3354 195.212C87.0551 187.379 88.3302 177.887 85.0875 165.381C87.7178 164.709 90.3638 164.08 93.0331 163.512C93.8646 177.59 91.5592 187.513 86.2032 195.611Z" fill="#376EFF" stroke="white"/>
<path d="M89.6283 228.57C89.6283 228.57 88.9809 231.251 89.6283 231.33C90.2756 231.41 99.5826 231.685 99.641 231.251C99.8267 229.783 92.2124 228.422 91.4695 228.57C90.7266 228.718 89.7132 228.183 89.6283 228.57Z" fill="#D7DFF4"/>
<path d="M84.1153 169.207C85.5532 168.635 87.6385 168.084 91.2732 167.93C93.2488 167.819 95.2302 167.881 97.1949 168.116C90.8275 154.495 89.7663 147.708 90.2969 143.883C90.4408 142.95 90.3323 141.995 89.9825 141.118C89.6326 140.24 89.0541 139.472 88.3071 138.893L87.7075 138.432C87.0705 137.943 86.3191 137.625 85.5246 137.508C84.73 137.39 83.9186 137.477 83.1671 137.761C82.4157 138.044 81.7492 138.514 81.2308 139.127C80.7123 139.739 80.3591 140.474 80.2046 141.261C79.9564 142.562 79.7986 143.879 79.7324 145.203C79.3822 152.233 80.3214 159.883 84.1153 169.207Z" fill="#2D3750"/>
<path d="M83.1545 133.542C85.399 135.762 88.7684 136 90.1321 134.634C91.4958 133.267 90.3231 130.798 88.0786 128.578C85.8341 126.358 83.5843 126.337 82.2419 127.709C80.8994 129.081 80.91 131.322 83.1545 133.542Z" fill="white"/>
<path d="M83.4519 132.673L86.7576 132.35C86.8001 132.8 87.1502 137.118 86.9804 138.708C86.8584 139.206 86.0359 139.439 85.1392 139.237C84.338 139.041 83.7543 138.554 83.7331 138.093C83.7519 136.282 83.6581 134.472 83.4519 132.673Z" fill="white"/>
<path d="M90.0476 131.19L89.9468 131.269C89.4534 131.698 87.2035 133.685 87.1717 134.798C87.1399 136.048 88.4505 134.04 88.7636 133.171C89.0766 132.302 89.7346 132.271 90.2493 131.99C90.764 131.709 90.8913 130.951 90.0476 131.19Z" fill="#2D3750"/>
<path d="M132.19 142.903L96.4509 131.57L80.5208 181.649L116.26 192.982L132.19 142.903Z" fill="white"/>
<path d="M100.118 160.874L93.3743 158.755L95.4967 152.021L102.236 154.14L100.118 160.874ZM94.7061 158.05L99.4286 159.544L100.925 154.834L96.2077 153.335L94.7061 158.05Z" fill="#376EFF"/>
<path d="M103.79 147.587L98.0545 145.77C97.9879 145.749 97.9261 145.715 97.8726 145.67C97.8192 145.625 97.7752 145.57 97.7431 145.508C97.7111 145.446 97.6916 145.378 97.6859 145.308C97.6801 145.239 97.6882 145.169 97.7096 145.102L99.5349 139.381C99.5776 139.247 99.6713 139.136 99.7955 139.072C99.9198 139.007 100.065 138.995 100.198 139.036L105.929 140.853C105.996 140.874 106.057 140.908 106.111 140.953C106.164 140.998 106.208 141.054 106.24 141.116C106.272 141.178 106.292 141.245 106.298 141.315C106.303 141.384 106.295 141.454 106.274 141.521L104.454 147.243C104.411 147.376 104.317 147.487 104.193 147.551C104.069 147.616 103.924 147.629 103.79 147.587ZM98.8823 144.938L103.605 146.432L105.101 141.722L100.384 140.223L98.8823 144.938Z" fill="#376EFF"/>
<path d="M95.4331 173.864L89.7024 172.047C89.6358 172.026 89.574 171.992 89.5206 171.947C89.4671 171.902 89.4231 171.847 89.3911 171.785C89.359 171.723 89.3396 171.655 89.3338 171.586C89.3281 171.516 89.3362 171.446 89.3576 171.38L91.1776 165.658C91.1987 165.591 91.2328 165.53 91.2778 165.476C91.3229 165.423 91.378 165.379 91.4402 165.347C91.5023 165.315 91.5702 165.296 91.6398 165.29C91.7095 165.284 91.7796 165.292 91.8461 165.314L97.5768 167.131C97.6434 167.152 97.7052 167.186 97.7587 167.231C97.8121 167.276 97.8561 167.331 97.8882 167.393C97.9202 167.455 97.9397 167.523 97.9454 167.592C97.9512 167.662 97.9431 167.732 97.9216 167.798L96.1017 173.52C96.0806 173.586 96.0465 173.648 96.0015 173.702C95.9564 173.755 95.9012 173.799 95.8391 173.831C95.777 173.863 95.7091 173.882 95.6394 173.888C95.5697 173.894 95.4996 173.886 95.4331 173.864ZM90.5302 171.215L95.2527 172.709L96.749 168L92.0318 166.5L90.5302 171.215Z" fill="#376EFF"/>
<path d="M123.25 148.268L108.417 143.564L107.935 145.079L122.768 149.783L123.25 148.268Z" fill="#376EFF"/>
<path d="M122.311 151.215L107.478 146.512L106.996 148.027L121.829 152.73L122.311 151.215Z" fill="#376EFF"/>
<path d="M119.276 160.769L104.443 156.065L103.961 157.58L118.794 162.284L119.276 160.769Z" fill="#376EFF"/>
<path d="M118.331 163.716L103.499 159.013L103.017 160.527L117.849 165.231L118.331 163.716Z" fill="#376EFF"/>
<path d="M115.292 173.268L100.459 168.564L99.9771 170.079L114.81 174.783L115.292 173.268Z" fill="#376EFF"/>
<path d="M114.357 176.212L99.5247 171.508L99.0428 173.023L113.876 177.727L114.357 176.212Z" fill="#376EFF"/>
<path d="M106.224 142.231C106.186 142.157 106.133 142.092 106.07 142.038C106.006 141.984 105.933 141.944 105.853 141.919C105.774 141.894 105.691 141.884 105.608 141.891C105.525 141.899 105.444 141.922 105.37 141.961L102.477 143.456L101.326 141.237C101.248 141.088 101.114 140.975 100.953 140.925C100.792 140.874 100.618 140.889 100.468 140.967C100.318 141.044 100.206 141.178 100.155 141.339C100.104 141.499 100.119 141.674 100.197 141.823L101.677 144.672C101.715 144.746 101.768 144.813 101.832 144.867C101.896 144.921 101.97 144.962 102.05 144.987C102.129 145.012 102.212 145.022 102.294 145.015C102.377 145.008 102.457 144.985 102.53 144.947C102.631 144.896 102.716 144.818 102.775 144.721C102.818 144.708 102.859 144.692 102.899 144.672L105.953 143.092C106.028 143.054 106.095 143.002 106.149 142.937C106.204 142.873 106.245 142.799 106.27 142.719C106.295 142.639 106.304 142.554 106.296 142.47C106.288 142.387 106.264 142.305 106.224 142.231Z" fill="#FF715E"/>
<path d="M94.3091 169.818L95.5232 169.197C95.6286 169.142 95.7082 169.049 95.7443 168.936C95.7805 168.823 95.7702 168.7 95.7159 168.595C95.689 168.543 95.6521 168.497 95.6072 168.459C95.5624 168.421 95.5105 168.392 95.4546 168.374C95.3416 168.338 95.2189 168.349 95.1134 168.403L93.8993 169.009L93.2771 167.797C93.2528 167.74 93.217 167.689 93.1719 167.647C93.1269 167.604 93.0737 167.572 93.0155 167.551C92.9573 167.53 92.8955 167.522 92.8339 167.526C92.7722 167.53 92.7121 167.547 92.6573 167.575C92.6024 167.604 92.5541 167.643 92.5152 167.691C92.4763 167.739 92.4477 167.794 92.4313 167.854C92.4148 167.913 92.4108 167.976 92.4195 168.037C92.4282 168.098 92.4494 168.156 92.4819 168.209L93.0889 169.421L91.8748 170.027C91.8221 170.054 91.7752 170.091 91.7369 170.136C91.6986 170.181 91.6698 170.234 91.652 170.29C91.6342 170.346 91.6278 170.406 91.6332 170.465C91.6387 170.524 91.6558 170.581 91.6836 170.633C91.71 170.686 91.7467 170.732 91.7915 170.77C91.8364 170.808 91.8885 170.837 91.9446 170.854C92.0585 170.89 92.1818 170.879 92.2876 170.824L93.5017 170.218L94.1087 171.43C94.1638 171.536 94.2585 171.616 94.3722 171.652C94.486 171.688 94.6094 171.678 94.7158 171.624C94.7686 171.597 94.8155 171.56 94.8537 171.515C94.892 171.47 94.9209 171.417 94.9387 171.361C94.9565 171.305 94.9628 171.245 94.9574 171.186C94.952 171.127 94.9348 171.07 94.907 171.018L94.3091 169.818Z" fill="#FF715E"/>
<path d="M98.4405 156.607L99.4218 156.117C99.4998 156.069 99.5567 155.993 99.5812 155.905C99.6056 155.817 99.5957 155.723 99.5535 155.642C99.5112 155.56 99.4398 155.498 99.3535 155.467C99.2672 155.437 99.1724 155.439 99.0882 155.475L98.1069 155.965L97.6162 154.986C97.572 154.9 97.4956 154.836 97.4038 154.807C97.312 154.777 97.2124 154.786 97.1268 154.83C97.0413 154.874 96.9768 154.951 96.9476 155.042C96.9184 155.134 96.9268 155.233 96.9711 155.319L97.4764 156.298L96.4951 156.788C96.4099 156.833 96.3459 156.91 96.3169 157.002C96.288 157.093 96.2965 157.193 96.3406 157.278C96.3851 157.364 96.4616 157.428 96.5535 157.458C96.6455 157.487 96.7453 157.479 96.8312 157.435L97.8125 156.93L98.3179 157.91C98.3628 157.995 98.4395 158.059 98.5314 158.088C98.6233 158.117 98.7229 158.108 98.8085 158.064C98.8509 158.042 98.8886 158.012 98.9193 157.976C98.9501 157.939 98.9733 157.897 98.9877 157.852C99.002 157.806 99.0072 157.758 99.003 157.711C98.9988 157.663 98.9852 157.617 98.9631 157.575L98.4405 156.607Z" fill="#FF715E"/>
<path d="M100.782 156.858C100.782 156.858 105.722 154.114 107.043 154.649C108.364 155.184 103.955 158.357 100.532 158.225L100.782 156.858Z" fill="#D7DFF4"/>
<path d="M101.758 155.947C101.96 156.805 102.167 157.663 102.389 158.437C88.2114 161.859 77.1587 159.284 80.4326 142.649C80.9632 140.106 81.4514 140.641 82.9689 140.88C83.1918 140.705 83.335 140.684 82.9689 140.88C84.4865 141.118 85.3355 141.409 84.6934 143.719C80.4963 158.686 90.4294 156.635 101.758 155.947Z" fill="#2D3750"/>
<path d="M81.3983 132.451C81.3983 132.451 80.4325 130.559 81.0268 128.917C81.6211 127.275 83.8603 125.209 86.3329 126.703C86.3329 126.703 87.9778 127.932 86.3329 129.786C84.688 131.64 84.1574 130.379 84.0513 132.085C83.9452 133.791 82.5337 133.823 82.5496 134.204L81.3983 132.451Z" fill="#2D3750"/>
<path d="M82.9266 135.317C83.4572 135.847 84.6298 135.974 85.0066 135.598C85.3833 135.222 85.049 134.708 84.529 134.189C84.009 133.669 83.2131 133.495 82.8364 133.876C82.7366 133.971 82.6589 134.087 82.6086 134.215C82.5583 134.343 82.5367 134.48 82.5453 134.618C82.5539 134.755 82.5925 134.889 82.6584 135.009C82.7243 135.13 82.8158 135.235 82.9266 135.317Z" fill="white"/>
<path d="M84.9214 134.088C85.2875 133.468 85.8341 133.834 87.1235 134.231C88.4129 134.628 90.4186 134.014 89.9782 131.307C89.7023 129.58 91.2676 132.16 91.2729 132.165C91.7664 133.521 91.5754 134.448 90.7423 135.259C89.6333 136.382 87.5586 136.711 85.468 136.016C85.0488 135.397 84.6879 134.507 84.9214 134.088Z" fill="#2D3750"/>
<path d="M94.2393 58.8056C94.234 58.7403 94.234 58.6748 94.2393 58.6096C94.2623 58.4817 94.3104 58.3597 94.3808 58.2505C94.4511 58.1413 94.5425 58.047 94.6495 57.9732C94.7565 57.8993 94.8771 57.8473 95.0043 57.8201C95.1315 57.793 95.2628 57.7912 95.3907 57.8149L102.405 59.097C102.664 59.1447 102.894 59.2933 103.043 59.5098C103.192 59.7264 103.249 59.9933 103.201 60.2519C103.154 60.5104 103.005 60.7394 102.788 60.8884C102.571 61.0374 102.304 61.0943 102.045 61.0466L95.0352 59.7592C94.8136 59.7146 94.6138 59.5957 94.4691 59.4223C94.3244 59.2489 94.2433 59.0313 94.2393 58.8056Z" fill="white"/>
<path d="M96.5157 57.9257C96.5157 57.9257 95.1944 55.6688 94.7009 56.0397C94.2075 56.4105 87.6544 62.3283 87.8985 62.662C88.7422 63.7905 94.8442 59.727 95.2581 59.1337C95.672 58.5403 96.712 58.2489 96.5157 57.9257Z" fill="#2D3750"/>
<path d="M162.837 63.139C162.772 63.1263 162.708 63.1086 162.646 63.0861C162.525 63.0382 162.414 62.9669 162.32 62.8762C162.227 62.7855 162.152 62.6773 162.1 62.5578C162.048 62.4382 162.021 62.3096 162.019 62.1793C162.017 62.0491 162.041 61.9197 162.089 61.7987L164.705 55.1817C164.746 55.052 164.813 54.9321 164.903 54.8294C164.992 54.7268 165.102 54.6436 165.224 54.5851C165.347 54.5266 165.481 54.494 165.617 54.4894C165.753 54.4847 165.889 54.5081 166.016 54.558C166.142 54.6079 166.257 54.6834 166.354 54.7797C166.45 54.8759 166.525 54.9909 166.575 55.1175C166.625 55.2441 166.648 55.3796 166.643 55.5155C166.638 55.6514 166.605 55.7848 166.546 55.9075L163.93 62.5298C163.847 62.7419 163.692 62.9185 163.493 63.0296C163.294 63.1407 163.062 63.1794 162.837 63.139Z" fill="white"/>
<path d="M161.489 61.8673C161.489 61.8673 160.927 64.4209 161.542 64.4791C162.158 64.5374 170.993 64.6328 171.035 64.2195C171.189 62.8209 163.941 61.6766 163.235 61.8302C162.529 61.9839 161.564 61.4964 161.489 61.8673Z" fill="#2D3750"/>
<path d="M165.591 61.0198L162.285 59.3245C165.257 53.5604 168.876 44.1726 167.591 41.3118C167.559 41.2045 167.497 41.1081 167.414 41.0326C167.331 40.9571 167.229 40.9053 167.119 40.8826C162.529 39.6588 153.132 46.6202 149.524 48.5804L146.775 43.1819C148.235 42.3872 161.235 35.4788 168.074 37.296C168.722 37.4622 169.322 37.7759 169.827 38.2125C170.332 38.6491 170.73 39.1968 170.987 39.8125C173.434 45.3063 166.933 58.4503 165.591 61.0198Z" fill="#2D3750"/>
<path d="M179.212 56.1035C179.212 56.1035 182.486 60.0186 182.231 61.2795C181.977 62.5404 178.432 59.1604 177.955 56.1194L179.212 56.1035Z" fill="white"/>
<path d="M97.7625 61.343C97.858 60.2834 98.0065 59.1974 98.2028 58.1272C117.905 61.6026 137.304 63.1178 143.417 40.9092C146.197 41.5626 148.972 42.2478 151.742 42.9648C141.464 67.3031 121.178 66.4184 97.7625 61.343Z" fill="#2D3750"/>
<path d="M180.003 23.6063C179.79 23.1307 179.438 22.7308 178.992 22.4593C178.547 22.1879 178.03 22.0576 177.509 22.0858C176.495 22.2182 175.917 23.3202 176.06 24.2738C176.203 25.2274 177.88 26.4565 178.888 26.3241C179.897 26.1916 180.475 24.74 180.003 23.6063Z" fill="#2D3750"/>
<path d="M172.616 23.5162C173.067 21.3123 171.916 18.4196 169.815 17.3654C167.714 16.3111 165.204 17.6991 164.201 19.6964C163.198 21.6937 164.047 25.7625 167.077 27.569C169.093 28.7717 172.049 26.3029 172.616 23.5162Z" fill="#2D3750"/>
<path d="M174.649 24.0038C175.004 22.3667 174.219 20.2423 172.723 19.49C171.226 18.7377 169.401 19.7973 168.647 21.2966C167.894 22.7958 169.019 26.1335 170.515 26.8858C172.011 27.6381 174.203 26.054 174.649 24.0038Z" fill="#2D3750"/>
<path d="M172.118 22.9709C170.292 25.3443 170.462 28.5389 171.916 29.6567C173.37 30.7746 175.551 29.3866 177.376 27.0078C179.201 24.6291 178.968 22.5258 177.509 21.408C176.05 20.2901 173.948 20.5974 172.118 22.9709Z" fill="white"/>
<path d="M170.42 22.9654C169.995 23.4952 170 24.6448 170.42 24.9521C170.839 25.2594 171.269 24.8885 171.693 24.3376C172.118 23.7866 172.192 23.0184 171.794 22.7111C171.692 22.6247 171.572 22.5621 171.443 22.5278C171.313 22.4935 171.178 22.4883 171.046 22.5126C170.915 22.537 170.79 22.5902 170.682 22.6685C170.574 22.7468 170.484 22.8482 170.42 22.9654Z" fill="white"/>
<path d="M172.94 21.1958C172.94 21.1958 174.617 20.062 176.23 20.4276C177.843 20.7931 180.061 22.6527 178.936 25.1374C178.936 25.1374 177.976 26.8274 176.034 25.4976C174.092 24.1679 175.217 23.5268 173.598 23.6275C171.98 23.7281 171.778 22.4037 171.444 22.4619L172.94 21.1958Z" fill="#2D3750"/>
<path d="M172.202 23.9932L173.396 26.9017C172.998 27.0659 169.183 28.5546 167.66 28.846C167.172 28.8725 166.742 28.1891 166.695 27.3202C166.652 26.5361 166.933 25.8739 167.347 25.7309C169 25.2528 170.622 24.6724 172.202 23.9932Z" fill="white"/>
<path d="M175.291 60.4902C175.291 60.4902 180.331 62.3233 180.761 63.6001C181.191 64.8769 176.198 63.6796 174.155 61.1631L175.291 60.4902Z" fill="white"/>
<path fill-rule="evenodd" clip-rule="evenodd" d="M150.601 50.424C148.325 49.4174 147.343 47.8546 146.123 45.8361C145.654 45.0578 144.989 44.3142 144.329 43.5771C143.673 42.8441 143.023 42.1176 142.578 41.37C143.979 32.6656 155.005 26.0062 160.81 24.8619C165.909 23.8712 168.382 24.6659 169.019 28.4167L169.019 28.4213C169.022 28.4663 169.044 28.8155 168.805 29.3779L168.807 29.3915C169.938 41.4702 172.284 44.9672 178.603 54.3839C178.925 54.8634 179.257 55.3582 179.599 55.8702C179.025 56.4558 178.417 57.0077 177.779 57.5231C169.884 47.4794 166.929 43.5737 165.315 32.8572C165.143 32.9655 164.963 33.0747 164.774 33.1848C164.409 33.3957 164.103 33.5777 163.835 33.7399C163.421 44.9371 165.683 47.7364 173.499 57.4072C174.223 58.3029 174.995 59.2576 175.816 60.2833C175.324 60.9853 174.792 61.6591 174.224 62.3018C163.176 50.3572 161.074 46.9739 160.56 35.5089C159.957 35.7766 159.195 36.098 158.178 36.5118C156.257 37.2483 151.349 47.0281 150.601 50.424Z" fill="#FF715E"/>
<path d="M191.941 142.697H165.267V169.329H191.941V142.697Z" fill="white"/>
<path d="M185.295 151.628L185.3 151.633L185.305 151.638C185.408 151.738 185.491 151.858 185.547 151.99C185.604 152.123 185.634 152.265 185.635 152.408C185.636 152.552 185.609 152.695 185.555 152.828C185.501 152.961 185.421 153.082 185.32 153.184L185.319 153.184L185.313 153.191L179.169 159.61L178.455 160.303L178.455 160.303L178.445 160.313C178.344 160.417 178.222 160.5 178.087 160.557C177.953 160.614 177.808 160.643 177.662 160.643C177.517 160.643 177.372 160.614 177.237 160.557C177.103 160.5 176.981 160.417 176.88 160.313L176.88 160.313L176.875 160.308L171.081 154.528C171.081 154.528 171.081 154.528 171.081 154.528C171.081 154.528 171.08 154.528 171.08 154.528C170.871 154.319 170.754 154.036 170.754 153.74C170.754 153.445 170.871 153.162 171.081 152.953C171.29 152.743 171.574 152.626 171.871 152.626C172.167 152.626 172.452 152.743 172.661 152.953L177.176 157.461L177.53 157.814L177.883 157.461L183.72 151.633L183.72 151.633L183.725 151.628C183.827 151.523 183.949 151.439 184.084 151.382C184.219 151.325 184.364 151.296 184.51 151.296C184.656 151.296 184.801 151.325 184.936 151.382L185.131 150.922L184.936 151.382C185.071 151.439 185.193 151.523 185.295 151.628Z" fill="#FF715E" stroke="white"/>
<path d="M26.3204 250.943C26.2534 250.951 26.1857 250.951 26.1188 250.943C25.8614 250.89 25.6354 250.738 25.4902 250.52C25.345 250.301 25.2924 250.034 25.3441 249.777L26.7714 242.8C26.7923 242.668 26.8398 242.541 26.9111 242.428C26.9824 242.314 27.076 242.216 27.1862 242.14C27.2965 242.064 27.421 242.01 27.5524 241.984C27.6839 241.957 27.8194 241.957 27.9508 241.984C28.0822 242.01 28.2068 242.064 28.317 242.14C28.4273 242.216 28.5208 242.314 28.5921 242.428C28.6634 242.541 28.711 242.668 28.7318 242.8C28.7527 242.932 28.7464 243.067 28.7135 243.197L27.2914 250.175C27.2408 250.394 27.1172 250.589 26.9407 250.729C26.7643 250.868 26.5455 250.944 26.3204 250.943Z" fill="white"/>
<path d="M25.0524 249.623C25.0524 249.623 24.4369 252.166 25.0524 252.24C25.6679 252.315 34.5026 252.58 34.5557 252.166C34.7308 250.773 27.5091 249.48 26.7981 249.623C26.0871 249.766 25.132 249.258 25.0524 249.623Z" fill="#D7DFF4"/>
<path d="M46.5424 140.805C46.5424 140.805 44.3616 136.186 44.9505 135.031C45.5395 133.876 48.0864 138.04 47.7787 141.107L46.5424 140.805Z" fill="white"/>
<path d="M45.9534 141.187C45.8578 140.45 47.646 140.249 48.1978 140.18C51.1852 155.353 50.8509 154.098 44.6639 168.423C43.7141 170.611 42.8652 169.832 41.5545 168.651C41.2786 168.948 41.2839 168.948 41.5545 168.651C40.2386 167.469 40.7746 167.062 41.788 165.117C48.4366 152.365 47.8423 155.274 45.9534 141.187Z" fill="#D7DFF4"/>
<path d="M49.0521 250.921C48.985 250.927 48.9175 250.927 48.8504 250.921C48.7204 250.923 48.5912 250.9 48.4703 250.852C48.3494 250.804 48.2392 250.733 48.146 250.642C48.0528 250.551 47.9784 250.443 47.9272 250.324C47.876 250.205 47.8489 250.076 47.8476 249.946L47.7415 242.826C47.7415 242.563 47.846 242.311 48.0321 242.126C48.2182 241.94 48.4705 241.835 48.7337 241.835C48.9969 241.835 49.2492 241.94 49.4353 242.126C49.6214 242.311 49.7259 242.563 49.7259 242.826L49.8321 249.946C49.8327 250.173 49.7557 250.394 49.6139 250.571C49.4721 250.748 49.2738 250.872 49.0521 250.921Z" fill="white"/>
<path fill-rule="evenodd" clip-rule="evenodd" d="M25.4768 246.026C26.5911 246.079 27.7053 246.079 28.8196 246.079C30.827 233.517 34.6393 223.27 38.493 212.912C39.8559 209.249 41.224 205.571 42.5192 201.773C46.1315 216.69 46.7506 231.618 47.2693 247.086C48.3252 246.911 49.3599 246.646 50.3946 246.381C50.2031 240.61 50.2924 234.785 50.382 228.943C50.5903 215.363 50.7999 201.695 47.4868 188.423C47.0564 188.561 46.6263 188.699 46.1964 188.839C43.4218 188.39 40.6522 188.007 37.8826 187.66C36.4605 202.78 29.9393 228.464 25.4768 246.026Z" fill="#FF715E"/>
<path d="M47.8263 249.555C47.8263 249.555 47.2108 252.103 47.8263 252.172C48.4418 252.241 57.2765 252.511 57.3296 252.103C57.5047 250.704 50.283 249.417 49.572 249.555C48.861 249.693 47.9059 249.189 47.8263 249.555Z" fill="#D7DFF4"/>
<path d="M36.9648 190.738C39.3154 190.817 41.0876 191.421 43.3746 192.232C44.9293 192.761 47.0889 193.784 48.5587 194.467C48.2509 183.225 48.3782 178.314 44.9345 168.635C43.2154 163.803 40.4668 163.915 40.297 163.867C37.1133 163.337 34.2904 165.117 34.7839 168.635C34.9484 169.816 35.2084 170.145 35.8451 171.702C38.7264 179.109 37.6015 183.114 36.9648 190.738Z" fill="#D7DFF4"/>
<path d="M26.9998 141.923C26.9998 141.923 28.0929 136.673 27.2333 135.635C26.3737 134.596 24.7606 139.47 25.8271 142.522L26.9998 141.923Z" fill="white"/>
<path d="M35.9935 158.5C37.1237 161.276 39.9731 162.739 41.6711 162.045C43.3691 161.351 43.263 158.776 42.1381 156C41.0131 153.224 39.0605 152.376 37.3625 153.065C35.6646 153.753 34.858 155.74 35.9935 158.5Z" fill="white"/>
<path d="M34.8688 156.911C34.8688 156.911 34.7309 154.898 35.8611 153.69C36.9913 152.482 39.7186 151.502 41.3052 153.727C41.3052 153.727 42.2815 155.406 40.1485 156.413C38.0154 157.419 38.026 156.121 37.3043 157.573C36.5827 159.025 35.3305 158.521 35.1819 158.845L34.8688 156.911Z" fill="#2D3750"/>
<path d="M36.4768 158.612L39.6128 158.31C39.6552 158.739 39.9841 162.818 39.825 164.36C39.7082 164.831 38.9229 165.048 38.074 164.842C37.3152 164.656 36.758 164.195 36.7368 163.782C36.7566 162.055 36.6698 160.328 36.4768 158.612Z" fill="white"/>
<path d="M35.1289 159.978C35.3942 160.625 36.3706 161.192 36.8375 161.001C37.3045 160.81 37.2143 160.238 36.949 159.592C36.6837 158.945 36.0575 158.495 35.5906 158.686C35.4683 158.732 35.3576 158.804 35.2661 158.897C35.1745 158.991 35.1043 159.103 35.0604 159.226C35.0165 159.349 34.9999 159.48 35.0118 159.61C35.0236 159.74 35.0635 159.865 35.1289 159.978Z" fill="white"/>
<path d="M42.6581 160.794C42.7554 160.877 42.8335 160.979 42.8872 161.095C42.9408 161.211 42.9685 161.337 42.9685 161.464C42.9685 161.592 42.9408 161.718 42.8872 161.834C42.8335 161.949 42.7554 162.052 42.6581 162.135C41.947 162.882 40.7425 162.315 40.7796 161.822C40.8168 161.329 41.427 161.61 41.7029 161.324C41.9788 161.038 42.467 160.561 42.6581 160.794Z" fill="#2D3750"/>
<path d="M27.3341 141.341C27.2385 140.673 25.5246 140.811 24.9622 140.991C26.4638 155.11 26.4797 156.948 34.6512 169.07C35.8981 170.924 39.3524 168.725 36.6516 165.176C29.0214 155.142 29.1381 154.156 27.3341 141.341Z" fill="#D7DFF4"/>
<path d="M54.8464 83.6631H17.3479V136.207H54.8464V83.6631Z" fill="white"/>
<path d="M29.7272 110.465H22.6541V103.403H29.7272V110.465ZM23.7153 109.405H28.666V104.462H23.7153V109.405Z" fill="#376EFF"/>
<path d="M29.1966 96.6905H23.1847C23.0439 96.6905 22.909 96.6346 22.8095 96.5353C22.71 96.4359 22.6541 96.3012 22.6541 96.1607V90.1582C22.6541 90.0177 22.71 89.8829 22.8095 89.7836C22.909 89.6842 23.0439 89.6284 23.1847 89.6284H29.1966C29.3373 89.6284 29.4722 89.6842 29.5717 89.7836C29.6713 89.8829 29.7272 90.0177 29.7272 90.1582V96.1607C29.7272 96.3012 29.6713 96.4359 29.5717 96.5353C29.4722 96.6346 29.3373 96.6905 29.1966 96.6905ZM23.7153 95.6309H28.666V90.688H23.7153V95.6309Z" fill="#376EFF"/>
<path d="M29.1966 124.239H23.1847C23.0439 124.239 22.909 124.183 22.8095 124.084C22.71 123.985 22.6541 123.85 22.6541 123.71V117.707C22.6541 117.567 22.71 117.432 22.8095 117.332C22.909 117.233 23.0439 117.177 23.1847 117.177H29.1966C29.3373 117.177 29.4722 117.233 29.5717 117.332C29.6713 117.432 29.7272 117.567 29.7272 117.707V123.71C29.7272 123.85 29.6713 123.985 29.5717 124.084C29.4722 124.183 29.3373 124.239 29.1966 124.239ZM23.7153 123.18H28.666V118.237H23.7153V123.18Z" fill="#376EFF"/>
<path d="M47.9431 91.4824H32.3801V93.0718H47.9431V91.4824Z" fill="#376EFF"/>
<path d="M47.9431 94.5713H32.3801V96.1606H47.9431V94.5713Z" fill="#376EFF"/>
<path d="M47.9431 104.595H32.3801V106.184H47.9431V104.595Z" fill="#376EFF"/>
<path d="M47.9431 107.684H32.3801V109.273H47.9431V107.684Z" fill="#376EFF"/>
<path d="M47.9431 117.707H32.3801V119.296H47.9431V117.707Z" fill="#376EFF"/>
<path d="M47.9431 120.795H32.3801V122.385H47.9431V120.795Z" fill="#376EFF"/>
<path d="M28.042 105.755C27.9664 105.68 27.8643 105.638 27.7578 105.638C27.6514 105.638 27.5493 105.68 27.4737 105.755L26.0047 107.225L24.8681 106.09C24.7899 106.032 24.6934 106.004 24.5964 106.011C24.4993 106.019 24.4081 106.06 24.3392 106.129C24.2704 106.198 24.2286 106.289 24.2213 106.386C24.2141 106.483 24.242 106.579 24.2998 106.657L25.7546 108.11C25.8298 108.185 25.932 108.228 26.0388 108.229C26.1455 108.228 26.2475 108.185 26.3229 108.11C26.3725 108.058 26.4077 107.995 26.4252 107.925C26.4501 107.911 26.4722 107.893 26.4905 107.871L28.0476 106.32C28.121 106.243 28.1615 106.142 28.1604 106.036C28.1594 105.931 28.1168 105.83 28.042 105.755Z" fill="#FF715E"/>
<path d="M26.8259 120.66L27.7869 119.704C27.8703 119.619 27.9171 119.505 27.9171 119.386C27.9171 119.268 27.8703 119.154 27.7869 119.069C27.7454 119.027 27.6959 118.994 27.6413 118.971C27.5868 118.948 27.5282 118.937 27.4691 118.937C27.41 118.937 27.3515 118.948 27.297 118.971C27.2424 118.994 27.1929 119.027 27.1514 119.069L26.1903 120.025L25.2324 119.069C25.1466 118.992 25.0347 118.951 24.9196 118.954C24.8044 118.957 24.6949 119.004 24.6134 119.086C24.532 119.167 24.4848 119.276 24.4817 119.391C24.4786 119.506 24.5198 119.618 24.5968 119.704L25.5547 120.66L24.5968 121.62C24.5547 121.661 24.5214 121.71 24.4986 121.765C24.4758 121.819 24.4641 121.878 24.4641 121.937C24.4641 121.996 24.4758 122.054 24.4986 122.109C24.5214 122.163 24.5547 122.213 24.5968 122.254C24.6773 122.335 24.7864 122.382 24.9009 122.385C25.0152 122.381 25.1239 122.335 25.205 122.254L26.163 121.295L27.124 122.254C27.2045 122.335 27.3136 122.382 27.4281 122.385C27.5424 122.381 27.6511 122.335 27.7322 122.254C27.8156 122.17 27.8623 122.056 27.8623 121.937C27.8623 121.818 27.8156 121.704 27.7322 121.62L26.8259 120.66Z" fill="#FF715E"/>
<path fill-rule="evenodd" clip-rule="evenodd" d="M327.82 153.588C327.477 153.011 326.937 152.33 326.171 151.974C325.653 151.733 324.966 151.59 324.263 151.618C323.432 151.081 322.137 151.103 321.273 151.613C320.037 152.339 319.496 154.082 320.276 154.866C320.546 155.138 321.009 155.315 321.532 155.395C321.827 155.756 322.342 156.061 323.231 156.111C323.649 156.135 323.977 156.116 324.241 156.077C324.036 157.358 324.036 158.577 324.605 159.089C325.163 159.583 325.815 159.96 326.523 160.195C327.231 160.43 327.98 160.518 328.723 160.455C330.12 160.336 330.381 160.574 331.017 161.15C331.482 161.573 332.147 162.177 333.605 162.956C333.928 163.129 334.249 163.253 334.566 163.334C334.626 163.359 334.687 163.381 334.751 163.401C338.115 164.45 341.718 162.379 342.54 160.291C343.363 158.204 342.747 155.422 340.534 154.559C339.699 154.233 338.766 154.184 337.855 154.346C337.629 154.114 337.355 153.926 337.033 153.801C335.987 153.396 334.693 153.639 333.658 154.252C332.757 153.873 331.958 153.978 330.89 154.119C330.718 154.142 330.539 154.165 330.352 154.188C329.589 154.28 328.666 153.985 327.82 153.588Z" fill="#FF715E"/>
</svg>
